<?xml version="1.0" encoding="UTF-8"?>
<svg id="Camada_1" data-name="Camada 1" xmlns="http://www.w3.org/2000/svg" viewBox="0 0 194 75.11">
  <defs>
    <style>
      .cls-1 {
        isolation: isolate;
      }

      .cls-2 {
        fill: #284e32;
      }
    </style>
  </defs>
  <g>
    <g>
      <path class="cls-2" d="M36.6,53.85c-.02.82.03,1.65,0,2.48-.07,2.59-.23,5.39-.43,7.99-.22,2.82-.52,5.66-1.14,8.41-.08.12-.36.07-.49.07-.57-.03-4-.51-4.22-.84-.06-.09-.06-.14-.03-.25.05-.17.84-1.04,1.02-1.3,1.77-2.57,3.56-5.84,2.31-9.01-.16-.42-.7-1.07-.64-1.42.13-.85,1.56-3.75,2.05-4.58.35-.59.85-1.4,1.56-1.55h0Z"/>
      <path class="cls-2" d="M37.87,20.8c-.16.03-.24-.02-.37-.1-.37-.24-1.58-1.55-1.94-1.95-.24-.26-1.25-1.41-1.32-1.63-.22-.67.64-1.25.89-1.86.16-.39.15-.73-.34-.45-.69.41-1,1.64-1.81.83-.29-.29-1.07-1.25-.79-1.64.42-.28,2.17-2.59,2.39-2.67.39-.13,1,.73,1.3.99.45.39,1.77,1.36,1.97,1.82.23.51.15,1.88.14,2.5,0,.25-.11.48-.11.73-.02,1.14.02,2.28,0,3.42h0Z"/>
      <path class="cls-2" d="M19.52,12.71c.71.36,2.72.12,3.19.46.17.12,1.26,2.03,1.42,2.36.1.19.35.56.22.74l-6.06,1.1c-.24-.26-.97-.85-.9-1.22.06-.31.77-1.18.98-1.54.19-.33.91-1.85,1.15-1.91h0Z"/>
      <path class="cls-2" d="M30.05,3.14c.81-.1.93.07,1.28.77.24.5,1.18,3.34,1.18,3.78,0,.12,0,.25-.1.32-.29.19-1.82.11-2.26.16-.36.04-.82.38-1.15.19-.6-.34-1.77-3.31-2.38-3.95-.04-.23.58-.39.78-.46.67-.26,1.98-.73,2.66-.81h-.01Z"/>
      <path class="cls-2" d="M38.08,11.9l-.24.14c-1.33-.69-2.59-1.99-3.35-3.28-.25-.42-.96-1.76-.77-2.17.05-.11,1.71-1.57,1.85-1.63.08-.04.16-.08.25-.06l2.27,1.95v5.05h0Z"/>
      <path class="cls-2" d="M17.53,19.02c.4-.04,1.37,1.31,1.64,1.68.47.65,1.32,1.87,1.65,2.56.26.55-.32.6-.75.74-.76.25-1.63.41-2.42.63-.46.13-1.88.89-2.08.19-.19-.62.5-2.64.67-3.4.23-1.02-.05-2.27,1.29-2.41h0Z"/>
      <path class="cls-2" d="M23.85,17.25c.33-.03.98-.12,1.24.07.1.07,1.13,1.86,1.21,2.06.04.08.14.14.05.26-.19.4-1.64.55-2.14.71s-2.48,1.05-2.75.93c-.27-.42-2.28-2.61-2.3-2.86-.01-.14.1-.22.2-.29.34-.24,3.87-.81,4.5-.87h-.01Z"/>
      <path class="cls-2" d="M15.03,41.74c-.14.22-3.99.31-4.58.32-.53,0-1.06.33-1.44-.35l-1.13-2.74c.05-.17,1.94-1.04,2.2-1.08.38-.06,1.74.96,2.14,1.24.6.42,1.37.97,1.91,1.46.2.18,1.05.92.9,1.15Z"/>
      <path class="cls-2" d="M25.52,9.55c.17-.03,2.6.84,2.76.99.15.14,1.29,2.37,1.27,2.52,0,.1-.05.15-.1.22-.28.38-2.42.51-2.99.59-.34.05-1.31.33-1.49.2-.22-.15-1.42-2.04-1.42-2.28.39-.41,1.52-2.17,1.97-2.24Z"/>
      <path class="cls-2" d="M21.76,41.53h-4.37c-.61-.4-1.19-.84-1.74-1.31-.21-.18-1.05-.86-1.05-1.05,0-.28,1.9-2.16,2.37-2.26.19,0,2.41,2,2.74,2.31.44.41,1.68,1.53,1.95,1.94.08.13.13.21.1.37Z"/>
      <path class="cls-2" d="M31.1,42.81c.36-.06,1.92,1.25,2.29,1.57.85.71,1.91,1.69,2.64,2.52.6.69,1.21,1.29.79,2.27-.3.21-1.27-.47-1.58-.65-1.97-1.2-3.8-2.8-5.81-3.98-.16-.17-.11-.27,0-.43s1.5-1.27,1.66-1.29h.01Z"/>
      <path class="cls-2" d="M26.99,20.72c.12.1,1.04,1.51,1.11,1.68.18.43-.19.63-.5.91-.82.75-1.84,1.31-2.62,2.11-.08.09-.18.12-.3.09-.34-.09-1.96-2.59-2.44-2.94l-.04-.46c.08-.23,2.34-.96,2.73-1.07.42-.12,1.77-.59,2.07-.34v.02Z"/>
      <path class="cls-2" d="M5.26,28.67c-.24-.39.68-2.79.92-3.31.76.37,1.87.47,2.59.79s1.57,2.68,1.68,3.47c.04.29.2.93-.22.96l-4.98-1.92h0Z"/>
      <path class="cls-2" d="M15.74,57.23c.29-.06.49,0,.7.2.13.12,1.32,1.94,1.37,2.1.05.13.08.2.04.34-.05.17-1.63.92-1.95,1.11s-1.75,1.22-1.96,1.16c-.26-.07-2.23-2.38-2.13-2.62,1.18-.96,2.62-1.53,3.92-2.3h0Z"/>
      <path class="cls-2" d="M29.74,14.19c.88-.05,1.5,1.49,1.91,2.12-.04.23-3.37,2.32-3.92,2.37-.48-.12-1.93-2.99-2.07-3.61.06-.21,1.67-.35,2.02-.41.58-.11,1.56-.44,2.06-.47Z"/>
      <path class="cls-2" d="M12.79,33.46c.2.24.13.4.02.64-.15.32-1.82,2.41-2.06,2.48-.31.09-2.78-1.04-2.86-1.32-.11-.39.78-2.8.75-3.42l.26-.28,3.89,1.91h0Z"/>
      <path class="cls-2" d="M16.16,28.82c.2-.02.4-.06.6-.03.13,0,.19.09.27.15.14.09,1.68,1.63,1.73,1.74.12.26,0,.39-.24.5l-5.02.77c-.55-.04-1.75-.68-1.96-1.21-.12-.31-.24-.88.14-1.03l4.47-.89h.01Z"/>
      <path class="cls-2" d="M27.29,45.37c.14,0,.23.06.35.12.23.12,2.04,1.37,2.17,1.51.11.11.19.17.14.35-.08.16-.23.26-.36.39-.34.32-2.41,2.02-2.71,2.13-.38.14-1.45,0-1.71-.34-.24-.33-.57-2.49-.45-2.87s2.16-1.3,2.56-1.29h.01Z"/>
      <path class="cls-2" d="M19,60.71c.09,0,.18-.04.28,0,.23.08.36,1.6.45,1.97s.51,1.15.44,1.41c-.44.36-1.74,1.73-2.24,1.66-.2-.03-2.11-1.59-2.38-1.84-.38-.36-.77-.57-.32-1.06.34-.37,3.31-2.07,3.77-2.13Z"/>
      <path class="cls-2" d="M37.23,44.9c-.12.14-1.84-1.21-2.05-1.37-.38-.3-2.41-1.95-2.53-2.21-.1-.22-.04-.3.03-.49.1-.29.98-1.88,1.18-1.98.13-.06.21-.08.34-.04.16.05,2.17,1.88,2.39,2.14,1.11,1.31.69,2.36.63,3.95h0Z"/>
      <path class="cls-2" d="M5,43.24l4.56.24c.14.09-.1,1.29-.14,1.55-.1.53-.19,1.07-.44,1.56-.26.26-3.36.32-3.63.05-.19-.18-.62-2.38-.63-2.74,0-.29-.02-.54.29-.66h0Z"/>
      <path class="cls-2" d="M13.1,13.65c.27-.05,2.76,2.78,3.09,3.21.44.59,1.19,1.34-.06,1.51-1.04.15-2.5-.13-3.4-.68-.19-.12-1.6-1.21-1.65-1.31-.04-.08-.07-.15-.03-.24,0,0,2.05-2.49,2.05-2.49Z"/>
      <path class="cls-2" d="M21.43,24.5c.12-.04.22-.02.33.03.22.1,1.48,1.72,1.46,1.9l-3.75,2.14c-.12.04-.23,0-.35-.03-.39-.12-1.88-2.05-2.3-2.45l.03-.25,4.56-1.34h.02Z"/>
      <path class="cls-2" d="M25.53,29.76c.37-.06.48.16.71.4.58.61,1.08,1.59,1.63,2.26,0,.23-1.87,1.73-2.18,1.93-.16.1-.29.25-.5.23-.3-.02-2.82-2.48-2.79-2.67l3.12-2.16h.01Z"/>
      <path class="cls-2" d="M33.63,24.18c.66-.1,3.41,1.93,4.08,2.4.1.22.1,2.83.06,3.21-.09.75-.68.11-1.01-.16-1.13-.95-2.08-2.25-3.1-3.32-.22-.23-.93-.72-1.01-.89-.13-.29.67-1.19.97-1.24h0Z"/>
      <path class="cls-2" d="M22.82,69l3.05-4.05c.35-.25,2.08.92,2.16,1.11.04.09.06.15.05.25-.02.27-2.3,3.69-2.53,3.8-.56.26-2.12-.93-2.73-1.11Z"/>
      <path class="cls-2" d="M14.74,32.93l4.85-.86c.44-.13,1.98,1.45,1.96,1.61-.06.12-.17.18-.28.26-.52.36-2.19,1.3-2.77,1.55-.68.3-.79,0-1.34-.35-.32-.21-2.51-1.72-2.54-1.88l.11-.33h.01Z"/>
      <path class="cls-2" d="M8.03,21.01c1.3.95,2.72,1.85,3.94,2.9.16.14.39.29.43.51-.04.18-2.27.83-2.61.87-.8.1-1.2-.03-1.92-.34-.32-.14-1.11-.5-1.16-.84s1.15-3.08,1.32-3.1Z"/>
      <path class="cls-2" d="M12.53,48.61c.26-.2.62-.15.92-.09.69.15,2.68,1.15,3.44,1.51.3.14.62.28.87.49,0,.22-1.44.89-1.72,1.02-.36.17-1.64.76-1.94.81-.14.02-.21.02-.34-.02-.24-.07-2.03-1.76-2.08-2.03-.08-.38.58-1.46.85-1.68h0Z"/>
      <path class="cls-2" d="M14.19,47.22l-4.27-.52c.2-.62.21-2.68.53-3.07.13-.15.24-.18.42-.21.43-.05,1.72-.15,2.12-.11.15,0,.3,0,.42.1.25.19.92,3.66.78,3.8h0Z"/>
      <path class="cls-2" d="M15.75,27.94c-.21.34-3.84.89-4.44,1.05l-1.21-2.68c.62-.22,2.65-1.19,3.17-1.08.17.03.27.15.4.24.24.18,1.88,1.8,2,2,.08.13.17.33.09.47h0Z"/>
      <path class="cls-2" d="M4.82,29.85c.13-.12,2.81,1.04,3.11,1.37.09.18-.52,3.11-.68,3.43-.17.35-.31.28-.67.23s-2.11-.86-2.24-1.13c-.29-.61.42-3.11.47-3.9h.01Z"/>
      <path class="cls-2" d="M31.95,17.24c.54-.09,1.16.84,1.41,1.28.32.56.03.63-.39,1.02-.34.31-2.83,2.2-3.06,2.22-.1,0-.16-.01-.25-.05-.15-.07-1.35-1.64-1.43-1.85-.04-.11-.09-.19,0-.31l3.72-2.3h0Z"/>
      <path class="cls-2" d="M28.68,23.76c.35-.06.8.47,1.03.72.27.3.67.83.78,1.19-.06.23-2.37,2.08-2.74,2.33-.25.17-.55.45-.86.36-.18-.05-1.56-1.88-1.53-2.02.41-.35.78-.78,1.2-1.12.27-.22,1.93-1.43,2.13-1.46h-.01Z"/>
      <path class="cls-2" d="M11.66,48.16c-.24,1.42-1.41,1.95-2.65,2.34-.35.11-2.1.58-2.29.45-.23-.75-.95-1.98-.95-2.74,0-.22,0-.13.16-.16.55-.08,1.31.03,1.9,0,.25,0,.48-.11.73-.11,1.04-.02,2.1-.06,3.11.22h-.01Z"/>
      <path class="cls-2" d="M30.69,9.04c.46-.04,1.89-.12,2.26-.01.28.08,1.07,1.13,1.11,1.43.04.27-.66,1.05-.88,1.29s-1.4,1.46-1.59,1.48c-.15.02-.2-.02-.31-.11-.12-.1-.75-1.11-.87-1.33-.27-.46-.88-1.62-.95-2.11-.02-.15-.07-.29.08-.39.15-.12.9-.21,1.14-.23v-.02Z"/>
      <path class="cls-2" d="M16.13,10.73c.19,0,1.88,1.22,2.1,1.44.11.11.25.18.26.36.02.45-1.51,3.01-1.94,3.01-.13,0-.18-.09-.27-.16-.4-.31-1.75-1.65-2.05-2.05-.5-.66-.19-.78.31-1.27.21-.2,1.46-1.33,1.58-1.33h.01Z"/>
      <path class="cls-2" d="M10.85,58.55l-1.81-2.74c.04-.23.96-.57,1.22-.67.45-.19,1.87-.76,2.27-.64.33.1,1.6,2.07,1.54,2.33-.45.44-1.14.72-1.7,1.04-.37.22-1.16,1-1.52.68Z"/>
      <path class="cls-2" d="M32.89,55.44c.35-.05.35.13.3.41-.09.51-1.6,3.9-1.91,4.31-.5.66-1.53.45-2.26.59-.41-.29.45-3.32.8-3.74.1-.12.17-.16.29-.24.2-.14,2.63-1.31,2.78-1.33Z"/>
      <path class="cls-2" d="M22.16,34.5c.21-.04.31,0,.49.1.08.04,1.32,1.16,1.39,1.24.15.18.21.33.13.57-.05.15-1.4,1.16-1.63,1.32-.3.2-1.25.82-1.54.74s-1.85-1.87-2.28-2.14c0-.1.97-.64,1.15-.74.44-.24,1.89-1.02,2.29-1.09Z"/>
      <path class="cls-2" d="M24.99,37.03c.21-.02.37.17.51.29.22.18,1.42,1.34,1.53,1.52.27.46-.2.76-.53,1.06-.41.38-1.62,1.38-2.15,1.31-.43-.06-2.37-1.61-2.26-2.03.38-.3,2.64-2.13,2.9-2.16h0Z"/>
      <path class="cls-2" d="M24.62,51.54c.22-.14,3.23.23,3.67.35.32.09.48.12.4.51-.06.32-1.41,2.37-1.67,2.55-.11.08-.24.14-.38.16-.27.03-2.55-.72-2.63-.84-.28-.42.49-2.19.6-2.73h0Z"/>
      <path class="cls-2" d="M10.37,50.92c.3-.05.55-.08.82.07s1.67,1.58,1.47,1.9c-.21.33-3.38,1.2-3.93,1.56l-.45-.03c-.17-.8-1.7-2.17-.55-2.66.46-.2,2.18-.77,2.63-.84h.01Z"/>
      <path class="cls-2" d="M22.99,55.04c.84-.02,1.67.22,2.42.57.3.14,1.18.49,1.08.89-.07.28-1.7.86-2.07.99-.44.16-1.8.74-2.16.64-.33-.1-1.61-2-1.75-2.44.09-.33,2.1-.65,2.49-.66h-.01Z"/>
      <path class="cls-2" d="M13.41,19.13l2.07.21c.31.18.29.56.27.86-.03.48-.88,3.93-1.2,3.96-.73-.56-1.57-1.03-2.14-1.76l.82-3.04.18-.24h0Z"/>
      <path class="cls-2" d="M28.47,33.44c.32-.06.44.08.66.25.24.18,1.34,1.34,1.48,1.57.15.26.15.39,0,.64-.06.11-1.63,1.67-1.74,1.74-.21.12-.24.13-.47.05-.18-.06-1.9-1.7-2.01-1.89-.16-.28-.14-.54.06-.79.14-.17,1.88-1.54,2.02-1.57Z"/>
      <path class="cls-2" d="M20.11,29.25c.17-.19,1.34-.86,1.65-1.03.37-.2,1.62-.88,1.96-.89.61-.02,1.12,1.07,1.41,1.53.02.11-.06.14-.11.2-.25.29-1.66,1.24-2.07,1.51-.27.18-.85.63-1.15.65-.51.03-1.53-1.22-1.81-1.65-.02-.11.04-.24.11-.32h0Z"/>
      <path class="cls-2" d="M37.44,38.9c-1.76-.93-3.03-2.47-4.53-3.73-.35-.26.35-1.29.53-1.38.29-.15.8.23,1.09.39.42.24,2.56,1.7,2.76,1.98.4.58.28,2.06.16,2.74h0Z"/>
      <path class="cls-2" d="M33.87,52.79c.19.29-.55.62-.77.75-1.08.64-2.84,1.52-4,2-.44.18-1.97.79-1.42-.27.15-.29,2.03-2.89,2.2-2.96.37-.17,3.89.31,4,.47h0Z"/>
      <path class="cls-2" d="M34.92,51c-.22.2-5.13-.52-5.81-.66-.33-.07-.97-.06-.92-.53.04-.14,2.19-1.57,2.44-1.67.2-.08.32-.11.54-.08.61.07,2.95,2,3.49,2.52.12.12.29.23.26.42Z"/>
      <path class="cls-2" d="M28.16,57.55c.6-.07.28,1.37.19,1.78-.14.63-1.24,2.75-1.82,2.92-.55.16-1.5-1.09-1.82-1.51-.04-.37,1.19-2.11,1.53-2.36.24-.18,1.65-.79,1.92-.83Z"/>
      <path class="cls-2" d="M13.63,34.5c.18-.05.28-.03.45.04.11.04,1.74,1.3,1.85,1.41.52.59-.2.83-.53,1.16-.36.36-1.03,1.35-1.47,1.38-.37.02-1.91-.9-2.2-1.18-.08-.08-.18-.09-.18-.25,0-.2,1.83-2.49,2.08-2.56Z"/>
      <path class="cls-2" d="M27.84,39.97c.1-.02.17-.02.27,0,.19.03,2.23,1.88,2.28,2.06.02.06.02.11,0,.17-.05.21-1.61,1.34-1.87,1.38-.44.08-3.09-1.35-3.16-1.59-.05-.18.05-.25.15-.36.17-.19,2.19-1.64,2.34-1.67h-.01Z"/>
      <path class="cls-2" d="M33.41,28.71l1.36,1.35v.22c-.58.62-1.99,3.35-2.59,3.63-.41.19-1.28-.72-1.24-1.03.06-.52.74-1.96,1.02-2.47.22-.39,1.02-1.67,1.46-1.7h-.01Z"/>
      <path class="cls-2" d="M10.2,17.24c.48-.29,1.95,1.37,2.28,1.74-.08.44-.66,2.81-1,2.87l-2.76-1.96c-.05-.18,1.35-2.57,1.48-2.65Z"/>
      <path class="cls-2" d="M24.39,49.74h-3c-.44,0-1.15-2.34-1.06-2.53.2-.39,2.79-.62,3.22-.48.71.23.62,2.37.84,3.01Z"/>
      <path class="cls-2" d="M19.64,8.19c.63,1.01,1.64,1.98,2.14,3.07.09.2.35.59.09.76-.42.29-2.04-.21-2.53-.43-.41-.18-1.99-1.18-2.17-1.53-.13-.26.79-.92,1.02-1.09.26-.2,1.16-.95,1.44-.78h.01Z"/>
      <path class="cls-2" d="M33.94,19.76c.47-.14,1.1.48.95.95l-2.79,3.75c-.09.03-.18.03-.27,0-.25-.07-1.5-1.53-1.43-1.81l3.54-2.9h0Z"/>
      <path class="cls-2" d="M4.08,35.37c.11-.36,1,.11,1.26.21.93.36,2.44.9,3.27,1.36.16.09.42.21.42.43-.95.47-2.15.98-3.22,1.09-.36.04-1.72.17-1.72-.36,0-.56-.11-2.36,0-2.74h-.01Z"/>
      <path class="cls-2" d="M22.64,10.66c-.27-.56-2.14-2.63-2.13-3.07,0-.3,1.77-1.24,2.05-1.21.09,0,.16.04.21.11.15.58,1.7,2.08,1.74,2.48.04.37-1.27,2.33-1.86,1.7h0Z"/>
      <path class="cls-2" d="M21.66,43.22c-.15.49.44,2.43.11,2.69-.6.15-2.69.47-3.11.16-.05-.03-.26-.35-.26-.38v-2.32l.16-.16h3.1Z"/>
      <path class="cls-2" d="M24.05,61.65c.19-.05.25,0,.4.08.17.1,1.4,1.4,1.4,1.51-.32.72-.79,1.48-1.26,2.11-.19.25-.44.74-.76.71-.29-.03-1.66-1.52-1.72-1.93.01-.3,1.7-2.41,1.94-2.48Z"/>
      <path class="cls-2" d="M31.42,36.39c.19-.04.24,0,.4.08.07.04,1.08.96,1.16,1.06.12.14.25.29.26.48.02.25-1,2.22-1.2,2.37-.18.13-.38.15-.58.04l-2.09-1.8c-.07-.33,1.72-2.17,2.06-2.23h0Z"/>
      <path class="cls-2" d="M15.43,43.14c.44-.04,1.97-.14,2.18.28.12.24-.05,2.31-.18,2.56-.24.46-1.73.3-2.23.47-.42-.08-.75-1.93-.79-2.36-.08-1.02.06-.87,1.02-.96h0Z"/>
      <path class="cls-2" d="M19.53,51.44c.32-.04.5.29.55.57.05.31.05,2.25-.05,2.47-.16.36-1.94.96-2.26.79-.27-.14-.86-2.11-.94-2.51.06-.18,2.4-1.28,2.7-1.32Z"/>
      <path class="cls-2" d="M4.32,39.45c.13-.09,2.33-.36,2.5-.28.38.17,1.52,2.54,1.33,2.79s-.77,0-1.06,0c-.86-.03-1.73.07-2.59-.04-.19-.14-.43-2.28-.18-2.46h0Z"/>
      <path class="cls-2" d="M19.21,55.97c.54-.04,2.02,2.11,2.03,2.45,0,.31-1.94,1-2.25.97-.59-.06-1.53-1.51-1.74-2.03-.14-.35-.26-.58.12-.8.29-.17,1.52-.56,1.84-.59Z"/>
      <path class="cls-2" d="M29.11,61.45c.28-.03,1.52-.18,1.48.21l-1.73,3.33c-.35.55-1.64-.38-2.04-.69-.53-.41-.26-.6.05-1.09.58-.91,1.12-1.64,2.23-1.77h.01Z"/>
      <path class="cls-2" d="M25.65,4.81l2.11,4.05c-.05.34-.28.27-.53.21-1.15-.26-2.1-.9-2.84-1.79-.18-.22-1.01-1.32-.9-1.52.13-.24,2.04-1.02,2.16-.94h0Z"/>
      <path class="cls-2" d="M37.76,25.27l-.26.16-3.14-1.89c-.35-.33.16-.98.36-1.3.17-.26.69-1.06.98-1.03s2.06,1.97,2.06,2.27c0,0,0,1.79,0,1.79Z"/>
      <path class="cls-2" d="M37.55,35.11c-.1.11-.7-.3-.83-.38-.34-.2-2.51-1.57-2.59-1.73-.18-.33,1.01-2.26,1.44-2.16.23.05,1.76,1.63,1.87,1.91.3.75.13,1.58.12,2.36h0Z"/>
      <path class="cls-2" d="M21.31,64.7l1.91,2.17c-.18.6-.9,1.7-1.64,1.42-.25-.09-2.42-1.51-2.43-1.65.54-.8,1.41-1.34,2.16-1.94Z"/>
      <path class="cls-2" d="M30.67,64.69c.14-.02,1.69,1.52,1.72,1.73.1.6-.73,1.86-1.12,2.35-.38.11-1.98-1.12-2.23-1.53.22-.43,1.25-2.49,1.63-2.56h0Z"/>
      <path class="cls-2" d="M26.61,70.79c-.1-.13,1.66-2.57,1.86-2.62.23-.06,2.07,1.33,2.12,1.54.09.37-.95,1.67-1.32,1.91l-2.66-.83Z"/>
      <path class="cls-2" d="M20.18,49.85c-.18.19-4.14-1.82-4.71-1.97-.21-.04-.33-.39-.23-.54.13-.2,3.66-.44,4.07-.25.45.21.84,2.21.87,2.76Z"/>
      <path class="cls-2" d="M23.63,59.13c.19-.02.34.02.34.24,0,.49-2.67,4.03-3,3.95-.38-.4-.91-2.43-.68-2.78.2-.3,2.92-1.37,3.33-1.42h.01Z"/>
      <path class="cls-2" d="M21.08,51.32h1.68s.62.09.74.11.22.04.26.17c.05.16-.32,1.52-.43,1.76-.41.96-1.38,1.08-2.31,1.07-.18-.12-.09-1.38-.1-1.69,0-.45-.26-.99.16-1.42Z"/>
      <path class="cls-2" d="M15.42,53.24c.25-.04.48-.09.66.13.14.16.87,2.04.82,2.2-.25.24-1.57.81-1.84.8-.42-.02-1.48-1.85-1.72-2.26.01-.16,1.8-.83,2.07-.87h.01Z"/>
      <path class="cls-2" d="M27.69,29.04c.17-.2.86-.59,1.13-.51.24.07,2.07,1.69,2.1,1.91.04.32-.45,1.54-.74,1.68-.15.08-.15.02-.27-.05-.38-.26-2.22-2.25-2.32-2.64-.04-.15,0-.27.09-.39h.01Z"/>
      <path class="cls-2" d="M30.89,26.39c.54-.16,1.52,1.09,1.8,1.52.03.34-.9,1.49-1.23,1.56-.45.1-1.78-1.26-2-1.7-.01-.15,1.28-1.34,1.43-1.38Z"/>
      <path class="cls-2" d="M38.18,5.43c-.3.3-1.82-1.3-2.05-1.58-.32-.39-.68-.92-.8-1.41.03-.17,2.36-.38,2.67-.18.05.03.18.23.18.27v2.89h0Z"/>
      <path class="cls-2" d="M22.79,43.13c.24-.07.41,0,.63.06.54.17,1.79.93,2.31,1.26s-.09.56-.46.74c-.73.36-1.64.69-2.46.49-.2-.43-.58-2.4-.03-2.56h.01Z"/>
      <path class="cls-2" d="M33.14,5.64l-1.06-2.94c.62,0,1.7-.46,2.2-.05.22.17.76,1.29.73,1.55-.11.32-.46.53-.73.75-.18.15-1,.78-1.14.69Z"/>
      <path class="cls-2" d="M32.92,65.42c-.18.05-.21-.08-.32-.16-.29-.23-1.32-1.27-1.37-1.59-.06-.39.44-1.48.65-1.87.15-.28.22-.58.57-.68.96,1.15.97,2.94.47,4.29h0Z"/>
    </g>
    <g>
      <path class="cls-2" d="M40.5,73l.37-19.47c2.21,1.53,1.68,4.29,1.84,6.58.29,4.22,1.5,8.33,3.79,11.89-.1.46-5.28.96-6,1Z"/>
      <path class="cls-2" d="M39.97,13.22v-6.05c0-.13.41-.51.54-.62.25-.22,1.67-1.28,1.89-1.38.09-.04.14-.07.25-.06.55.04,1.73,1.73,2.32,2.01l.14.27c-.9,1.8-2.28,3.67-3.82,4.98-.38.32-.84.68-1.31.84h0Z"/>
      <path class="cls-2" d="M58.77,56.81c.14-.03,1.84.65,2.14.77,1.31.51,2.81,1.12,4.07,1.72.19.09.92.38.87.59-.02.1-1.18,1.39-1.36,1.59-.21.23-.94,1.04-1.19.98l-4.38-2.68c-.31-.39-.42-1.47-.44-1.98,0-.27-.07-.92.28-.98h0Z"/>
      <path class="cls-2" d="M44.05,17.24c.2-.03,1.37.65,1.45.82.41.83-.79,2.39-1.27,3.04-1.07,1.45-2.32,2.83-3.67,4.01-.19-.14-.24-.24-.27-.47-.07-.5-.07-3.68.05-4.06.14-.44,1.44-1.37,1.85-1.73.37-.33,1.46-1.55,1.86-1.62h0Z"/>
      <path class="cls-2" d="M52.45,4.92c.23-.06,3.45,1.43,3.57,1.67l.03.35c-.72.72-1.62,2.79-2.44,3.26-.86.49-2.7.33-3.65.14-.25-.18,0-.64.09-.86.42-1.08,1.37-2.9,1.96-3.93.08-.14.31-.59.43-.62h.01Z"/>
      <path class="cls-2" d="M47.97,24.27c-.71-.07-1.85,2.22-2.16,2.22l-1.85-1.84c-.17-.22-.13-.42,0-.64.07-.12,1-1.15,1.1-1.21.2-.12.31-.12.53-.1.43.03,2.66.85,3.15,1.07.46.21,1.89,1.09,1.86,1.61,0,.24-1.87,2.74-2.16,3.01-.1.1-.17.2-.33.21-.34.03-1.5-1.06-1.52-1.43-.03-.52,1.69-2.54,1.37-2.89h.01Z"/>
      <path class="cls-2" d="M71.02,50.58c.19.18-.82,2.5-1.03,2.81-.25.37-.31.48-.8.46l-4.26-1.01c-.49-.82-.56-1.8-.72-2.72l.19-.22,6.63.69h0Z"/>
      <path class="cls-2" d="M57.2,60.28c.32-.05,3.26,1.66,3.78,1.96s1.28.63,1.61,1.11c-.03.16-2.18,2.01-2.42,2.12-.15.07-.26.09-.41,0l-3.85-2.58c-.06-.12-.07-.24-.06-.37.02-.39.92-2.19,1.35-2.25h0Z"/>
      <path class="cls-2" d="M60.92,36.68c-.11-.62.36-.72.68-1.04.48-.49,2.36-2.53,2.82-2.66s2.3.72,2.95.68l.16.15c-.12.45.31,2.64.02,2.83-.77.17-6.42.3-6.63.04Z"/>
      <path class="cls-2" d="M62.99,44.61c.36-.02,2.66.82,2.75,1.1.14.41-.65,2.43-1.04,2.61-.43.19-1.33-.02-1.81-.08-1.21-.17-3.17-.51-4.32-.84-.48-.13-.52-.3-.11-.59.54-.38,1.62-.91,2.24-1.23.57-.29,1.7-.94,2.29-.97Z"/>
      <path class="cls-2" d="M40.6,41.06c.15-1.39,1.97-2.84,2.91-3.82.26-.05,2.23,1.54,2.25,1.83.02.22-.32.6-.48.79-1.25,1.53-3.09,2.84-4.42,4.31l-.26-.16c.07-.94-.1-2.02,0-2.95Z"/>
      <path class="cls-2" d="M67.07,45.79c1.09.12,2.18.35,3.27.48.35.04,1.87.03,2.06.15.14.1.1.26.08.4-.03.2-.69,2.3-.77,2.4-.13.15-.35.12-.52.11-1.73-.1-3.58-.58-5.33-.68-.15-.1-.11-.35-.08-.51.09-.44.84-2.3,1.29-2.35Z"/>
      <path class="cls-2" d="M55.31,41.02c.38-.08,2.66.78,2.86,1.1.22.34.07.86.12,1.25.1.96.56,1.9-.74,2.22-.41.1-1.36-.61-1.82-.82-1.12-.49-2.4-.77-3.33-1.61.17-.18.34-.36.53-.52.28-.23,2.18-1.58,2.38-1.62Z"/>
      <path class="cls-2" d="M46.81,18.06c.16-2.37,1.5-4.51,2.47-6.63l3.42-.16c.24.16,0,.47-.09.65-.9,1.83-3.84,4.73-5.49,5.98-.11.08-.13.21-.32.16h0Z"/>
      <path class="cls-2" d="M46.19,8.37l.04-.52c.6-.66,1.51-3.97,1.99-4.32.19-.14.3-.11.51-.08.26.04,2.37.8,2.45.92.16.26-.06.72-.17.99-.47,1.08-1.3,2.23-1.88,3.27-.11.08-.22.14-.36.15-.25,0-2.5-.31-2.57-.42h-.01Z"/>
      <path class="cls-2" d="M54.19,11.95c-.06-.21.03-.37.11-.55.63-1.33,2.08-2.72,2.79-4.06.3-.09,2.67,1.52,2.65,1.81-.05.15-.13.29-.21.42-.37.62-1.39,2.19-1.83,2.7-.21.25-.39.33-.72.31-.28-.01-2.71-.52-2.8-.64h0Z"/>
      <path class="cls-2" d="M48.67,45.98c.41-.02,2.18,1.15,2.6,1.46.21.16.76.42.49.66-.19.17-1.66.6-2.02.71-1.58.5-3.68,1.11-5.3,1.33-.27.04-.81.17-.99-.04-.05-.22,1.39-1.42,1.64-1.63.77-.65,2.16-1.79,3-2.26.16-.09.4-.23.59-.24h0Z"/>
      <path class="cls-2" d="M68.4,33.76l4.76-1.27c.44.15.35,2.49.48,2.97-.12.28-.4.33-.65.41-1.21.37-2.59.38-3.82.71-1.12,0-.75-2.05-.76-2.82h-.01Z"/>
      <path class="cls-2" d="M57.94,17.97c.1-.02.16-.03.27,0,.23.06,1.07,1.49,1.34,1.82.77.94,1.32.69.84,2.11-.25.75-.29,1.01-1.16.85-.77-.15-2.64-.81-3.39-1.14-.15-.06-.56-.21-.6-.35.42-.89,1.73-3.04,2.7-3.29Z"/>
      <path class="cls-2" d="M40.81,49c-.06-.06.1-1.62.16-1.78.1-.27,1.55-2.13,1.84-2.47.48-.57,1.11-1.01,1.52-1.64.42-.49,2.32,1.23,2.43,1.48.04.08.08.15.04.24-.06.23-1.39,1.16-1.68,1.38-.99.75-2.8,2.18-3.85,2.68-.15.07-.27.16-.46.12h0Z"/>
      <path class="cls-2" d="M57.34,16.8c.23-1.61.85-3.21,1.63-4.63.19-.35,1.36-2.24,1.6-2.3.32-.08,2.16,1.51,2.13,1.71-1.11,1.37-2.19,2.79-3.51,3.96-.21.19-1.66,1.44-1.84,1.26h-.01Z"/>
      <path class="cls-2" d="M64.26,23.87l2.82,1.14c.07.57.18,2.23-.27,2.58-.15.12-2.25.6-2.46.58-.46-.05-.95-.77-1.2-1.12-.21-.29-.93-1.35-.85-1.64.07-.27,1.67-1.48,1.96-1.53h0Z"/>
      <path class="cls-2" d="M55.85,17.21l-4.09-1.74,1.81-2.71.31-.05c.4.23,2.97.54,3.09.71.11.15.03.38,0,.54-.19,1.02-.88,2.21-1.12,3.25Z"/>
      <path class="cls-2" d="M54.24,63.32l4.67,3.1c-.49.34-2.42,1.87-2.88,1.84-.38-.02-2.48-1.86-2.57-2.18-.04-.14,0-.24,0-.37.04-.28.5-1.84.61-2.13.04-.1.04-.22.17-.26Z"/>
      <path class="cls-2" d="M59.84,49.13c.25.23-.51,2.32-.81,2.56-.46.37-2.41-.05-2.92-.36-.31-.18-1.93-1.81-1.93-2.08,0-.14.08-.18.18-.25.15-.12,1.74-.85,1.88-.86l3.61.98h-.01Z"/>
      <path class="cls-2" d="M68.05,37.88c.27,0,.63-.11.74.25.18.63.01,1.63.23,2.3-.03.54-.39.7-.84.84-.58.18-2.36.63-2.91.67s-.6-.03-.57-.57c.03-.45.24-2.9.37-3.1.24-.36,1.26-.18,1.68-.22s.89-.16,1.3-.18h0Z"/>
      <path class="cls-2" d="M50.5,71l-2.79.84c-.12,0-.18-.08-.27-.14-.33-.27-1.66-2.78-1.63-3.17.02-.32,1.59-1.7,1.85-2.11.27-.14.6.47.71.66.76,1.21,1.48,2.65,2.13,3.93h0Z"/>
      <path class="cls-2" d="M53.74,39.94c-.55.2-2.09,1.74-2.56,1.7-.37-.03-2.85-1.87-3.11-2.37,0-.22,1.5-1.82,1.73-1.95.3-.17.46-.13.75,0,.31.14,3.04,2.12,3.15,2.32.05.09.09.2.04.3Z"/>
      <path class="cls-2" d="M49.25,30.36c-.07-.21.02-.37.11-.55.14-.3,1.07-1.65,1.29-1.86.28-.26.43-.26.8-.16.32.09,2.69,1.46,2.94,1.69.26.25.27.28.1.61-.16.3-1.93,2.17-2.14,2.17l-3.09-1.91h0Z"/>
      <path class="cls-2" d="M51.19,16.3c.81-.08,3.11,1.57,4.1,1.65.2.38-1.04,2.27-1.22,2.37-.49.3-1.96-.73-2.49-.98-.81-.38-1.66-.7-2.46-1.12-.04-.17,1.7-1.88,2.07-1.91h0Z"/>
      <path class="cls-2" d="M54.88,22.19l4.62,1.44c.14.7-.9,2.76-1.6,2.82l-4.04-2.44c-.36-.42.62-1.78,1.02-1.82Z"/>
      <path class="cls-2" d="M65.72,54.18c.45.13,3.22.53,3.3.88-.25.56-1.99,3.51-2.38,3.61l-2.76-1.21c-.07-.22.06-.39.14-.57.14-.32,1.54-2.68,1.7-2.71Z"/>
      <path class="cls-2" d="M40.5,37.53c.04-1.27-.31-2.59,0-3.83l3.49-1.98c.57-.31,1.32.66,1.07,1.18-.69.87-1.38,1.78-2.15,2.59-.39.4-1.67,1.7-2.05,1.95-.13.08-.21.13-.37.1h0Z"/>
      <path class="cls-2" d="M53.09,24.71c.32-.06,3.18,1.54,3.59,1.85.23.17.67.43.51.76-.47.38-1.14,1.49-1.67,1.72-.13.06-.2.04-.32-.04l-3.64-2.16c-.04-.17,1.29-2.08,1.53-2.13Z"/>
      <path class="cls-2" d="M54.78,35.14c.13.14,1,2.85.99,3.07-.02.3-.68.82-.93.88-.29.06-1.72-1.02-2.06-1.26-.32-.23-1.78-1.27-1.85-1.53l.09-.3c.35-.19,1.23-1.41,1.47-1.48.42-.12,2,.3,2.29.62Z"/>
      <path class="cls-2" d="M73.65,37.11v2.89c0,.08-.16.34-.16.48l-.12.09c-1.13.06-2.28.32-3.41.18-.41-.85-.35-1.83-.48-2.75.04-.27.84-.37,1.1-.44s3.07-.64,3.07-.45h0Z"/>
      <path class="cls-2" d="M68.86,19.22l1.58,3.05c-.11.26-2.2,1.69-2.55,1.76-.48.1-2.56-.35-2.56-.87,0-.3,1.05-1.13,1.32-1.42.76-.81,1.48-1.68,2.21-2.53h0Z"/>
      <path class="cls-2" d="M70.7,32.06c-1.84.84-3.74,1.04-5.58.05-.06-.28.89-1.06,1.1-1.31.3-.35,1.36-1.82,1.63-1.95.2-.09.43-.09.63,0l2.21,3.21h.01Z"/>
      <path class="cls-2" d="M58.26,30.61c.16.19.41,2.44.32,2.74-.12.41-2.1.78-2.55.81s-2.34-.12-2.54-.53c-.04-.16.12-.31.22-.43.31-.4,1.95-2.05,2.33-2.3s1.95-.62,2.22-.31v.02Z"/>
      <path class="cls-2" d="M55.02,69c-.65.14-2.77,1.5-3.29,1.36-.32-.09-1.76-2.33-1.64-2.75.05-.18,1.53-1.73,1.91-1.53.75.73,1.71,1.37,2.45,2.09.15.15.72.62.57.84h0Z"/>
      <path class="cls-2" d="M50.89,44.18c.2-.05.38-.04.58,0,.48.09,4.03,1.51,4.43,1.78.1.07.2.15.28.25,0,.16-2.77,1.32-3,1.32-.91.02-2.91-1.87-3.84-2.27-.04-.15,1.35-1.04,1.55-1.08Z"/>
      <path class="cls-2" d="M40.39,28.01c.05-.25,1.16-1.47,1.42-1.74.46-.47,1.23-1.61,1.85-.89l1.47,1.69c0,.24-.6.61-.81.77-.63.47-1.64,1.1-2.34,1.45-.22.11-1.19.55-1.34.56-.09,0-.24-.08-.24-.14,0-.46-.08-1.3,0-1.68v-.02Z"/>
      <path class="cls-2" d="M48.26,19.03c.34-.07,1.87.5,2.21.7.13.08.26.17.3.33.05.23-1.39,2.75-1.71,2.84-1.06-.3-2.23-.45-3.18-1-.13-.44,1.92-2.77,2.39-2.86h0Z"/>
      <path class="cls-2" d="M48.6,9.64c.11.11-.6,1.7-.72,1.97-.13.29-.79,1.69-.97,1.77-.18.11-.33.03-.5-.03-.73-.28-1.65-1.22-2.44-1.51-.08-.13.05-.32.11-.44.11-.22,1.32-2.01,1.44-2.07.45-.25,2.42.47,3.07.31h.01Z"/>
      <path class="cls-2" d="M48.57,31.02c.33-.09,2.86,1.54,2.96,1.85.07.2,0,.34-.09.51-.08.13-1.73,1.79-1.86,1.82-.38-.13-2.82-1.47-2.87-1.63-.07-.23.48-.89.64-1.12.19-.27.98-1.37,1.21-1.43h.01Z"/>
      <path class="cls-2" d="M50.15,41.98c.2.23.05.42-.13.6-.21.22-2.25,1.66-2.42,1.65-.45-.36-2.14-1.5-2.16-2.02,0-.41,1.73-2.14,1.95-2.15,1.03.43,1.82,1.33,2.76,1.92Z"/>
      <path class="cls-2" d="M72.99,31.29c-.1.12-.89.35-1.08.35-.64,0-1.34-1.2-1.67-1.7-.17-.25-1.1-1.75-1-1.88l2.84-1.22c.23.14.73,2.27.81,2.67s.37,1.46.11,1.78h0Z"/>
      <path class="cls-2" d="M51.61,53.54c.21-.05,2.07,1.19,2.2,1.47.15.32.04,2.06-.07,2.45-.08.26-.31.29-.55.29-.4,0-1.97-.26-2.38-.37-.52-.14-1.06-.47-.75-1.08l1.56-2.76h-.01Z"/>
      <path class="cls-2" d="M61.11,53.33c.4.62-1.25,2.01-1.83,2.1l-3.98-1.6c-.64-.38.72-1.31,1.03-1.35.48-.07,4.65.66,4.78.86h0Z"/>
      <path class="cls-2" d="M60.81,24.48c.5-1.32.97-2.83,1.7-4.03.23-.38.56-1.07,1.06-1,.24.03,2.38.71,2.46.82.12.15.02.25-.05.38-.18.3-1.2,1.14-1.53,1.41s-3.44,2.61-3.63,2.42h-.01Z"/>
      <path class="cls-2" d="M47.26,61.81c-.08-.07-.96-1.74-1-1.9-.04-.14-.04-.19,0-.34.14-.37,2.2-1.82,2.57-1.72.17.04,1.16,1.13,1.21,1.33.09.39-.74,2.54-1.1,2.75-.27.15-1.47.06-1.7-.12h.01Z"/>
      <path class="cls-2" d="M49.55,50.69c.77-.07,3.03-1.25,3.61-1.14.17.03.33.18.45.29.28.25,1.33,1.36,1.52,1.64.14.19.27.35.2.61-.05.18-1.07,1.24-1.4,1.02-1.22-.8-2.83-1.32-4.03-2.08-.08-.05-.4-.26-.35-.33h0Z"/>
      <path class="cls-2" d="M46.15,34.29c.21-.03,1.53.8,1.81.99.22.15.86.48.85.73s-1.97,2.02-2.28,2.35c-.19.04-2.3-1.58-2.33-1.95-.03-.3,1.61-2.07,1.95-2.13h0Z"/>
      <path class="cls-2" d="M43.31,12.4c.18-.04.24.04.38.1.3.14,2.57,1.71,2.65,1.88.08.18.04.25,0,.42-.05.29-.64,2.08-.8,2.16-.25.13-1.01-.52-1.21-.69-.49-.42-2.04-2.11-2.06-2.69-.02-.39.69-1.12,1.03-1.19h0Z"/>
      <path class="cls-2" d="M60.05,30.3c.38-.03.64-.13.98.12.18.13,1.46,2.08,1.47,2.23,0,.15-.04.2-.1.31s-1.73,1.78-1.84,1.84c-.07.04-.13.11-.22.11-.43.04-.71-.65-.81-.98-.2-.63-.36-2.16-.4-2.87,0-.17-.04-.55.1-.64.27-.03.57-.1.83-.12h0Z"/>
      <path class="cls-2" d="M73.22,41.97c.33.21-.23,2.75-.4,3.2-.89.13-1.82,0-2.7-.15-.31-.24-.55-2.28-.42-2.75.22-.33,2.95-.19,3.51-.3h0Z"/>
      <path class="cls-2" d="M63.11,16.92c.06.18.02.34-.04.51-.1.27-1.72,2.74-1.89,2.74-.52-.53-2.37-2.16-2-2.94.13-.28,1.31-1.42,1.59-1.45.55-.06,1.72,1.04,2.34,1.15h0Z"/>
      <path class="cls-2" d="M59.98,52.15c-.23-.36.58-2.6.93-2.78.25-.13,2.25.24,2.43.52.16.25.66,2.58.42,2.75-.42.3-3.18-.22-3.78-.5h0Z"/>
      <path class="cls-2" d="M45.83,62.28c.33-.09.69.67.82.94,1.03,2.11.34,3.01-1.37,4.31-.2,0-1.24-3.21-1.21-3.52.04-.39,1.47-1.34,1.76-1.73Z"/>
      <path class="cls-2" d="M66.14,15.43c.13-.03.18.08.25.15.24.22,1.66,2.3,1.69,2.53.03.34-.89,1.45-1.23,1.5l-2.97-1.1c-.14-.46,1.91-2.62,2.27-3.09h0Z"/>
      <path class="cls-2" d="M57.76,59.32c-.29.29-2.82-.96-3.11-1.36-.35-.47.02-2.21.06-2.85l3.05,1.31v2.89h0Z"/>
      <path class="cls-2" d="M40.18,15.27c.05-.16,1.12-1.17,1.4-1.09.14.04,1.66,2.13,1.66,2.36s-.6.9-.8,1.11c-.62.66-1.39,1.15-2.11,1.68-.03.01-.16-.25-.16-.26v-3.79h0Z"/>
      <path class="cls-2" d="M46.88,51.55c.42-.13,1,.1,1.4.25.35.13,2.46,1.17,2.52,1.39l-1.63,2.97c-.88.15-1.97-3.75-2.45-4.38-.04-.11.07-.2.16-.23Z"/>
      <path class="cls-2" d="M59.52,38.08c.23-.04,1.09.03,1.17.26.07.19.05,2,.02,2.3-.12,1.04-1.5.71-2.23.55-.57-.13-2.39-.62-1.67-1.39.27-.29,2.38-1.65,2.71-1.71h0Z"/>
      <path class="cls-2" d="M50.86,60.16l2.56,2.71c.09.31-.66,2.3-.78,2.34-.23.07-.57-.35-.73-.52-.29-.3-1.83-2.16-1.9-2.42-.14-.46.49-1.73.85-2.11Z"/>
      <path class="cls-2" d="M47.02,3.01c.14.16-.93,2.79-1.13,3.12-.18.29-.26.45-.6.25-.23-.14-1.76-1.59-1.82-1.76-.11-.36.55-1.85.82-1.98.58-.28,2.07.32,2.73.37Z"/>
      <path class="cls-2" d="M47.73,56.82c.09.11.16.27.12.42-.07.28-2.09,1.71-2.39,1.53-.42-.57-2.26-3.92-1.91-4.4,0,0,4.18,2.45,4.18,2.45Z"/>
      <path class="cls-2" d="M68.8,42.49l.33,2.62c-.18.18-4.79-.75-4.94-.96-.18-.25.13-.52.35-.63.69-.32,2.56-.88,3.31-1,.31-.05.62-.08.94-.03h.01Z"/>
      <path class="cls-2" d="M63.02,28.48c-1.59.52-3.27.71-4.94.64-.19-.19.77-1.05.95-1.21.47-.44,1.36-1.28,1.84-1.63.66-.48.69-.33,1.11.26.18.25,1.15,1.8,1.05,1.94h-.01Z"/>
      <path class="cls-2" d="M62.57,53.55c.31-.06,2,.18,2.03.56.03.35-1.33,2.86-1.75,2.9-.31.03-2.26-.81-2.26-1.21,0-.15,1.71-2.19,1.98-2.25Z"/>
      <path class="cls-2" d="M45.92,27.89c.39.22,1.75,1.27,1.71,1.68-.02.22-1.63,2.27-1.82,2.25-.46-.45-2.18-2.18-1.79-2.82.13-.21,1.63-1.13,1.9-1.12h0Z"/>
      <path class="cls-2" d="M70.67,23.44c.06,0,.12-.03.18,0,.09.03.74,1.46.78,1.65.1.51-.24.67-.64.89-.5.27-2.11,1.06-2.59,1.2-.15.04-.28.09-.43,0-.27-.2-.06-1.71.17-2.06.14-.21,2.35-1.64,2.55-1.67h-.02Z"/>
      <path class="cls-2" d="M63.44,12.27l1.88,2.18c-.25.44-1.17,1.71-1.61,1.73-.27.01-2.22-1.06-2.26-1.23l2-2.67h-.01Z"/>
      <path class="cls-2" d="M51.65,58.48c.95-.1,3.77.56,4.33,1.31.23.3-.58,2.06-.9,2.28-.2.14-.32-.04-.48-.17-.32-.25-2.71-2.61-2.84-2.84-.12-.21-.12-.36-.1-.58h-.01Z"/>
      <path class="cls-2" d="M64.02,38.16c.55.17.05,2.45-.08,2.92-.36.2-2.5.26-2.5-.13v-2.68c.13.06.31-.11.37-.11h2.21Z"/>
      <path class="cls-2" d="M55.77,35.12l2.76-.72c1.28.92,1.25,1.07.17,2.03-.24.21-1.78,1.42-1.95,1.42-.14,0-.18-.07-.25-.17-.21-.3-.91-2.29-.73-2.55h0Z"/>
      <path class="cls-2" d="M51.73,20.39c.25-.06,1.64.74,1.61,1.08,0,.14-1.3,2.05-1.49,2.31-.12.16-.51.7-.66.7-.47-.15-1.27-.77-1.22-1.31.02-.15,1.11-2.07,1.28-2.3.1-.14.33-.44.48-.48Z"/>
      <path class="cls-2" d="M59.03,42.28l4.46-.32.35.26-.43.5c-.71.19-3.4,1.82-3.91,1.77-.57-.05-.5-1.78-.46-2.2h0Z"/>
      <path class="cls-2" d="M50.77,65.81c-.17.19-1.15,1.1-1.33.98-.37-1.12-1.27-2.46-1.54-3.58-.16-.68,1.32-.38,1.65-.16.15.1,1.52,1.8,1.55,1.92.1.33-.12.6-.33.83h0Z"/>
      <path class="cls-2" d="M39.87,2.17c.07-.11,1.68-.03,1.95,0,.22.02,1.2.12,1.21.26-.4.68-.9,1.46-1.47,2-.25.24-1.29,1.12-1.59.95-.04-.07-.1-.24-.1-.32,0,0,0-2.89,0-2.89Z"/>
      <path class="cls-2" d="M43.44,58.16c.22-.03.35.18.47.32.29.37,1.54,2.42,1.54,2.78,0,.49-1.36,1.57-1.58,1.42l-.42-2.26v-2.26h-.01Z"/>
      <path class="cls-2" d="M42.97,29.67c.42.35.99.94.53,1.44-.36.39-2.61,1.5-3.01,1.21-.67-1.65,1.36-2.12,2.48-2.66h0Z"/>
      <path class="cls-2" d="M65.97,29.22l-2.6,2.72c-.14.04-.32-.03-.42-.12-.18-.15-1.07-1.57-.93-1.76.08-.08.19-.1.29-.13.49-.19,2.61-.67,3.16-.74.18-.02.33.02.51.04h-.01Z"/>
      <path class="cls-2" d="M47.02,54.69l-3.58-2.16-.11-.36c.59-.05,1.79-.49,2.31-.26.64.27,1.32,2.09,1.37,2.79h0Z"/>
    </g>
  </g>
  <g>
    <g class="cls-1">
      <g class="cls-1">
        <path class="cls-2" d="M90.9,24c.5,0,.94-.03,1.32-.1.38-.07.8-.18,1.28-.34.36.78.59,1.57.69,2.37-.7.26-1.33.42-1.89.51-.56.08-1.16.12-1.81.12-1.53,0-2.8-.32-3.84-.97-1.03-.65-1.81-1.54-2.34-2.66s-.79-2.41-.79-3.86.27-2.74.82-3.88,1.33-2.04,2.36-2.69c1.03-.66,2.27-.98,3.73-.98.65,0,1.25.04,1.79.12s1.14.25,1.77.51c-.03.41-.11.8-.24,1.18-.14.38-.28.77-.45,1.16-.47-.16-.89-.28-1.26-.34-.36-.07-.8-.1-1.3-.1-1.3,0-2.29.42-2.99,1.27s-1.04,2.1-1.04,3.76c0,3.29,1.4,4.94,4.19,4.94Z"/>
      </g>
      <g class="cls-1">
        <path class="cls-2" d="M98.14,25.57c-.93-.65-1.62-1.55-2.07-2.67-.45-1.13-.67-2.41-.67-3.84s.22-2.74.67-3.88c.45-1.14,1.13-2.04,2.07-2.69.93-.66,2.13-.98,3.58-.98s2.65.33,3.58.98c.93.65,1.62,1.55,2.07,2.69s.67,2.43.67,3.88-.22,2.71-.67,3.84-1.13,2.02-2.07,2.67c-.93.66-2.13.98-3.58.98s-2.65-.33-3.58-.98ZM101.72,24.08c2.09,0,3.14-1.67,3.14-5.02,0-1.67-.25-2.93-.76-3.77-.51-.84-1.29-1.26-2.36-1.26-2.12,0-3.18,1.67-3.18,5.02s1.05,5.02,3.16,5.02Z"/>
        <path class="cls-2" d="M110.49,11.75c.43-.08.83-.12,1.19-.12.42,0,.84.04,1.26.12l5.63,9.27v-9.27c.49-.08.95-.12,1.4-.12s.84.04,1.21.12v14.56c-.42.08-.81.12-1.17.12s-.79-.04-1.24-.12l-5.67-9.25v9.25c-.42.08-.86.12-1.32.12-.43,0-.86-.04-1.3-.12v-14.56Z"/>
        <path class="cls-2" d="M124.02,11.75h8.26c.08.41.12.82.12,1.24,0,.45-.04.87-.12,1.28h-5.31v3.16h4.21c.08.42.12.84.12,1.26s-.04.84-.12,1.28h-4.21v3.85h5.45c.08.4.12.82.12,1.24,0,.45-.04.87-.12,1.28h-8.4v-14.56Z"/>
        <path class="cls-2" d="M136.92,18.7l-2.61-6.92c.27-.04.54-.07.8-.1.26-.03.52-.04.78-.04.24,0,.49.01.75.04.26.03.51.07.77.12l2.31,6.97-2.9,7.53c-.62.09-1.14.14-1.56.14-.24,0-.48,0-.72-.03-.24-.02-.51-.05-.82-.09l3.2-7.61ZM139.85,18.76l2.27-6.97c.27-.05.53-.09.78-.12s.5-.04.74-.04c.26,0,.52.01.78.04.26.03.53.06.8.1l-2.57,6.92,3.16,7.61c-.31.04-.58.07-.82.09-.24.02-.48.03-.72.03-.42,0-.94-.05-1.56-.14l-2.85-7.53Z"/>
      </g>
      <g class="cls-1">
        <path class="cls-2" d="M150.96,11.75c.28-.04.55-.07.81-.09.26-.02.54-.03.85-.03.27,0,.53.01.79.03.26.02.54.05.85.09l4.56,14.56c-.54.08-1.08.12-1.62.12s-1.01-.04-1.5-.12l-.81-2.92h-4.82l-.83,2.92c-.49.08-.95.12-1.4.12-.5,0-.99-.04-1.48-.12l4.6-14.56ZM156.45,9.38c-.23.3-.54.55-.93.77s-.82.32-1.3.32c-.38,0-.74-.07-1.09-.21-.35-.14-.7-.28-1.03-.42-.34-.13-.67-.2-.99-.2-.27,0-.5.05-.7.14-.2.09-.44.28-.74.55-.2-.24-.38-.48-.55-.72s-.28-.5-.34-.78c.23-.3.54-.56.94-.79s.85-.34,1.37-.34c.35,0,.69.07,1.01.2.32.13.65.27.98.42s.67.21,1.02.21c.24,0,.47-.04.68-.13.21-.09.46-.27.76-.56.45.46.75.97.91,1.54ZM152.52,14.83l-1.76,6.12h3.44l-1.68-6.12Z"/>
      </g>
      <g class="cls-1">
        <path class="cls-2" d="M162.3,25.57c-.93-.65-1.62-1.55-2.07-2.67-.45-1.13-.67-2.41-.67-3.84s.22-2.74.67-3.88c.45-1.14,1.13-2.04,2.07-2.69.93-.66,2.13-.98,3.58-.98s2.65.33,3.58.98c.93.65,1.62,1.55,2.07,2.69s.67,2.43.67,3.88-.22,2.71-.67,3.84-1.13,2.02-2.07,2.67c-.93.66-2.13.98-3.58.98s-2.65-.33-3.58-.98ZM165.88,24.08c2.09,0,3.14-1.67,3.14-5.02,0-1.67-.25-2.93-.76-3.77-.51-.84-1.29-1.26-2.36-1.26-2.12,0-3.18,1.67-3.18,5.02s1.05,5.02,3.16,5.02Z"/>
      </g>
    </g>
    <g class="cls-1">
      <g class="cls-1">
        <path class="cls-2" d="M87.26,33.39c.28-.04.55-.07.81-.09.26-.02.54-.03.85-.03.27,0,.53.01.79.03.26.02.54.05.85.09l4.56,14.56c-.54.08-1.08.12-1.62.12s-1.01-.04-1.5-.12l-.81-2.92h-4.82l-.83,2.92c-.49.08-.95.12-1.4.12-.5,0-.99-.04-1.48-.12l4.6-14.56ZM88.82,36.47l-1.76,6.12h3.44l-1.68-6.12Z"/>
        <path class="cls-2" d="M96.76,33.39c.43-.08.83-.12,1.19-.12.42,0,.84.04,1.26.12l5.63,9.27v-9.27c.49-.08.95-.12,1.4-.12s.84.04,1.21.12v14.56c-.42.08-.81.12-1.17.12s-.79-.04-1.24-.12l-5.67-9.25v9.25c-.42.08-.86.12-1.32.12-.43,0-.86-.04-1.3-.12v-14.56Z"/>
        <path class="cls-2" d="M117.31,45.64c.5,0,.94-.03,1.32-.1.38-.07.8-.18,1.28-.34.36.78.59,1.57.69,2.37-.7.26-1.33.42-1.89.51s-1.16.12-1.81.12c-1.53,0-2.8-.32-3.84-.97-1.03-.65-1.81-1.54-2.34-2.66s-.79-2.41-.79-3.86.27-2.74.82-3.88,1.33-2.04,2.36-2.69c1.03-.66,2.27-.98,3.73-.98.65,0,1.25.04,1.79.12s1.14.25,1.77.51c-.03.41-.11.8-.24,1.18-.14.38-.28.77-.45,1.16-.47-.16-.89-.28-1.26-.34s-.8-.1-1.3-.1c-1.3,0-2.29.42-2.99,1.27s-1.04,2.1-1.04,3.76c0,3.29,1.4,4.94,4.19,4.94Z"/>
        <path class="cls-2" d="M122.8,33.39h8.26c.08.41.12.82.12,1.24,0,.45-.04.87-.12,1.28h-5.31v3.16h4.21c.08.42.12.84.12,1.26s-.04.84-.12,1.28h-4.21v3.85h5.45c.08.4.12.82.12,1.24,0,.45-.04.87-.12,1.28h-8.4v-14.56Z"/>
        <path class="cls-2" d="M134.58,34.23c.9-.72,2.11-1.08,3.6-1.08.69,0,1.33.06,1.93.18.6.12,1.23.3,1.89.53-.08.77-.3,1.54-.65,2.31-.42-.18-.85-.32-1.29-.45-.44-.12-1.04-.18-1.81-.18-.3,0-.6.04-.91.11s-.57.22-.77.45c-.2.22-.3.56-.3,1.02,0,.36.08.65.24.86.16.21.38.38.64.51.26.13.53.25.8.35l1.21.47c.69.27,1.29.56,1.79.88.51.32.9.74,1.17,1.25.28.52.42,1.23.42,2.12s-.22,1.71-.65,2.41c-.43.7-1.07,1.25-1.9,1.64-.84.39-1.86.59-3.06.59-.58,0-1.09-.02-1.54-.07-.45-.05-.87-.13-1.28-.24-.41-.11-.84-.26-1.3-.43.04-.39.11-.8.22-1.23.11-.42.24-.85.38-1.29.57.23,1.1.4,1.6.52.5.12,1.03.17,1.6.17.85,0,1.52-.16,2-.48.49-.32.73-.8.73-1.45,0-.43-.09-.77-.28-1.02-.19-.25-.43-.45-.73-.6s-.61-.28-.93-.41l-1.24-.47c-.61-.23-1.13-.5-1.58-.8s-.79-.7-1.03-1.17c-.24-.48-.36-1.1-.36-1.85,0-1.38.45-2.43,1.36-3.15Z"/>
        <path class="cls-2" d="M147.52,35.9h-3.62c-.08-.41-.12-.83-.12-1.28,0-.42.04-.83.12-1.24h10.23c.08.41.12.82.12,1.24,0,.45-.04.87-.12,1.28h-3.62v12.05c-.24.03-.49.05-.73.08-.24.03-.48.04-.71.04-.47,0-.99-.04-1.54-.12v-12.05Z"/>
        <path class="cls-2" d="M156.31,33.39c.59-.07,1.15-.12,1.67-.17.52-.05,1.1-.07,1.73-.07.74,0,1.47.07,2.2.2.72.14,1.38.37,1.96.71.59.34,1.06.8,1.41,1.4.35.59.53,1.34.53,2.25,0,.7-.12,1.31-.34,1.81-.23.51-.5.93-.82,1.26-.32.33-.62.59-.92.78l-.34.22,3.54,6.16c-.27.03-.55.06-.85.09-.3.03-.6.05-.91.05-.26,0-.51-.01-.76-.04-.25-.03-.5-.06-.76-.1l-3.81-6.76.49-.24c.19-.09.42-.22.68-.37.26-.15.52-.33.78-.56s.47-.49.65-.81c.17-.32.26-.69.26-1.12,0-.85-.24-1.47-.73-1.87-.49-.4-1.11-.6-1.88-.6-.3,0-.57.02-.81.06v12.29c-.24.03-.49.05-.73.08-.24.03-.48.04-.71.04-.46,0-.97-.04-1.52-.12v-14.56Z"/>
        <path class="cls-2" d="M171.92,33.39c.28-.04.55-.07.81-.09.26-.02.54-.03.85-.03.27,0,.53.01.79.03.26.02.54.05.85.09l4.56,14.56c-.54.08-1.08.12-1.62.12s-1.01-.04-1.5-.12l-.81-2.92h-4.82l-.83,2.92c-.49.08-.95.12-1.4.12-.5,0-.99-.04-1.48-.12l4.6-14.56ZM173.48,36.47l-1.76,6.12h3.44l-1.68-6.12Z"/>
        <path class="cls-2" d="M181.42,33.39c.51-.08.99-.12,1.44-.12.49,0,.98.04,1.48.12v12.01h5.04c.04.23.07.45.08.66.01.21.02.41.02.6,0,.22,0,.43-.02.64-.01.21-.04.43-.08.66h-7.96v-14.56Z"/>
      </g>
    </g>
    <g class="cls-1">
      <g class="cls-1">
        <path class="cls-2" d="M82.6,54.83c.43-.11.95-.18,1.57-.18.87,0,1.59.21,2.08.7.46.45.7,1.13.7,1.94,0,.87-.21,1.45-.57,1.93-.52.7-1.38,1.05-2.22,1.05-.18,0-.32,0-.48-.01v3.86h-1.08v-9.28ZM83.67,59.34c.13.03.24.04.42.04,1.06,0,1.78-.7,1.78-2.03,0-.96-.41-1.83-1.59-1.83-.25,0-.46.03-.6.07v3.75Z"/>
      </g>
      <g class="cls-1">
        <path class="cls-2" d="M93.12,59.33c0,3.54-1.22,4.89-2.73,4.89s-2.61-1.66-2.61-4.84,1.12-4.81,2.77-4.81,2.57,1.75,2.57,4.75ZM88.9,59.4c0,1.94.38,3.87,1.57,3.87s1.54-2.05,1.54-3.9-.32-3.84-1.55-3.84-1.55,1.96-1.55,3.87Z"/>
      </g>
      <g class="cls-1">
        <path class="cls-2" d="M95.82,64.11l-2.15-9.42h1.15l.92,4.42c.22,1.06.5,2.42.67,3.62h.04c.14-1.22.41-2.53.63-3.65l.89-4.39h1.15l-2.19,9.42h-1.1Z"/>
      </g>
      <g class="cls-1">
        <path class="cls-2" d="M105.01,59.33c0,3.54-1.22,4.89-2.73,4.89s-2.61-1.66-2.61-4.84,1.12-4.81,2.77-4.81,2.57,1.75,2.57,4.75ZM100.79,59.4c0,1.94.38,3.87,1.57,3.87s1.54-2.05,1.54-3.9-.32-3.84-1.55-3.84-1.55,1.96-1.55,3.87Z"/>
        <path class="cls-2" d="M106.08,62.87c.32.21.88.38,1.36.38.98,0,1.57-.64,1.57-1.59,0-.87-.5-1.4-1.24-1.96-.74-.52-1.78-1.4-1.78-2.61,0-1.43.99-2.47,2.49-2.47.59,0,1.1.18,1.33.35l-.27.92c-.24-.17-.63-.32-1.12-.32-.92,0-1.36.7-1.36,1.34,0,.94.49,1.3,1.38,1.94,1.13.8,1.64,1.66,1.64,2.71,0,1.62-1.15,2.64-2.64,2.64-.64,0-1.33-.21-1.59-.41l.24-.92Z"/>
      </g>
      <g class="cls-1">
        <path class="cls-2" d="M113.53,54.83c.42-.12.91-.18,1.45-.18.99,0,1.69.25,2.21.71.73.63,1.27,1.85,1.27,3.82,0,2.15-.53,3.33-1.13,3.97-.62.7-1.51,1.02-2.6,1.02-.43,0-.88-.03-1.2-.1v-9.24ZM114.61,63.23c.15.03.31.03.41.03,1.19,0,2.33-.85,2.33-4.05,0-2.38-.73-3.68-2.24-3.68-.17,0-.36.01-.5.06v7.65Z"/>
      </g>
      <g class="cls-1">
        <path class="cls-2" d="M120.6,61.29l-.63,2.82h-1.03l2.15-9.42h1.19l2.1,9.42h-1.06l-.63-2.82h-2.08ZM122.54,60.42l-.49-2.39c-.14-.67-.27-1.45-.38-2.15h-.06c-.11.71-.25,1.52-.38,2.15l-.49,2.39h1.79Z"/>
        <path class="cls-2" d="M127.74,54.69h3.59v.94h-2.52v3.3h2.35v.91h-2.35v4.28h-1.08v-9.42Z"/>
      </g>
      <g class="cls-1">
        <path class="cls-2" d="M132.56,54.69h1.08v8.51h2.66v.91h-3.73v-9.42Z"/>
      </g>
      <g class="cls-1">
        <path class="cls-2" d="M141.72,59.33c0,3.54-1.22,4.89-2.73,4.89s-2.61-1.66-2.61-4.84,1.12-4.81,2.77-4.81,2.57,1.75,2.57,4.75ZM137.5,59.4c0,1.94.38,3.87,1.57,3.87s1.54-2.05,1.54-3.9-.32-3.84-1.55-3.84-1.55,1.96-1.55,3.87Z"/>
        <path class="cls-2" d="M143,54.83c.46-.12,1.02-.18,1.55-.18.94,0,1.63.2,2.12.67.46.48.66,1.1.66,1.85,0,1.2-.56,1.98-1.51,2.42v.03c.7.21,1.06.88,1.27,2.11.21,1.3.41,2.1.53,2.39h-1.09c-.14-.28-.32-1.17-.5-2.33-.21-1.29-.62-1.78-1.54-1.78h-.42v4.11h-1.08v-9.28ZM144.08,59.18h.45c1.03,0,1.72-.75,1.72-1.89s-.45-1.76-1.61-1.78c-.21,0-.42.01-.56.06v3.61Z"/>
        <path class="cls-2" d="M152.15,59.64h-2.36v3.54h2.68v.94h-3.76v-9.42h3.59v.94h-2.52v3.1h2.36v.91Z"/>
        <path class="cls-2" d="M153.45,62.87c.32.21.88.38,1.36.38.98,0,1.57-.64,1.57-1.59,0-.87-.5-1.4-1.24-1.96-.74-.52-1.78-1.4-1.78-2.61,0-1.43.99-2.47,2.49-2.47.59,0,1.1.18,1.33.35l-.27.92c-.24-.17-.63-.32-1.12-.32-.92,0-1.36.7-1.36,1.34,0,.94.49,1.3,1.38,1.94,1.13.8,1.64,1.66,1.64,2.71,0,1.62-1.15,2.64-2.64,2.64-.64,0-1.33-.21-1.59-.41l.24-.92Z"/>
      </g>
      <g class="cls-1">
        <path class="cls-2" d="M159.81,55.65h-1.72v-.96h4.51v.96h-1.72v8.46h-1.08v-8.46Z"/>
      </g>
      <g class="cls-1">
        <path class="cls-2" d="M164.15,61.29l-.63,2.82h-1.03l2.15-9.42h1.19l2.1,9.42h-1.06l-.63-2.82h-2.08ZM166.09,60.42l-.49-2.39c-.14-.67-.27-1.45-.38-2.15h-.06c-.11.71-.25,1.52-.38,2.15l-.49,2.39h1.79Z"/>
      </g>
    </g>
  </g>
</svg>