<?xml version="1.0" encoding="UTF-8"?>
<svg id="Camada_1" data-name="Camada 1" xmlns="http://www.w3.org/2000/svg" viewBox="0 0 128 128">
  <defs>
    <style>
      .cls-1 {
        fill: #fff;
      }
    </style>
  </defs>
  <path class="cls-1" d="M121.06,26.48c-.93-.46-2.09-.2-2.5-1.06,0-.76,1.73-.65,2.3-.89,1.71-.74.63-2.78-.54-3.47-.44-.26-1.88-.53-2.03-.77-.24-.36.05-1.45-.38-2.23-.68-1.22-2.14-1.01-2.46-1.37-.59-.66.4-2.69-1.62-3.7-1.29-.64-2.17-.25-3.46,0-.03-2.87-2.38-3.38-4.58-2.08-.82-1.3-1.31-2.59-3.15-2.39-.57.06-1.59.74-1.85.7-.46-.08-1.07-.97-2.11-1.01-1.41-.06-2.3,1.32-2.96,1.35-.37.02-.88-.41-1.32-.48-1.94-.31-2.55.38-3.92,1.49-2.21-.95-5.92-1.9-5.87,1.67-2.62-.97-5.39-1.05-4.88,2.59-1.3.27-4.07.83-3.68,2.69.1.45,1.66,1.84.43,2.19-.46.13-2.15,0-2.8,0-.31,0-1.55.37-1.9.53-2.24,1-1.38,2.71.44,3.55,2.4,1.11,5.14.52,7.61.98,1.07.2,2.2.73,3.4.9,2.88.41,3.78-.27,6.23,1.79,7.69,6.47,6,13.65,5.59,22.58-.16,3.49.08,6.97-.37,10.46-.09.72-.29,1.43-.37,2.15-1.59-.74-2.56-1.16-3.55.66l-3.73-.95c.48-1.29,2.24-.78,2.98-1.12.71-.32,1.39-1.71,2.8-1.21.35-3.32.26-6.66.37-9.99.04-1.15.76-3.84-.12-4.55-1.51-1.23-3.06-.65-3.33,1.28-1.06-.89-1.88-2.63-3.52-1.88-.77,1.07-.04,2.35.44,3.37-.24.19-2.23-1.08-2.85.23-.6,1.28.67,1.24,1.1,2.21,2.06-.5,3.89-.46,4.2,2.01,1.88-.27,4.14,2.05,1.72,3-.47.09-.16-.69-.35-1.1-.37-.78-1.99-.53-2.71-.56.31-2.75-1.25-2.33-3.24-1.88-.7-1.59-1.71-1.67-3.3-1.75-.79-.54.82-2.07.48-2.72-2.62.08-3.84,1.77-5.41,3.55-2.01-2.9-3.84,1.62-4.39,3.36-2.05-2.41-3.51-.39-4.76,1.5-.55,0-1.14-1.95-2.75-1.65-1.57.3-1.81,2.21-2.38,2.49-.48.23-1.61.28-2.37.62-.62.27-1.65,1.21-2.07,1.31-.48.12-1.7-.39-2.56-.34-1.16.07-2.18.65-3.27.93.53-2.2-.55-4.41-3.08-4.3-1.12.05-1.99.83-3.08.94,2.7-5.75-2.55-2.74-2.8-2.99.32-1.43.86-3.82-1.41-3.56-1.55.18-2.18,2.37-2.89,2.72-.57.29-1.29-.13-1.95-.1-.59.02-1.17.36-1.76.4l.34,6.4c.63.11,1.68.75,2.2.82.52.07,1.18-.36,1.82-.34,1.53.04,3.35,1.14,3.46,2.8-1.74.93-2.33-.91-3.45-.91-.68,0-1.87.94-2.21.88-.35-.07-.89-1.11-1.57-1.25-.61-.12-1.27.29-1.92.16-.68-6.17-.58-12.37-.57-18.59.15-1.6,2.45-3.45,3.76-4.27,2.24-1.4,8.73-4.16,11.24-3.8.85.12,1.93.69,2.85.71.8.01,3.05-.36,2.7-1.5-1.77.21-2.84.71-4.48-.38-.05-.07.25-.37.28-.37h4.29s.46-.2.48-.31c.31-1.4-2.91-1.23-3.75-1,.68-1.63,2.6-1.91,4.19-1.67,1.56.24,3.03,1.9,5.01.88,2.32-1.19-1.28-3.5-2.29-4.16,1.02-.71,1.36-1.92.47-2.9-.49-.54-1.42-.66-1.73-.97-.21-.21-.3-.82-.61-1.17-1.01-1.15-2.59-.86-3.9-1.24.01-1.47.13-2.31-1.15-3.23-.34-.25-.77-.26-1.12-.56-.53-.44-.68-1.26-1.42-1.76-1.43-.96-2.47-.44-3.98-.22.72-3.5-2.78-3.02-5.1-2.64-.88-.88-1.28-1.82-2.67-2.01-.59-.08-1.24.09-1.81-.06-.8-.21-1.84-1.54-3.26-1.78-2.02-.34-2.3.37-3.73.66-1.41.29-2.26-.28-3.69.79-.51.39-1.11,1.51-1.53,1.64-.86.26-2.21-.45-3.41-.05-1.4.47-1.15,1.98-1.61,2.31-.51.37-1.53.11-2.19.24-1.37.28-2.12,1.62-2.21,2.93-1.25-.04-2.8.09-3.72,1.04-1.02,1.04-.14,1.44-.46,2.15-.35.78-4.11,2.39-2.8,3.74,1.26,1.29,3.9-.55,5.03-.56,1.23-.02,3.2,1.06,4.58.94l-.1,1.31c1.32.41,2.05,1.1,2.52,2.42l-1.69-.08c-.11-1.49-1.06-2.77-2.68-2.71-1.33.06-1.13,1.16-1.6,1.39-.35.17-.89.05-1.32.17-3.6,1.04-1.99,2.93.86,3.09,1.37.08,2.64-.59,3.92-.57,2.23.03,6.53.84,8.37,2.1,3.13,2.15,3.18,8.34,3.31,11.82.18,4.91-.09,9.85-.21,14.74,2.03.63,2.73,1.97,2.71,4.05,1.47.37,3.17,1.41,2.63,3.17l-1.78.74c.33-2.42-1.41-2.1-3.18-1.96l.39-2.81c-.42-2.9-4.09.18-4.49-.09-.24-.65-.3-2.76-.94-3.08-1.38-.69-2.64,1.57-3.25,1.39-.39-.12-1.05-2.47-2.3-2.75-2.71-.61-1,3.51-1.17,3.7-1.29-.53-2.15-1.28-3.45-.19-2.04,1.71,1.38,4.54,1.03,4.85-1.24-.03-3.24-1.49-3.93.27-.68,1.72,1.09,2.71,1.51,4.21-.89.34-2.57-.06-3.07.94-.26.52-.25,1.54.14,1.99.41.48,1.45.6,2.61.59,1.75-1.48,4.44-1.56,5.99-.28l.91-.12c.24,0,.46.02.69.06.13-.09.27-.16.42-.24.65-.47,1.48-.76,2.5-.76,1.79,0,3.01.88,3.67,2.08,0,.01.02.03.03.04.5-.08,1.54.05,1.89-.01,1.02-.19.89-1.66,1.33-2.41,2.51-4.25,15.84-6.31,20.54-6.9,12.95-1.62,35.05-1.78,47.05,3.49,1.85.81,3.5,1.88,5.01,3.21.48-.88.25-1.76.87-2.68,1.09-1.6,3.17-1.94,4.89-1.23,1.26-2.32,3.27-3.32,5.73-1.97l1.49-1.13-2.14-1.59c-.24-1.15.1-3.05-1.17-3.69-1.45-.72-3.91,1.63-4.34,1.26-.22-3.93-2.27-.98-3.92.19-.89-7.55-.55-15.19-.48-22.79.34-1.14.69-2.42,1.69-3.16.64-.48,4.3-1.88,5.01-1.86,2.07.08,3.81,1.26,6.16.14.67-.32,1.79-1.47,2.32-1.6.94-.24,2.43.06,3.48-.07,2.87-.34,4.65-2.66,1.48-4.24ZM85.71,23.83c-1.17.12-1.98.24-3.13-.13-1.96-.62-.3-.9-.08-1.87.15-.65-.09-1.12-.15-1.73l2.02.41c.1.09.36,1.5.5,1.83.12.27.99,1.37.84,1.49ZM89.26,23.65c-1.74-.24-3.18-1.61-3.47-3.37.56-.19,2.57-1.27,3.01-.95,1.02.75.43,3.23.46,4.31ZM93.93,27.75c-.23.26-1.94-1.17-2.14-1.5-.22-.35-.66-1.97-.66-2.33v-3.83l3.52.77c-.13,2.29-.93,4.55-.72,6.88ZM14.68,23.09c-.06,0-1.02-.35-1.03-.56,1.61.22,2.18-1.77,3.64-.75.33.23,1.15.91,1.21,1.31h-3.83ZM17.76,26.08c2.24-.26,3.32.14,4.48,2.05-1.72.15-3.49-.62-4.48-2.05ZM20.94,22.9l.21-1.47,1.59-.37.45.24.17,2.72c-.62-.76-1.39-1.2-2.42-1.12ZM49.87,30.56c-.91,1.29-2.54,1.39-3.92,1.86.49-2.1,2.31-1.52,3.92-1.86ZM43.48,27.05c.57-.09,1.1.02,1.63-.05.75-.09,1.86-.62,2.47-.13.1.08.84,1.18.8,1.24-2.36,1.33-5.05,1.13-7.46.1,0-.26,2.17-1.11,2.56-1.17ZM37.18,24.95c1.06.47,2.43-.18,3.36.47.15.72-3.26,1.97-3.92,2.14l.56-2.61ZM38.76,30.18c2.08-.19,4.19.25,6.26.19-1.13,4.66-7.74,4.27-11.39,5.97.62-2.25,2.53-5.93,5.12-6.17ZM28.79,18.43h1.11c.08.05-.98,1.85-1.31,1.48l.19-1.48ZM27.28,29.99c-.76-.21-1.41-1.18-1.83-1.81-1.26-1.85-1.35-2.88-.78-5.1.32.36,1.2.88,1.43,1.18.53.65,1.56,5.29,1.18,5.73ZM26.89,20.92c-.46.61-1.94.35-2.04,1.42l-1.12-3.73c1.27.2,2.52.38,3.73-.19.19.27-.34,2.19-.58,2.5ZM28.01,24.14l1.98-.8c1.81,1.51,1.85,4.7-.65,5.35l-1.32-4.55ZM30.64,33.73c-1.41-2.95,2.15-4.62,2.22-7.2.02-.66-.37-1.55-.15-2.3l2.59-.95c.6,1.67-.24,3.28-.9,4.79-.9,2.05-2.21,4.08-3.76,5.66ZM103.21,18.63l1.73.16-.08.57-.23.15-2.12.03.69-.91ZM99.7,29.7c-.09.68-.92,3.06-1.74,2.92-.64-.1-1.72-5.08-1.79-5.9-.05-.64-.22-2.95.8-2.86l2.34.93c-.13,1.66.6,3.25.38,4.91ZM99.86,21.36l-3.31,1.17c-.13-.15.19-1.89.33-2.19.07-.14,1.93-2.23,2.11-2.37.7-.57,1.81-.22,2.6-.1l-1.73,3.5ZM101.77,28.69c-.24-1.38-.77-2.65-.54-4.09.73.04,1.85-1.05,2.45-.92.24.05,1.25.86,1.35,1.09.65,1.42-1.79,3.91-3.26,3.92ZM102.33,31.67c-.4-.36,2.54-2.3,2.78-2.54,1.31-1.33,1.3-2.7,2.08-4.27,1.51-.55,3.32-1.56,4.66-.1-2.46.03-3.77,1.75-1.31,3.27.32,1.32-7.05,3.48-8.21,3.63ZM114.04,30.6c-1.14.72-3.15.84-4.43.51-.11-.51.15-.32.37-.46.3-.2,1.52-1.1,1.67-1.14.41-.09,1.96.94,2.63.66.09.43-.05.3-.24.42Z"/>
  <path class="cls-1" d="M60.85,65.89c8.3-.25,29.23.7,35.6,6.11.79.67,1.6,1.55,1.38,2.68-.12.35-1.87.49-2.35.64-1.46.48-2.55,1.67-3.08,3.08-.43,1.15-.15,2.09-1.33,2.78-2.07,1.21-8.51,2.21-11.08,2.55-11.41,1.5-27.68,1.33-38.9-1.19-.91-.2-3.57-.79-4.24-1.17-.75-.43-1.09-1.87-1.93-2.55-1.46-1.17-3.19-.51-4.38-1.97-1.48-1.82-.87-3.48.76-4.85,5.36-4.52,22.45-5.9,29.55-6.11ZM69.29,69.39c-.07.57.66.62,1.08.7,3.54.64,12.47.64,14.57,3.91.23.36.4,1.24.71,1.35,1.36.11,1.83-1.01,1.22-2.16-.89-1.69-5.8-2.82-7.65-3.17-3.26-.62-6.63-.86-9.93-.61ZM58.83,71.06c-.13-.38-.74-.46-1.08-.51-2.52-.36-9.13.72-11.05,2.48-2.45,2.25,1.83,3.78,3.54,4.28,3.74,1.1,7.9,1.26,11.76.84.13-.47-.32-.47-.67-.54-3.25-.6-9.06-.24-11.78-2.04-2.02-1.34-.08-2.49,1.39-2.98,2.51-.83,5.37-.72,7.89-1.54ZM60.14,72.37c-.49.29-1.03.12-1.54.23-2.01.43-3.3,1.72-.75,2.71,2.81,1.1,7.99,1.02,10.92.36,5.57-1.26,2.77-3.6-1.16-3.49.33.47,1.18.5,1.58.94.25.28.32.69-.05.92-1.19.74-6.78.86-8.33.72-.55-.05-2.22-.24-2.42-.77-.23-.86.79-.89,1.37-1.18.27-.13.47.04.37-.46ZM75.45,76.29c1.62-.08,3.89-1.65,1.31-2.43-.02.42.1.92-.09,1.31-.23.47-1.26.44-1.21,1.12ZM41.1,75.36c-.67-.01-.81.9-.76,1.4.2,2.27,6.13,3.53,8.04,3.64.1-.53-.13-.31-.41-.42-2.47-.98-6.56-1.31-6.87-4.62ZM67.42,80.96c2.21.52,4.55.46,6.79.17.72-.09,4.96-.89,4.97-1.57-.21-.26-.56-.36-.88-.42-1.23-.22-7.72.63-9.24.94-.25.05-2,.38-1.64.88ZM59.49,80.96c-2.01-.23-4.39.17-6.44,0,.06.34.38.32.63.4,1.33.43,5.75.88,6.9.31.12-.06.4-.23.32-.33-.44,0-1.03-.33-1.4-.38Z"/>
  <path class="cls-1" d="M60.32,97.57c.05-.32-.45-.2-.64-.17-2.82.48-9.97,3.7-11.16,6.39-1.13,2.55,1.44,4.44,3.48,5.36,3.85,1.74,8.06,2.53,11.58,5.23,1.67,1.28,4.91,5.08.94,5.42-2.68.23-6.43.04-9.07-.47-.65-.12-3.45-.79-3.72-1.14-.62-.82,1.27-1.62.26-2.87s-7.47-2.55-9.37-3.13c-2.95-.9-9.65-3.06-11.33-5.66-1.8-2.79,2.81-4.74,4.81-5.62,6.41-2.83,13.46-4.06,20.01-6.5,1.39-.52,5.58-2.06,6.23-3.29,1.08-2.06-1.3-2.76-2.77-3.25-.09-.41.11-.74.5-.88,2.36-.03,4.7.2,7.06.16,3.4-.06,6.85-.65,10.25-.76,3.09-.1,7.19,3.19,4.77,6.45-2.81,3.77-9.93,6.07-14.07,8.14-3.82,1.91-7.47,4.15-1.55,6.73,4.57,1.99,10.16,2.79,14.51,5.1,2.17,1.15,4.42,3.04,1.24,4.8-2.18,1.21-7.78,2.05-10.3,2.03-2.95-.02-2.01-1.47-3.07-3.47-2.22-4.18-10.49-5.74-14.54-7.86-8.88-4.63,1.72-8.5,5.95-10.71ZM73.33,89.24c-.5-.48-1.52-.78-2.18-.53-.47.17.48.59.65.85,1.03,1.58-1.08,2.95-2.27,3.69-1.29.8-2.91,1.26-4.17,2-.24.14-.47-.03-.37.46,2.23-.45,7.32-1.87,8.59-3.83.55-.85.49-1.93-.25-2.64ZM43.84,104.33c-.57.16-1.19,1.38-1.24,1.95-.18,1.95,2.64,4.45,4.43,4.7.66.09,1.41-.16,1.08-.89-.66-1.45-4.96-2.36-3.47-5.49-.16-.34-.46-.37-.79-.27Z"/>
  <path class="cls-1" d="M24.86,52.4l-.56,5.41c-.6-.53-1.01-1.71-1.85-1.97-1-.31-2.32-.1-3.09.63l-.82-.84c-.31-1.14,2.89-1.02,3.51-1.01.2-1.53,1.12-2.89,2.82-2.22Z"/>
</svg>