<?xml version="1.0" encoding="UTF-8"?>
<svg id="Camada_1" data-name="Camada 1" xmlns="http://www.w3.org/2000/svg" viewBox="0 0 128 128">
  <defs>
    <style>
      .cls-1 {
        fill: #fff;
      }
    </style>
  </defs>
  <path class="cls-1" d="M29.11,76.27c.75.1,2.86.76,2.12,1.75-.66.89-5.15,1.11-6.31,1.71-.18.09-.16.48-.11.62.25.72,3.63.94,4.41,1.13.59.14,1.62.25,1.64,1.01-.07.1-2.77.58-1.83,1.2.85.32,5.56.42,5.46,1.65-.66.97-2.7.76-3.52,1.35-.16.12-.16.32-.11.47.11.33,4.17.64,3.59,1.74-.38.72-6.21,1.1-3.27,2.34.37.16,5.78,1.28,3.06,2.22-1.39.48-6.16,0-7.84-.19-.92-.1-3.57-.44-4.21-.92-1.35-1.01.66-1.33,1.27-1.61.16-.07.56-.07.26-.38-.13-.14-2.57-.47-3.18-.76-.46-.21-1.03-.49-.76-1.07.52-1.14,4.36-1.18,5.5-1.65.2-.04.12-.25.01-.37-.54-.62-6.53-1.41-7.82-1.7s-5.26-1.06-5.56-2.49c.02-.8.77-1.23,1.4-1.55,1.84-.96,4.03-1.09,5.81-2.16.75-1.29-2.68-1.58-3.35-1.62-3.37-.21-6.66.95-9.71.92-.37,0-1.3-.21-1.48-.55-.62-1.15,2.58-1.56,2.67-1.96v-16.72c-.38-.26-3.03,1.34-3.3.09l12.65-11.17.14-.34c-.37-.73-.8-1.47-.7-2.32.07-.09,1.76.89,2.12.91.58.04,1.56-.79,2.27-.73.26.92-.89,1.91-.38,2.67l12.83,11.16c-.56.95-3.03-.54-3.29-.28l.37,11.72c.67-.64,1.24-.86,2.2-.73.23-.22-1.37-2.29.46-2.95.57-.21,1.65.36,1.89-.29.53-3.14.63-6.32.77-9.49.33-7.52,1.28-13.02-5.55-17.72-3.09-2.13-2.99-1.45-6.45-1.79-2.22-.22-2.6-1.21-4.14-2.09-.73-.42-2.39-.05-3.38-.1-2.05-.1-5.66-.73-3.46-3.47,1.21-1.51,3.03-1.79,4.84-1.85.34-.45-2.17-1.37-.89-3,.89-1.13,3.09-.81,4.37-.85-.44-3.36,2.48-2.98,4.82-2.59.82-1.05.83-1.98,2.22-2.55,1.89-.77,2.7.09,4.13-.07,1.78-.2,2.1-2.08,4.95-1.49.7.14,1.75.99,2.28,1,.7.01,2.06-.86,2.93-.86,1.27,0,1.86,1.16,2.41,1.21.4.04,1.09-.6,1.63-.68,2-.32,3.01.6,3.21,2.53,1.42.05,2.18-.62,3.59-.02s1.56,1.77,1.61,3.16c.38.57,2.45-.04,3.19,1.39.44.86-.37,1.67-.08,2.08,1.52.55,4.33,1.12,4.14,3.2-.16,1.7-2.49,1.25-2.94,2.65,1.5.34,4.71.87,5.2,2.61.63,2.26-4.05,1.57-5.25,1.61-1.15,2.35-3.53,3.36-6.09,3.31-1.74-.03-4.01-1.02-5.58-.46-1.98.71-5.5,2.34-6.11,4.52-.88,3.19-.11,8.61.24,11.97.09.91-.4,2.7.91,2.65.17-3.06,4.34-6.6,4.76-1.65,2.51-.64,3.82.55,3.11,3.11.91-.34,1.63-1,2.65-1.1,1.2-.12,2.35.22,2.79,1.42.58,1.59-.14,2.8-.68,4.25,1.04-.47,2-1.04,3.21-.92.53.05,1.65.53,1.52,1.17-.04.22-1.07,1.08-1.33,1.42-1.21,1.59-1.31,3.17-1.21,5.11l-7.39-.21-.3-.43c.88-.9,1.93-1.42,1.82-2.91-.08-1.06-.96-1.26-1.31-2-.38-.78-.38-1.65-.98-2.5-1.41-1.99-5.71-3.21-7.96-2.3-3.14,1.26-4.24,4.3-5.49,7.16-.37.83,1.62,2.46.92,2.92l-13.85-.27c-.22-.18-.39-.36-.44-.66-.26-1.38-.31-3.64-.38-5.12-.05-1.07.05-2.15,0-3.21l-6.04.19.18,9.7c3.65.02,7.44-.06,10.99.74l-.55,1.1c.95.09,2.1-.12,3.02,0ZM36.53,33.05l3.48-1.55c.28-.49,1.17-3.02.74-3.31-.63-.19-2.98.23-3.32.73-.27.38-.11.94-.37,1.46-.23.46-.98.71-1.06.97l.53,1.71ZM42.41,28.48c-.15.64-.74,1.45-.11,1.99,1.47-.8,2.82-1.93.11-1.99ZM29.02,30.85l-2.71.22c-.84,2.37.9,4.79,3.07,5.64-.43-1.94-.4-3.88-.36-5.86ZM34.51,39.82c.23-.25.22-4.2.19-4.86-.03-.54-.18-2.67-.33-2.97-.31-.66-.98-.33-1.58-.43-.72-.12-1.45-.27-2.13-.53-.91,2.93.22,5.91,2.47,7.87.16.14,1.25,1.05,1.37.92ZM24.8,31.21l-2.56.55c-.13.84,1.48,1.19,1.27,1.9l-2.65,1.4c1.49,1.1,3.1,1.04,4.85.91-.52-1.61-1.16-2.99-.92-4.76ZM38.54,44.22c1.08-2.44,1.59-5.48,1.29-8.15s-3.22-2.71-3.13-.18c.06,1.73.4,5.06.8,6.72.06.26.54,1.99,1.05,1.61ZM52.46,34.51c-1.57-.48-3.26-.51-4.84.02l-1.61,3.34-2.34,3.24c2.61-1.11,6.48-1.74,8.78-3.4.17-.12,1.13-.98.93-1.18-.69.1-3.93,1.72-4.04.45-.1-1.17,2.99-1.25,3.13-2.47ZM45.32,34.51l-3.57.36c-.47,1.37.02,3.12.09,4.58.21.22,1.9-1.6,2.09-1.85.34-.43,1.81-2.67,1.39-3.1ZM57.04,39.09c-.85.09-2.05-.65-2.83-.55-.2.03-3.1,1.57-3.5,1.81-.16.1-.36-.1-.26.38,2.2.24,5.39.71,6.59-1.65ZM28.01,58.69H8.78c-.4.24-.39,1.36-.1,1.57,6.45.09,12.98.24,19.43-.1l.11-1.09-.2-.37Z"/>
  <path class="cls-1" d="M94.59,61.71s-.22.48-.27.46c-.54-1.18-4.67-1.05-4.48.07.54.83,1.66.2,2.65.3,1.87.18,2.73,1.96,2.84,3.66.25.05.44-.06.52-.3s.2-1.91.22-2.34c.24-4.5.52-10.41.18-14.85-.18-2.41-1.7-5.22-3.87-6.38-1.83-.97-5.95-.59-6.75-3.32-.11-.39.27-.29.46-.28,1.21.06,3.03,1.86,4.66,1.29-.92-2.01-2.12-3.5-4.48-3.67-1.52-.1-6.28,1.19-6.8-.72-.11-.41.51-1.24.02-1.28-.04,0-.31.18-.55.18-1.58.01-6.43-.06-6.52-2.3-.04-1.16,1.25-2.31,2.21-2.74s1.99-.3,2.74-.92c-2.74-2.78,1.28-3.37,3.31-4.02.4-.39.01-.91.07-1.39.19-1.47,1.71-2.41,3.12-2.38.61.02,1.8.62,2.17.53.3-.08,1.18-1.21,1.8-1.51,1.57-.77,2.68-.39,4.25.05,1.09-1.4,2.07-2.23,3.98-1.72.64.17,1.28,1.02,1.91,1.03.49,0,1.08-.46,1.6-.62,1.89-.57,3.04,0,3.8,1.8,1-.24,1.75-.62,2.84-.45,1.48.23,1.38,1.64,1.87,1.8,1.62-.44,3.16-.96,4.55.39.93.91.61,1.98.99,2.49.55.73,3.69.25,2.66,3.01,1.37.49,4.15.86,3.97,2.84-.12,1.41-2.08,1.01-2.4,2.1,1.96-.14,6.04,1.32,6.22,3.59.12,1.49-1.89,1.88-3.02,1.9-.34,0-.71-.18-1.1-.2-1.2-.04-.94.49-1.56,1.2-1.36,1.55-2.73,2.45-4.85,2.66-3.55.34-4.35-.81-7.9,1.07-4.56,2.4-4.79,4.31-5,9.28-.19,4.46.54,8.88.58,13.34l.14.22.56.08c0-2.4,1.57-4.23,4.11-3.83.55.08,1.03.53,1.67.55.68.02,1.71-.31,2.47-.29-.02-1.03-2.2-.74-2.8-.86s-1.11-.79-1.71-.87c-.9-.12-2.2.61-3,1.02l-.37-.2v-5.68c0-.07.86-.87,1.04-.98.77-.48,1.76-.54,2.63-.31.69.18,1.32,1.12,1.58,1.17.21.04,1.39-.68,2.01-.69,2.14-.05,2.54,2.51,1.54,4.01,2.52-.73,4.32.45,3.3,3.11,1.6.17,3.2,1.77,2.43,3.44-.3.65-.92.19-1.61.21-2.02.06-2.34,1.4-3.33,1.62-.83.19-1.67-.18-2.5.25-1.71.87.81,2.37-.2,3.47-1.49,1.62-7.17-.49-9.18.71-.87,1.28,3.27,2.41,4.01,2.78,3.33,1.66-.17,2.07-2,2-3.54-.14-7.29-1.36-10.81-1.83-.78-.44-.28-1.68.18-2.22.76-.89,2.6-.89,3.47-1.47.31-.21.65-.9.2-.9h-3.48c-.8-.82-.9-2.05-1.52-3.06-1.01-1.65-4.37-3.52-6.33-3.34-1.01.09-3.71,1.1-4.42,1.81-.86.84-.88,1.95-1.39,2.82-.71,1.2-1.7,1.19-1.17,3.24.2.79.95,1.29,1.19,2.01l-8.06.55v-2.84c0-.3-.57-1.63-.77-1.98-1.26-2.26-3.69-3.15-6.19-2.88,1.62-4.03,6.27-4.25,9.52-2.01-1-2.7.18-4.64,3.11-3.48.07-3.28,2.88-3.3,5.13-1.83-.17-2.6,1.56-4.36,3.94-2.6,1.51-2.54,4.61-2,5.4.76,1.56-.94,3.14-1.79,4.58-.09-.15,1.48.21,3.34,0,4.76ZM103.01,27.92c-1.7-.38-3.23-.79-4.94-.18.54,1.6-.97,1.81-2,2.49.06.61.09,2.55.95,2.42.69-.1,3.23-1.37,3.86-1.83.46-.34,2.56-2.41,2.14-2.9ZM107.22,28.1l-2.56.27c-.35.39-1.47,1.97-.41,1.79.99-.17,2.86-.9,2.98-2.06ZM85.41,29.58c-5.26-1.34-.58,1.51-1.12,3.33-.33,1.11-3.04,1.04-3.25,1.7-.25.8,1.04.65,1.55.63,1.26-.04,2.63-.49,3.93-.37-.66-1.7-1.22-3.43-1.12-5.29ZM89.82,35.43c-.43-1.87-.54-3.81-.08-5.68-.35-.5-2.43.03-3.03,0-.08,2.08.83,5.1,3.11,5.67ZM94.59,40.01l-.02-9.41c-.16-.46-2.6-.72-3.16-.67-.95,1.94-.27,4.58.38,6.56.46,1.41,1.14,3.29,2.79,3.52ZM98.2,33.63c-.83.16-1.44.84-1.43,1.69.03,1.34.77,6.4,1.25,7.56.16.37.36.71.68.97.81,0,1.69-5.29,1.74-6.13.03-.53.07-1.32,0-1.83-.12-.97-1.21-2.45-2.25-2.25ZM102.1,39.46c.18.21,1.66-1.35,1.84-1.55.6-.69,3.13-4.03,1.01-3.95-3.73.14-2.99,2.67-2.85,5.5ZM111.99,34.15c-.85-.24-3.49-.39-4.12.18-.5.47-1.02,3.25-1.71,3.97l-2.05,2.8c2.84-1.31,6.59-2.41,8.98-4.48.13-.12,1.3-1.1.64-1.19-.99-.14-3.62,2.56-4.66.99-.11-.69,3.37-1.65,2.92-2.27ZM117.48,37.63c-.8-.13-1.81-.34-2.61-.14-.21.05-2.96,1.93-3.43,2.25-.21.14-.47-.05-.36.45,2.21.09,5.56-.1,6.41-2.56Z"/>
  <path class="cls-1" d="M109.24,85.61l2.57-1.37c.72-.68.83-1.56,1.46-2.38,2.34-3.06,6.42-2.62,9.89-2.84-.99,3.82-4.11,7.03-8.31,6.57-.87-.09-1.84-.69-2.72-.5-.42.09-2.02,1.28-2.42,1.62-1.58,1.37-2.9,3.39-2.94,5.49,1.99-1.29,1.65-3.23,4.05-4.19,2.72-1.09,5.18.39,7.76,1.08-1.83,2.69-6.55,5.73-9.51,3.18l.66-.77,2.99-1.31c-1.15-.11-2.58.31-3.54.94-.42.28-2.46,2.28-2.64,2.67-.47.96-.19,4.06,0,5.23.03.16.08.55.32.5.65-2.1,2.16-3.74,4.53-2.97,1.23.4,1.28,1.86,1.54,2.03.35.22,1.42-.26,2.09.39s.25,1.58.44,1.75c1.27.56,2.9.54,3.84,1.68.08.22-.02.36-.15.53-.56.74-4.05,1.26-5.05,1.36-1.87.18-3.71-.02-5.58,0,.18,1.82,3.95.79,4.19,1.77.11.45-.43.81-.77,1.01-2.37,1.42-10.07,1.32-12.64.29-.35-.14-.62-.3-.86-.6.01-.88,6.28.07,6.6-2.01l-.31-.44c-3.55.34-7.86.58-11.28-.62s-.54-3.59,1.85-3.27c.33-1.92,1.9-2.41,3.58-1.65.94-1.86,2.88-2.54,4.68-1.34l1.47,1.91c-.3-2.58.27-5.42-2.09-7.14-4.19,1.52-7.72-2.51-8.16-6.41,2.92.13,7.1.2,8.58,3.23.59,1.19.17,1.43.26,2.34.06.6.99,1.02,1.41,1.39.13-2.24,1.88-4.61,1.6-6.82-.19-1.57-1.09-3.13-2.43-3.98l1.47,2.56-.08,1.21c-.64.45-2.43-.62-3-1.05-2.17-1.62-2.84-4.53-2.69-7.11,3.15.92,7.65,1.69,7.88,5.76.04.67-.15,1.28-.1,1.93,1.49-1.74,2.19-3.96,3.18-5.99-2.82-3.13-1.63-6.5,1.05-9.2.29-.3,1.76-1.67,2.1-1.41,1.27,2.95,2.63,6.6.06,9.24-.56.57-2.08,1.33-2.35,1.68-.43.55-.63,2.02-.93,2.73-.18.42-1.68,3.17-1.55,3.3ZM111.62,78.47c.28-1.34.9-2.64.92-4.03-.27-.04-.24.32-.31.51-.38,1.13-.5,2.33-.97,3.43l.36.09ZM117.11,82.5l-1.32.23-1.98.86,1.82-.46,1.47-.63ZM102.46,90.92c-.56-.89-1.57-1.39-2.56-1.64l2.56,1.64Z"/>
  <path class="cls-1" d="M89.21,76.7c.37.36.9,1.27,1.07,1.77,1.19,3.52-.63,11.72-.82,15.84-.23,5.14.1,11.4-1.18,16.4-.52,2.03-3.34,2.52-3.59-.09-.14-1.52.51-10.92-.02-11.25-.42-.09-1.03-.13-1.08.43l-.73,9.71c-.2,1.56-.48,3.32-2.23,3.82-2.67.76-2.24-2.34-2.16-4,.25-5.48.17-9.75,0-15.2-.04-1.16-.16-4.62.36-5.47.61-.46,3.63-2.86,3.49-3.51-.05-.23-.36-.28-.6-.25-.87.13-3.52,2.55-4.54,3.16-3.25,1.94-8.05,1.97-11.75,2.54-.89.14-1.62.74-2.52.31.29-1.39,1.9-1.42,1.1-3.29,5.36-.76,10.43-3.07,14.29-6.86,1.1-1.09,2.46-3.24,3.71-3.98.74-.44,3.52-1.05,4.43-1.07,1.08-.03,2,.22,2.78.99Z"/>
  <path class="cls-1" d="M63.23,89.06c-.61.12-1.02,1.03-1.43,1.22-.71.32-4.53-.15-5.56-.29-2.74-.39-5.42-.97-7.76-2.5-1-.65-2.01-1.77-3.04-2.27-.41-.2-.54-.35-1.04-.15.25,1.96,3.57,2.83,3.83,4.69.22,1.55-.15,3.25-.17,4.74-.09,5.6.27,10.62.55,16.13.07,1.4.06,2.67-1.74,2.67-2.21,0-2.39-2.52-2.63-4.16-.46-3.14-.4-6.42-1.11-9.52-1.92-1.07-.94,3.87-.92,4.95.03,1.61.24,5.14-.09,6.52-.47,1.99-2.99,1.75-3.53-.7-1.3-5.89-1.09-13.12-1.52-19.18-.26-3.74-1.78-10.03-.16-13.35.72-1.47,1.89-2.19,3.55-2.14.9.03,3.79.71,4.61,1.08,1.37.62,2.71,3.21,3.81,4.43,2.67,2.97,7.08,4.93,10.9,5.95,1.25.33,3.7.1,3.45,1.89Z"/>
  <path class="cls-1" d="M68.39,92.02c.18.87.09,1.79.19,2.65.47,4.21,1.53,9.03,1.65,13.2.08,2.56-2.9,2.38-3.99.68l-2.53-11.58-.52-.37c-.37.2-.46.54-.57.9-1.07,3.32-1.27,7.92-2.62,11.12-.75,1.78-3.82,1.74-4.05.14-.28-1.93.64-5.42.9-7.5.37-3.01.72-6.05.92-9.06,1.91-.44,3.85.75,5.59.75.75,0,4.87-1.13,5.04-.93Z"/>
  <path class="cls-1" d="M76.98,105.05c-.02,3.13-1.11,6.58.39,9.5-1.46.39-2.98.61-4.49.73-5.73.48-12.95.11-18.68-.55-.59-.07-4.04-.44-4.12-.83,1.19-2.71-.34-5.87-.1-8.7.32-.48,3.77-.55,4.49-.54-.35,2.57-1.62,5.35,1.3,6.85,1.13.58,2.31.64,3.51.25,1.47-.47,1.8-1.68,3.51-1.8,2.83-.19,3.53,2.61,6.88,1.75,3.7-.94,1.91-4.61,2.01-7.24l5.29.57Z"/>
  <path class="cls-1" d="M60.45,77.81c.28.2.43.55.93.81,3.01,1.56,3.99-2.28,6.78-.74,1.53.84,2.27,2.89,2.41,4.55.12,1.4-.33,1.59-1.58,2.03-2.94,1.03-6.35,1.44-9.38.69-1.4-.34-2.82-1.16-4.21-1.56.69-2.02.33-3.97,2.22-5.38.99-.74,1.76-1.18,2.85-.4Z"/>
  <path class="cls-1" d="M83.37,65.7c5.3-.64,8.11,7.17,2.16,9.12-7.01,2.3-8.34-8.37-2.16-9.12Z"/>
  <path class="cls-1" d="M42.16,65.69c7.4-1.27,7.13,11.83-.73,9.06-4.83-1.7-3.81-8.29.73-9.06Z"/>
  <path class="cls-1" d="M62.86,68.43c5.03-.38,6.67,5.86,2.42,8.12-1.72.92-3.09.92-4.67-.28-3.14-2.36-1.54-7.55,2.25-7.84Z"/>
  <path class="cls-1" d="M69.86,16.19c-2.05-.12-3.41-.42-5.26.69-1.38.82-1.32,1.95-3.24,1.68-1.02-.14-.82-1.07-1.3-1.81-.69-1.06-2.82-2.34-4.07-2.52-.65-.09-2.79.22-2.77-.48.14-.56.75-.79,1.26-.95,3.08-.96,5.9.45,7.81,2.83,2.17-1.67,6.11-2.22,7.58.56Z"/>
  <path class="cls-1" d="M67.45,20.27c1.27-.09,2.39.51,3.27,1.4,1.3-.78,3.55-2.02,4.93-.71,1.15,1.1-1.01.86-1.46.94-1.67.29-2.71,2.42-3.65,2.32-.65-.07-1.56-1.81-2.73-2.19-.97-.32-1.94.15-2.7-.42.29-.86,1.54-1.27,2.35-1.33Z"/>
  <path class="cls-1" d="M36.34,107.59c.08.63.56,2.82.01,3.22s-2.33-.25-2.76-.74c-1.39-1.57,1.66-2.22,2.75-2.48Z"/>
  <path class="cls-1" d="M24.82,95.52c.37-.53,2.77-.51,3.09.44-.42,1.06-3.89.72-3.09-.44Z"/>
  <path class="cls-1" d="M94.53,77.59c1.37-.41,1.5,1.63.16,1.44-.81-.12-.88-1.22-.16-1.44Z"/>
  <path class="cls-1" d="M117.8,68.44c.86.93-.66,2.1-1.02.93-.26-.85.59-1.39,1.02-.93Z"/>
  <path class="cls-1" d="M118.55,75.93c.66.42-.32,1.93-1.09,1-.59-.72.62-1.3,1.09-1Z"/>
  <path class="cls-1" d="M30.05,96.81c1.5-.46,1.5,1.13,0,.68-.4-.12-.4-.55,0-.68Z"/>
  <path class="cls-1" d="M32.27,80.14c.39-.05.54.16.78.43-.45.62-1,.62-1.46,0,0-.1.52-.41.68-.43Z"/>
  <path class="cls-1" d="M93.42,89.1c.79-.13.7,1.33-.2,1.09-.5-.13-.21-1.02.2-1.09Z"/>
  <path class="cls-1" d="M98.06,81.76c-.14.2-1.01.2-1.01-.45,0-1.06,1.48-.24,1.01.45Z"/>
</svg>