<?xml version="1.0" encoding="UTF-8"?>
<svg id="Camada_1" data-name="Camada 1" xmlns="http://www.w3.org/2000/svg" viewBox="0 0 128 128">
  <defs>
    <style>
      .cls-1 {
        fill: #284e32;
      }
    </style>
  </defs>
  <path class="cls-1" d="M45.7,36.07c-2.45.7-4.52,2.31-5.97,4.3-1.31,1.8-1.83,3.88-1.93,6.11-.38,8.44,5.73,16.1,12.06,21.05,1.9,1.49,3.85,2.67,5.89,3.95,2.36,1.47,3.03,4.53,1.73,6.9s-4.28,3.48-6.75,2.15c-3.95-2.11-7.49-4.72-10.78-7.76-7.06-6.51-12.39-15.18-12.65-25.01-.37-13.45,8.74-21,21.03-23.99-1.1-4.13-.44-8.37,1.79-12.08,2.89-4.8,8.19-7.53,13.81-7.23s10.37,3.43,12.76,8.4c1.55,3.23,2.06,6.7,1.29,10.26,9.85,1.75,17.96,7.22,21.81,16.6.74,1.8.68,3.65-.41,5.29-.95,1.44-2.76,2.41-4.59,2.28-2.55-.17-4.08-1.93-4.94-4.18-1.47-3.83-4.79-6.77-8.65-8.09-1.47-.5-3.04.32-3.94,1.43-.8.98-1.42,1.96-2.15,2.99-1.92,2.7-4.49,4.74-7.67,5.78-5.18,1.68-10.69.26-14.5-3.61-1.2-1.23-2.13-2.52-3.24-3.87-.92-1.11-2.39-2.13-4-1.67ZM68.27,20.05c0-2.88-2.34-5.22-5.22-5.22s-5.22,2.34-5.22,5.22,2.34,5.22,5.22,5.22,5.22-2.34,5.22-5.22Z"/>
  <path class="cls-1" d="M52.75,111.53c5.82-3.03,9.3-9.21,11.19-15.31,1.43-4.61,1.81-9.3,1.82-14.11,0-2.57,2.16-4.5,4.65-4.74,2.56-.24,5.38,1.53,5.57,4.29.71,10.26-2.09,21.87-8.1,30.32-2.07,2.92-4.62,5.38-7.5,7.41-6.53,4.6-14.63,5.45-21.96,2.22-4.78-2.11-8.99-5.36-12.28-9.49,2.85-5.07,2.79-11.01-.26-16.03-2.67-4.41-7.65-7.44-13.15-7.5-.36,0-.7-.3-.82-.67-1.75-5.41-2.21-11.05-1.23-16.67.75-4.29,2.59-8.02,5.19-11.45,1.29-1.7,3.01-2.68,5.24-2.36,1.85.26,3.55,1.62,4.22,3.63.56,1.67.19,3.45-.9,4.87s-2.18,2.97-2.81,4.76c-.83,2.35-1.1,4.81-.82,7.28.23,2.06,2.16,3.04,3.98,3.27l4.19.52c5.28.65,9.56,4.19,11.46,9.14,1.46,3.78,1.32,7.83-.37,11.53-.57,1.24-1.15,2.45-1.52,3.75-.49,1.71.22,3.38,1.63,4.34,1.16.78,2.36,1.29,3.7,1.76,2.94,1.03,6.09.71,8.88-.75Z"/>
  <path class="cls-1" d="M89.67,109.48c1.39-1.04,1.77-2.76,1.21-4.29-.48-1.33-1.15-2.48-1.86-3.71-2.87-4.96-2.55-11.02.87-15.64,2.36-3.19,5.88-5.2,9.82-5.74,2.56-.35,6.38-.8,6.65-4.09.46-5.56-2.48-10.13-7.65-12.08-8.99-3.39-19.81-.77-27.89,3.91-2.68,1.55-5.9.57-7.31-2.05s-.24-5.81,2.46-7.24c3.98-2.12,7.93-3.92,12.32-5.06,8.98-2.33,19.05-2.42,27.37,2.12,7.74,4.22,11.35,11.6,11.36,20.29,0,3.3-.49,6.63-1.41,9.58-.08.25-.61.4-.83.42-5.36.56-9.99,3.94-12.25,8.39-2.7,5.33-2.22,11.31,1.06,16.11-6.49,8.97-17.26,14.88-28.44,12.48-2.86-.62-4.37-3.49-3.84-6.22s3.11-4.56,5.91-4.17c1.64.23,3.21.41,4.86.17,2.76-.41,5.35-1.49,7.61-3.19Z"/>
  <path class="cls-1" d="M22.85,109.83c-.59,1.11-.81,2.03-.6,3.2-5.17,3.71-12.19,2.94-16.58-1.63-2.13-2.22-3.45-5.11-3.63-8.25-.3-5.2,2.64-9.99,7.41-12.18.93,1.18,2.14,1.66,3.6,1.71,3.95.12,7.51,2.36,9.41,5.51,2.19,3.63,2.36,7.94.39,11.65Z"/>
  <path class="cls-1" d="M107.1,111.84c.56-1.24.6-2.46-.14-3.51-2.47-3.54-2.97-7.91-1-11.96,1.67-3.44,5.23-6.15,9.38-6.43.93-.06,1.68-.45,2.43-1.09,7.48,2.71,10.44,11.51,6.37,18.39-3.47,5.88-11,8.04-17.05,4.6Z"/>
</svg>