<?xml version="1.0" encoding="UTF-8"?>
<svg id="Camada_1" data-name="Camada 1" xmlns="http://www.w3.org/2000/svg" viewBox="0 0 128 128">
  <defs>
    <style>
      .cls-1 {
        fill: #284e32;
      }
    </style>
  </defs>
  <path class="cls-1" d="M17.44,79.94c.82-.1,4.56,1.81,5.71,2.24,21.67,8.03,58.86,8.35,80.59.48,2.29-.83,4.45-1.97,6.77-2.73,3.25-.02,1.24,6.82.85,8.65-1.47,6.97-3.84,14.02-6.84,20.46-2.49,5.35-3.89,8.74-9.66,11.08-15.75,6.38-46.91,6.52-62.48-.39-4.2-1.87-5.25-3.83-7.3-7.73-3.59-6.84-6.46-15.23-8.11-22.79-.43-1.97-2.54-8.9.48-9.28ZM38.86,91.76c-1.33.22-3.09-.85-4.32-.63-1.13.2-3.77,2.13-5.4,2.45-1.71.33-3.14-1.96-4.66-2.66.09,3.84,3.35,7.22,5.82,9.95.53.59,3.85,3.66,3.91,3.93.13.56-3.02,1.64-3.57,2.01-.33.46,1.21,2.19,1.6,2.26.99.19,4.33-1.79,4.94-1.54l7.63,6.36c.13.6-2.22,1.13-1.69,1.58,1.3.4,2.86,0,4.08.26,1.62.33,3.76,2.89,5.97,2.5l2.02-.11c-.84-1.53-2.93-2.37-4.09-3.48-.18-.17-.19-.14-.13-.44l8.58-3.83c2.35,1.25,4.53,2.98,6.81,4.42,1.31.83,3.13,2.18,4.35,2.85,2.4,1.32,4.17.52,6.72.36-.13-.39-2-1.27-1.69-1.69,2.85-1.09,5.4-2.8,8.02-4.34.86-.15,3.73,1.94,5.01,2,.97.04,1.55-.81,2.42-1.05,0-1.34-4.37-2.62-4.23-3.27.04-.2,2.16-1.59,2.55-1.9.23-.18.32-.56.47-.68.58-.44,2.09-1.43,2.74-1.3,2.14.43,4.41,3.25,5.67-.55l-3.61-2.13c.33-.39,1.98-1.98,1.68-2.42-1.84-1.3-2.88.63-4.22.96-1.74.43-5.64-4.61-7.59-1.47,0,.45.32.72.62,1.01.58.57,3.85,2.49,3.97,2.7.18.31.23.57-.07.86-.04.04-.08.07-.28.46-.17.11-.02.05-.25.22-1.11.79-4.08,2.84-5.22,2.49-2.78-1.72-5.71-3.3-8.39-5.18-.27-.19-1.42-.91-1.2-1.23,3.85-2.66,8.32-4.68,11.22-8.47-1.22-.01-2.46-.07-3.64.27-.55.16-1.62.92-1.96.92-.42,0-1.16-.73-1.91-.78-.88-.06-2.35.34-3.28.44-.28.38,1.85,2.08,2.33,2.12.27.38-1.12,1.48-1.65,1.84-.49.33-.3.25-.72.52l-1.09.43-2.27,1.12c-1.15-.39-3.78-2.7-4.77-2.8-.53-.05-1.96.42-1.98,1.1-.02.91,3.31,3.27,4.16,3.88,3.8,2.73,8.1,5.29,12.13,7.66.22.32-.93,1.03-1.2,1.23-.92.65-5.94,3.73-6.69,3.61-3.31-1.85-6.65-3.69-9.67-6l4.86-3.07c.36-.49-2.16-1.9-2.77-1.79-1.05.18-4.38,2.81-5.27,2.56l-7.84-5.93c-.58-1.1-1.69-1.76-1.9-3.08-1.59,1.1-2.81-1.26-4.29-1.74-.74-.24-2.76-.34-2.66.75s7.45,7.11,8.76,8.18c.61.5,4.47,3.22,4.54,3.5.09.34-.47.63-.7.78-.81.53-7.05,3.57-7.58,3.45l-7.59-6.16c-.13-.59,3.67-2.11,4.13-2.84.31-.57-1.59-1.98-2.29-1.87-.92.14-3.83,2.37-4.62,2.2l-6.96-6.8c-.12-.54,2.1-1.15,2.61-1.39,1.41-.67,3.14-1.49,4.43-2.34.18-.12,1.56-.93,1.2-1.23ZM103.2,94.1c-.61-.19-1.25-.34-1.83-.61-1.08-.5-4.1-2.37-4.88-2.54-1.12-.25-2.48.65-3.65.6-.07.41.28.6.53.84,1.39,1.27,6.31,4.18,8.09,4.41,1.16.15,1.58-1.78,1.73-2.7ZM60.45,94.09l-6.98-.42.63.74c-.31.59-4.02,2.24-3.59,2.85l2.38,1.46,7.57-4.63Z"/>
  <path class="cls-1" d="M75.27,45.51c-.23,2.98-2.32,6.19-4.24,8.46-.58.68-1.3,1.25-1.9,1.91.15.3.52-.04.71-.14.3-.15,1.74-1.3,1.62-.5-1.8,4.09-3.39,8.32-3.92,12.8-.43.46-3.76,4.2-4.33,3.6-.16-2.3.3-4.59.42-6.88.67-12.76,1.16-31.85-2.3-44.06-.1-.36.16-.59-.45-.49.14,4.13.12,8.26.2,12.39.21,11.36.69,23.39-.42,34.7-.13,1.37-.28,2.85-.74,4.13-2.38-2.54-4.2-6.28-5.5-9.53-.91-2.26-1.75-4.76-2.01-7.19.8.61,1.62,1.62,2.75,1.59-3.58-3.08-4.98-7.54-5.08-12.17,1.41,1.34,3.03,2.31,4.76,3.17.15.05.14-.17.11-.32-.1-.49-2.98-3.66-3.56-4.48-1.23-1.75-2-2.81-2.16-5.03-.3-3.96,0-8.49.65-12.39,1.64.97,2.73,2.79,4.65,3.39-.72-1.52-1.82-2.82-2.51-4.37-.34-.76-.93-2.21-1.03-2.99-.45-3.31,3.7-12.3,5.88-14.97,3.06-3.77,5.14-4.21,8.47-.43,2.57,2.92,5.94,9.6,5.44,13.5-.25,1.94-1.46,4.11-2.27,5.87.42.1.5-.21.72-.44,1.16-1.2,2.27-2.76,3.09-4.21.42-.28,1.3,3.69,1.38,4.02.56,2.39,1.5,7.03,1.33,9.36s-3,5.51-4.19,7.57l4.03-3.07.42.21c-.13,2.28.17,4.73,0,6.98Z"/>
  <path class="cls-1" d="M83.1,45.3c.51-5.74,5.11-10.75,9.31-14.4.44-.38,2.01-1.98,2.3-1.02.24.8.16,2.79.27,3.75.03.25.1,1.16.4,1.19.36-2.49.93-5.4,2.29-7.55,1.62-2.57,7.89-5.93,10.84-6.73,2.44-.67,4.95-1.28,6.03,1.59,1.58,4.18.51,12.03-1.21,16.14-1.44,3.44-5.33,4.79-8.41,6.4,2.17.4,4.31-.55,6.35-1.16.04.3-.02.57-.09.86-.52,2.2-5.51,10.54-7.32,11.73s-5.41,1.89-7.61,2.02c-.03.49-.07.38.31.42.82.1,2.12.19,2.96.22.97.04,2.91-.72,1.9.82s-5.63,5.72-7.28,6.26c-1.94.64-4.14.42-6.14.74-.06.51,0,.34.29.45.51.18,1.37.32,1.93.4.71.1,1.84-.32,2.22.42-1.65.77-3.07,1.99-4.69,2.83-2.99,1.55-7.55,1.62-10.96,1.95-.29.03-.5.3-.43-.22,8.1-9.08,15.79-18.61,22.31-28.91,1.73-2.72,3.45-5.5,4.78-8.45-1.35,1.33-2.59,2.86-3.8,4.34-5.84,7.16-11.21,14.71-17.16,21.79-3.28,3.91-6.77,7.62-10.15,11.44-.6.26-.95-.89-1.01-1.32-.78-5.19,2.37-11.33,3.97-16.14l.47.27.8,2.69c.44-1.98.09-4.36.57-6.31.2-.8,3.57-7.21,3.98-7.23l1.8,5.5c.85.12.21-.55.21-.74,0-1.28-.11-2.78,0-4.02Z"/>
  <path class="cls-1" d="M37.17,70.59c-4.58-.77-9.49-1.73-13.81-3.43-.5-.2-2.8-1.04-2.69-1.53.16-.75,4.15-2.34,4.87-2.97-1.09-.93-3.9-1.01-3.38.95-4.65.11-7.76,2.8-2.4,5.68,2.19,1.17,4.79,1.75,7.05,2.69.6.25,1.57,1.03,1.85,1.12.71.21,1.86-.03,2.68.07,1.59.19,3.97.95,5.63,1.35,3.46.84,6.5.84,10,1.43.81.14,2.01.73,2.61.79.76.07,1.91-.44,2.73-.44,1.98,0,4.48.33,6.56.44,3.86.21,7.72-.1,11.65-.01,3.49.08,6.6-.59,10.14-.85.97-.07,2.29.2,3.11.11,1.69-.2,4.4-1.07,6.43-1.36,3.05-.44,5.65-1.29,8.7-1.88,2.18-.42,2.03-.55,3.96-1.33,1.62-.66,7.93-2.72,8.37-4.35.59-2.22-3.35-3.95-5.05-2.7.26.22,1.76,1.2,1.48,1.59-3.69,1.51-7.47,2.92-11.43,3.6l6.55-6.23c1.03.19,2.01.12,2.87-.54l-1.37-1.16,2.03-2.62c3.52,1.04,7.35,2.52,8.8,6.18,1.17,2.96.72,7.18-1.62,9.47-1.66,1.62-9.06,4.43-11.49,5.02-3,.72-6.09,2.08-9.26,2.38-1.61.15-1.14-.04-2.74.43-3.14.93-4.78.41-7.6.69-1.71.17-3.96,1.09-6.17,1.2-1.56.08-4.3-.46-5.26-.36-.35.04-.72.44-1.14.52-2.05.42-6.07.46-8.2.26-.84-.08-1.96-.64-2.54-.64-1.09-.01-2.64.48-4.24.43-2.73-.09-5.66-1.12-7.84-1.26-3.44-.22-5.45.07-9.08-.87-1.93-.5-1.49-.54-3.6-.62-1.75-.06-6.22-1.52-7.89-2.29s-1.35-.47-3.03-.78-7.14-2.81-8.44-3.84c-2.22-1.77-3.06-5.32-2.54-8,.9-4.65,4.91-6.54,8.97-7.96,1.31-.46,4.06-1.58,5.27-.82,2.45,3.35,4.94,6.75,7.85,9.72.27.27,3.03,2.4,2.65,2.74ZM107.86,74.61c2.39.66,3.67-2.72,2.97-4.56-2.35-.04-2.59,2.81-2.97,4.56ZM16.22,71.65c-.06,2.6,3.31,2.16,4.87,1.16-1.04-1.83-3.09-1.39-4.87-1.16ZM101.67,73.81c-1.04.15-1.82,1.3-2.31,2.14s-1.27,1.82-.12,2.31c1.27.54,2.15-.87,2.73-1.81.63-1.03,1.8-2.94-.3-2.64ZM27.59,74.66c-.61.1-3.46,1-3.03,1.85,1.1,2.16,4.74.17,6.04-.95-.94-.88-1.72-1.1-3.01-.9ZM92.99,76.13c-1.02.14-3.04,2.57-3.29,3.5-.18.67.39.72.91.71,1.73,0,2.93-2.42,3.7-3.73-.29-.33-.89-.54-1.32-.49ZM38.6,76.77c-1.25.1-5.71,2.59-2.71,3.26,1.08.24,4.22-1.17,4.78-2.02.41-.63-1.61-1.27-2.07-1.23ZM84.05,77.46c-1.6-.05-3.64,2.18-3.83,3.71.16.26,1.32.6,1.63.52.58-.14,3.25-2.91,3.33-3.43.07-.46-.74-.8-1.13-.81ZM51.77,78.85c-.61-.12-1.23-.55-1.85-.59-1.61-.09-6.39,2.85-3.02,3.67.9.22,2-.63,2.73-1.1.34-.22,2.39-1.64,2.14-1.98ZM72.61,78.53c-.82.05-2.64,1.74-3.17,2.43-.66.86-.71,1.33.52,1.61,1.88.43,3.72-2.2,4.88-3.4,0-.43-1.85-.66-2.23-.63ZM63.2,79.27c-2.38-1.3-4.88.5-5.91,2.62,1.29,1.43,3.13.21,4.32-.72.28-.22,1.79-1.63,1.59-1.9Z"/>
</svg>