<?xml version="1.0" encoding="UTF-8"?>
<svg id="Camada_1" data-name="Camada 1" xmlns="http://www.w3.org/2000/svg" viewBox="0 0 128 128">
  <defs>
    <style>
      .cls-1 {
        fill: #fff;
      }
    </style>
  </defs>
  <path class="cls-1" d="M72.67,54.66l12.05-1.8-10.98-1.98-1.51-7.78c-2.74,9.89-3.01,19.55-2.44,30.44.1,1.82-1.47,4.55-2.98,5.08-8.19,2.84-5.58-17.21-5.12-17.91l6.15-9.45c2.56-3.93-.87-9.04-1.63-13.8-.5-3.12,4.58-7.3,7.71-8.48l3.83,16.77.88-17.48c14.99,1.08,26.66-4.8,32.06,12.74,3.57,11.56,3.56,22.93,2.48,35.14-.13,1.51-3.9,3.03-5.27,2.5s-2.94-3.19-2.87-5.06c.45-11.27.6-21.31-2.91-31.61l-.79,23.78c-8.1,2.49-20.66,2.1-27.44-.08-.69-.22-.96-2.95-.29-3.07l4.01-.7-5.36-3,9.07-1.57-8.67-2.68Z"/>
  <path class="cls-1" d="M41.14,52.97c13.88,7.46,19.63-5.1,18.02,2.79-.37,3.52-2.13,6.31-5.78,8.18l-3.1,5.44c-7.35.44-13.55-2.87-19.66-7.4l2.58,3.78c-6.32.42-12.59-1.05-18.88-4.14-.54-10.41.28-21.13,5.91-30.09,3.23-5.15,10.33-5.22,16.04-6.01-5.39-1.26-10.4-9.05-7.43-14.03l21.07-3.98c3.69,6.68,1.35,12.88-3.13,16.96,1.16-.69,3.49-2.73,4.7-3.01l17.23-4.06c1.65-.39,4.58,1.51,4.95,2.88s-.92,4.84-2.35,5.18l-34.11,8.01c-.72,5.49-1.37,9.31-2.63,14.9l-2.17-9.52c-.77,5.46,1.15,16.32,8.26,19.47l.49-5.35ZM25.8,33.95c.66-.89,4.44-1.8,5.03-2.07-1.13-.82-5.75-.38-6.5,1.22-3.32,7.12-2,14.81.95,20.61-.94-6.77-2.85-15.26.51-19.77Z"/>
  <path class="cls-1" d="M88.64,119.64v-35.48c2.78-4.76,3.82-9.38,2.88-14.58l10.14-1.52.04,51.56c0,3.67-2.83,6.6-5.68,6.82-4.21.32-7.38-2.38-7.38-6.8Z"/>
  <path class="cls-1" d="M73.89,109.07c-.84-2.09-1.6-8.07.12-9.72l8.16-7.81-8.86-3.05-.17-20.4,10.29,1.47c-2.18,5.46,1.54,9.57,2.17,14.6,1.11,8.87.51,17.67.54,27.53l-12.26-2.62Z"/>
  <path class="cls-1" d="M81.29,16.31l-5.67-4.2c.58-6.66,6.52-11.04,12.72-10.54s10.71,5.15,10.93,11.27c.22,6.1-4.18,11.53-9.89,12.29-6.41.85-12.39-2.84-13.51-9.57l5.42.74Z"/>
  <path class="cls-1" d="M20.94,118.41c4.76-16.8,2.54-7.58,11.41-16.79,2.18-2.26,2.55-6.48.6-8.51-1.37-1.43-2.74-3.06-2.94-4.24-.24-1.37,1.5-4.23,2.67-4.97l4.55-2.87c2.47,14.13,1.11,27.15-3.36,40.35-1.26,3.72-4.55,5.69-8.67,4.73-2.42-.57-5.2-4.34-4.25-7.7Z"/>
  <path class="cls-1" d="M31.7,82.94c-1.29,1.03-3.05,4.23-2.97,5.89.09,1.83,2.9,4.72,3.79,6.66,1.95,4.28-4.67,8.26-7.79,9.92.09-10.32,1.82-21.21-3.08-30.59-1.63-3.12-8.25-4.77-6.6-10.29,6.3,2.18,12.13,3.28,19.15,3.85l2.9,10.24-5.41,4.32Z"/>
  <path class="cls-1" d="M86.35,118.99c-.36,4.33-2.41,6.82-5.45,7.4-2.36.45-6.86-1.19-7.27-4.07-.6-4.16-.47-7.7-.12-11.65l11.07,2.42c1.2.26,1.89,4.39,1.77,5.9Z"/>
  <path class="cls-1" d="M47.74,5.9l-18.15,3.23c3.18-7.03,11.62-9.64,18.15-3.23Z"/>
  <path class="cls-1" d="M61.43,57.03c.13-5.49,1.1-10.93,3.03-17.22,3.75,5.6,3.59,12.7-3.03,17.22Z"/>
</svg>