<?xml version="1.0" encoding="UTF-8"?>
<svg id="Camada_1" data-name="Camada 1" xmlns="http://www.w3.org/2000/svg" viewBox="0 0 128 128">
  <defs>
    <style>
      .cls-1 {
        fill: #284e32;
      }
    </style>
  </defs>
  <path class="cls-1" d="M35.57,51.29c-6.59-.67-12.3-4.49-15.43-10.25-2.64-4.85-1.01-5.42,4.14-4.98,9.02.77,13.73,8.43,20.94,12.64l4.31-2.51c.54-.78-4.08-4.03-4.78-4.63-.74-.62-1.37-1.48-2.11-2.12-.45.26.11.63.26.87,1.06,1.71,2.71,3.52,3.62,5.13.13.23.46.62.08.76-4.1-1.57-7.86-2.71-11.15-5.78-4.22-3.93-7.71-12.8-6.37-18.51.54-2.28,2.45-1.22,4.02-.6,10.16,4.03,13.14,15.03,19.05,23.14.41.24,4.4-.94,4.75-1.21.67-.53-.85-3.1-1.27-3.82-.72-1.22-1.64-2.47-2.68-3.38-.35.47,1.46,4.91,1.67,5.8.09.37-.05.55-.4.4-.32-.14-4.12-4.56-4.65-5.23-4.29-5.39-7.05-11.17-5.86-18.26.18-1.05.67-4.07,2.04-4.07,8.29,3.37,9.92,12.7,11.57,20.51l.99,2.25c-1.39-8.78-3.07-19.28,1.55-27.38.57-.99,2.76-4.16,3.79-4.38,1.16-.25,3.5,3.16,4.1,4.13,5.02,8.12,3.21,19.03,1.58,27.92l1.27-3.1c1.21-4.84,1.8-9.79,4.54-14.09,1.52-2.38,4.41-5.24,7.18-5.84,1.91.52,2.08,6.84,1.98,8.51-.45,7.66-5.55,14-10.88,19.04-.18-2.27,1.2-4.34,1.71-6.48.07-.28.37-.92-.15-.86-.75,2.93-3.5,4.88-4.25,7.76l.3.57,4.75,1.21c5.24-7.46,8.06-17.05,16.34-21.9,1.1-.64,5.14-2.78,6.16-1.76,2.3,7.13-1.42,14.3-5.79,19.76,1.46-.66,2.73-1.75,4.17-2.46,2.72-1.33,8.82-3.09,11.56-1.56,1.89,1.06-1.05,5.38-1.95,6.65-5.38,7.56-11.53,7.51-19.86,8.36-1.71.18-.27,1.82.44,2.12,1.8.77,8.34-2.09,10.6-2.65,4.21-1.05,9.87-1.1,13.48,1.72,1.37,1.07,1.64,1.49.34,2.79-4.58,4.57-14.94,6.5-21.04,4.5,3.25,7.28,6.28,14.7,8.96,22.22,2.09,5.88,3.89,14.18,6.84,19.41.56,1,5.61,5.85,4.24,6.9-2.39-1.35-4.45-3.18-6.79-4.63-3.93-2.43-8.17-4.43-12.68-5.52.63,3.22.42,4.29-2.5,5.81.41,1.5.78,2.32.16,3.85-.99,2.47-4.11,2.33-4.59,3.03-.62.92,0,3.06-1.36,4.43-1.52,1.52-3.27,1.53-5.27,1.64-.69.41-.45,3.17-3.1,4.24-2.32.93-3.79.36-5.75-.96-1.35,1.51-1.93,3.16-4.31,3.26s-3.52-1.51-4.78-3.28c-2,1.2-3.13,1.92-5.48.98-2.66-1.06-2.53-4.09-3.66-4.5-.33-.12-1.52.23-2.35.06-1.15-.23-3.28-2.07-3.53-3.24-.19-.87.12-1.78-.18-2.64-3.74-.79-5.82-2.85-4.69-6.86-.18-.56-2.9-.68-2.82-3.42.02-.65,1-2.23.14-2.4-.42-.08-3.92,1.26-4.64,1.54-3.41,1.34-6.66,3.23-9.69,5.27-.61.41-4.22,3.59-4.71,3.05.07-3.11,3.2-4.76,4.57-7.43,3.1-6.06,5.37-16,7.92-22.84,1.49-3.99,3.03-8.04,4.68-11.97.36-.85,2.84-5.68,2.59-6.02-5.81,1.72-13.56.69-18.6-2.71-2.57-1.73-4.71-3.27-1.07-5.25,2.54-1.38,6.25-1.85,9.1-1.65,4.77.34,8.91,3.39,13.75,3.35l3.03-3.47-7.62-2.68,5.35,3.54c.75,1.09-.32.13-.41.13-1.68,0-3.75.16-5.36,0ZM64.78,38.3l-.29-8.32-.56-2.96-1.13,11.57-2.4-4.51c-.99,1.02.22,8.32.89,8.48l5.61-.28c.66-2.72.69-5.44.41-8.2-1.54.85-1.29,3.13-2.53,4.23ZM81.15,45.92c-.25-.25,2.88-4.7,3.27-5.33.15-.24.71-.61.26-.87l-6.24,5.91,3.53,2.99c1.09.24,8.49-5.73,9.34-7.21l-4.04,2.31-6.12,2.21ZM84.25,56.93c-2.07-6.81-9.63-10.73-16.3-11.78-9.11-1.43-20.7,2.23-24.34,11.35l3.41-3.08c11.27-8.31,27.88-6.97,37.23,3.5ZM91.87,47.34c-1.07.62-7.8,2.11-7.89,2.96.3.8.79,1.09,1.68.87l6.21-3.83ZM82.56,64.27c-1.34-1.66-1.35-4.17-2.58-6.02-5.46-8.22-23.23-8.03-30.29-2.16-2.62,2.18-3.34,5.27-4.1,8.46-.81-.85-1.98-3.49-3.4-1.77-1.15,1.39.47,9.6,1.41,10.89.62.85,1.88.33,2.42-.36.43,0,2.1,6.55,2.54,7.61,3.91,9.41,14.14,14.68,23.43,8.76,5.87-3.74,8.06-9.87,9.45-16.38.5-.38,1.35,1.86,2.67.27,1.22-1.47,2.71-9.57,1.21-10.92-1.18-1.06-2.62.32-2.75,1.62ZM94.7,56.09c-1.25.41-6.5-1.56-7.05-.85.37.61.48,1.58,1.27,1.69l5.79-.84ZM39.94,55.24l-5.47.6-2.15.53c2.26-.04,7.08,2.11,7.62-1.12ZM41.21,74.72c-1.24.88-5.74,6.54-2.76,7.3.83.21,4.05-4.61,4.18-5.31.14-.75-.98-1.49-1.42-1.99ZM85.47,75.64c-.57.71-.38,1.25-.04,1.99.19.41,2.5,3.81,2.76,4.02.48.39.8.59,1.43.27,2.06-1.17-2.21-6.85-3.24-6.82-.12,0-.81.43-.9.55ZM75.79,91.36l-7.61,4.94c-4.65,2.7-8.89.23-12.8-2.45-1.15-.79-2.19-2.21-3.58-2.49v8.04c0,.4,3.67,5.94,4.23,6.77,1.4.45,3.25.45,4.6.76.83.19,1.49,1.18,2.33,1.34,2.63.5,3.52-.99,5.76-1.55.77-.19,1.61.02,2.27-.27.14-.06,1.99-1.91,2.13-2.09.78-.99,3.01-5.24,2.98-6.38-.01-.51-.31-.99-.31-1.12v-5.5ZM47.56,93.34c-.36-.35-5.06,1.67-5.07,2.12,2.59,2.09,1.67,4.15.58,6.73,3.6,1.87,5.02,4.62,5.06,8.65,1.46-.54,2.4-.71,3.68.41.41.36,2.41,3.14,2.59,3.62.39,1.05-.15,2.58.98,2.97,1.65.57.63-1.34,1.48-2.28,1.44-1.59,3.3-.5,4.38.87,1.84-1.67,3.75-1.28,5.64.05.6-2.03,4.22-2.22,5.1-.57.55,1.03-1.96,2.01.24,2.23,1.06-1.38.77-3.02,1.81-4.68.92-1.47,4.06-4.3,5.56-2.34.38.49.2,1.29.7,1.41-.11-3.21-.86-6.3,1.84-8.75.84-.76,1.92-.81,2.66-1.6.19-.66-1.47-2.38-1.41-3.9.05-1.14,1.62-2.37,1.31-2.97-.53-.55-4.33-2.32-4.68-1.98-.84,3.37,2.78,9.26-2.52,9.33-.5.74,2.01,2.68-.14,3.95-.93.55-2.21.03-2.66.31-.13.08-.87,2.07-1.57,2.52-.62.39-1.25.15-1.85.41-1.18.51-1.56,2.57-3.97,2-1.34-.32-2.52-.77-4.09-.71-.51.02-.9.64-1.46.77-2.39.56-2.48-1.72-3.37-1.88-.51-.09-1.19.9-2.63.37-1.75-.64-2.09-3.03-2.83-3.38-.9-.42-2.34.28-3.08-.87-1.02-1.6.59-2.54.51-3.04-.16-.96-1.99-.61-2.61-1-.89-.55-.19-2.18-.17-2.98.03-1.93-.05-3.87-.01-5.8ZM40.12,98.44c-.98.15-1.15,2.47.5,1.93.95-.31.3-2.05-.5-1.93ZM86.87,100.04c.62.61,1.7.1,1.6-.59-.19-1.27-2.97-.76-1.6.59ZM85.31,107.38c.95-.94-.89-2.94-1.7-.97-.45,1.09,1.03,1.64,1.7.97ZM42.96,105.79c-1.26.31-.72,2.21.45,1.91,1.26-.31.72-2.21-.45-1.91ZM63.57,118.22c-1.31.37-.67,2.18.45,1.9,1.06-.26,1.16-2.36-.45-1.9Z"/>
  <path class="cls-1" d="M49.26,65.96c-.12-.65.05-.45.36-.63,1.9-1.07,3.02.09,4.86.09s3.41-1.26,5.22-.02c.17-2.78-4.36-4.15-6.6-3.92-1.2.12-2.32.87-3.56.81,1.15-3.45,10.81-2.48,11.51-.08.15.52.16,3.03.06,3.61-.24,1.29-1.58.25-2.66.43-.61.1-1.45.89-2.26,1.14-2.81.84-4.38-.75-6.93-1.43Z"/>
  <path class="cls-1" d="M78.33,62.57c-1.12,0-1.95-.87-3.03-1.06-2.39-.41-7.02.74-7.41,3.6,1.98-.81,3.8.36,5.79.3,1.01-.03,2.18-.6,3.08-.56.52.02,2.16.64,1.42,1.11-2.03.31-3.48,1.9-5.61,1.67-1.3-.14-2.33-1.15-3.2-1.34-.95-.21-2.29.64-2.57-.24l.1-4.04c2.85-2.76,9.13-3.07,11.43.56Z"/>
  <path class="cls-1" d="M70.71,81.49c.08.76-.78,1.14-1.39,1.29-2.22.53-7.94.41-10.3.1-.72-.1-1.61-.43-2.14-.96,0-.49,4.29-2.02,4.98-2.03.64,0,1.23.47,1.94.49.91.03,1.66-.41,2.79-.28,1.29.15,2.75,1.25,4.12,1.39Z"/>
  <path class="cls-1" d="M61.04,74.76c1.16-.2,1.53.82,2.75.83,1.47.01,3.14-2,4.09.11-.57.74-1.53.28-2.33.49-.56.15-.85.84-1.74.78s-2.27-1.26-3.56-.98l-.14-.72c.26-.21.59-.45.92-.51Z"/>
  <path class="cls-1" d="M65.63,85.44c-.03,1.54-3.2,1.4-3.67.42-.27-.57.46-.4.7-.42.98-.07,1.99.05,2.97,0Z"/>
</svg>