<?xml version="1.0" encoding="UTF-8"?>
<svg id="Camada_1" data-name="Camada 1" xmlns="http://www.w3.org/2000/svg" viewBox="0 0 128 128">
  <defs>
    <style>
      .cls-1 {
        fill: #284e32;
      }
    </style>
  </defs>
  <path class="cls-1" d="M3.09,125.11c-1.71,0-2.42-1.15-2.38-2.31.04-1.26,1.07-2.06,2.44-2.06h25.39s.65-27.85.65-27.85l-5.65-9.39c-5.14,1.75-10.48-.32-12.99-5.08-5.56-1.87-9.23-6.84-9.47-12.5s3.03-10.92,8.32-13.28c-.12-5.09,2.51-9.63,7.27-11.73-2.75,10.81,2.7,21.65,12.9,25.81,3.83,5.99,10.69,9.19,17.79,7.83l5.25,9.04c-2.25.92-4.37.62-6.57-.02l-5.63,9.32.7,27.84h15.29s.9-37.84.9-37.84l-7.61-13.1c-.36-.08-1.08-.11-1.42,0-6.31,1.96-12.76-.97-15.72-6.72-6.71-2.13-11.26-7.95-12.05-14.51-.85-7.08,2.57-13.77,8.72-17.34-.67-4.77.89-9.42,4.12-12.78s7.99-5.16,13-4.57c3.38-6.75,10.11-10.93,17.52-10.99s14.26,4.01,17.71,10.86c8.82.18,15.73,7.45,15.13,16.53,6.86,2.88,11.15,9.53,10.87,16.89s-5.1,13.68-12.16,15.98c-3.12,6.19-10.12,9.01-16.82,6.39l-7.89,13.52.92,37.7h15.28s.67-27.79.67-27.79l-8.93-14.92,1.96-3.39c7.04,1.16,13.95-1.82,17.8-7.91,10.22-4.17,15.68-15.04,12.89-25.82,4.75,2.08,7.41,6.62,7.3,11.73,5.27,2.35,8.55,7.55,8.31,13.24-.23,5.68-3.91,10.68-9.47,12.54-2.5,4.61-7.64,6.9-12.95,5.05l-5.7,9.36.67,27.9h25.67c1.28,0,2.13,1.03,2.17,2.06.04,1.16-.74,2.31-2.22,2.31H3.09Z"/>
</svg>