<?xml version="1.0" encoding="UTF-8"?>
<svg id="Camada_1" data-name="Camada 1" xmlns="http://www.w3.org/2000/svg" viewBox="0 0 128 128">
  <defs>
    <style>
      .cls-1 {
        fill: #fff;
      }
    </style>
  </defs>
  <path class="cls-1" d="M49.8,51.61c-2.58.62-5.16-.91-6.57-2.69l-11.46-14.53c-1.61-2.04-1.75-4.18-.42-6.46s3.52-4.21,5.89-4.61c2.91-.49,6.03.35,7.9,2.72l11.95,15.12c1.81,2.29,1.53,5.25-.69,6.96-1.88,1.44-3.98,2.87-6.58,3.5Z"/>
  <path class="cls-1" d="M40.58,56.6l-3.88,3.4c-6.37-1.47-14.77-9.04-18.97-14.05-1.02-1.22-.9-3.1-.05-4.36,2.15-3.19,7.17-7.18,10.44-4.38,5.3,4.55,9.68,9.63,13.2,15.62.75,1.28.27,2.89-.73,3.77Z"/>
  <path class="cls-1" d="M66.54,20.76c-9.48,4.14-8.58,1.05-10.74,9.38-3.33-.36-7-7.48-7.93-10.33-.17-4.89,2.53-9.42,7.34-10.87,1.11-.34,3.82-.71,4.6.24l7.29,8.93c.24.29.48,1.05.42,1.39s-.67,1.11-.99,1.25Z"/>
  <path class="cls-1" d="M84.71,14.58c-3.46,2.49-7.72,3.84-12.06,3.31-3.22-.4-6.62-7.39-6.15-10.36.44-2.75,2.77-4.61,4.8-5.42,2.78-1.11,5.55-.65,8.03.88,2.82,1.74,4.54,4.55,6.02,7.49.75,1.49.87,3.03-.63,4.11Z"/>
  <path class="cls-1" d="M61.59,47.49c.71-1.26,1.8-2.32,2.01-3.18l.86-3.49c3.23-.59,6.41.61,9.22,2.53-2.63,4.18-7.53,5.78-12.09,4.13Z"/>
  <path class="cls-1" d="M110,48.25c1.73-2.34.9-4.28-.19-6.47l-7.03-14.11c-2.04-4.08-4.95-7.63-7.85-10.97-1.77-2.04-3.16-1.21-5.16-.4l-14.03,5.7c-4.51,1.83-8.94,3.1-13.72,4.06-3.69.74-2.49,7.31-.69,8.86,1.93,1.65,4.63,2.6,7.05,3.26,3.2.87,6.31.3,9.22-1.03l7.35-3.36,2.8,8.55c-7.77,1.39-14.54,4.93-19,11.5l-12.17,17.94c-1.11,1.64-2.38,3.17-4.08,4.27-.66-.6-.43-1.48.02-2.1l13.7-19.36c.38-.54.53-2.03.24-2.55-1.75-3.14-14.61-.21-19.99,3.86-3.35,2.54-6.05,5.35-9.25,8.12-.55.48-1.98.47-2.52.08l-9.62-6.97c-.49-.35-1.78-.69-2.27-.81-1.32,1.21-1.91,3.18-1.42,4.97l3.36,12.38c2.57,9.44,11.89,11.16,11.87,21.71l-.02,9.68c.31-1.9,1.94-3.35,3.93-3.35,2.21,0,3.99,1.79,3.99,3.99s-1.79,3.99-3.99,3.99c-1.99,0-3.63-1.46-3.93-3.37l-.02,11.73c0,1.37.49,2.83,1.71,3.49,2.11,1.14,4.19,2.28,6.56,2.9,10.07,2.62,20.42,2.75,30.56.45,2.84-.64,9.76-3.03,9.5-6.9l-2.24-33.34c-.12-1.73.69-3.14,1.78-4.43,8.86-10.47,17.43-20.98,25.57-31.96ZM48.17,112.25c-2.21,0-3.99-1.79-3.99-3.99s1.79-3.99,3.99-3.99,3.99,1.79,3.99,3.99-1.79,3.99-3.99,3.99ZM56.27,113.03c-2.21,0-3.99-1.79-3.99-3.99s1.79-3.99,3.99-3.99,3.99,1.79,3.99,3.99-1.79,3.99-3.99,3.99ZM64.37,113.03c-2.21,0-3.99-1.79-3.99-3.99s1.79-3.99,3.99-3.99,3.99,1.79,3.99,3.99-1.79,3.99-3.99,3.99ZM72.41,112.25c-2.21,0-3.99-1.79-3.99-3.99s1.79-3.99,3.99-3.99,3.99,1.79,3.99,3.99-1.79,3.99-3.99,3.99ZM84.06,105.71c0,2.21-1.79,3.99-3.99,3.99s-3.99-1.79-3.99-3.99,1.79-3.99,3.99-3.99,3.99,1.79,3.99,3.99Z"/>
</svg>