<?xml version="1.0" encoding="UTF-8"?>
<svg id="Camada_1" xmlns="http://www.w3.org/2000/svg" version="1.1" viewBox="0 0 128 128">
  <!-- Generator: Adobe Illustrator 30.1.0, SVG Export Plug-In . SVG Version: 2.1.1 Build 136)  -->
  <defs>
    <style>
      .st0 {
        fill: #fff;
      }
    </style>
  </defs>
  <path class="st0" d="M66,.51c9.2,1.33,16.08,8.69,16.16,18.13,7.11,4.14,10.56,12.37,8.44,20.39-1.96,7.41-8.71,13.39-16.74,13.4l-19.26.03c-8.2.01-15.17-5.83-17.18-13.43-2.12-8.01,1.32-16.26,8.45-20.39.06-9.46,6.93-16.64,15.91-18.14h4.22Z"/>
  <path class="st0" d="M127.51,68.93v16.07c-.97-.27-2.01-.66-2.98-1.18-6.1-3.28-13.93-3.4-19.99-.09-4.35,2.38-9.47,2.38-13.8,0-5.83-3.2-13.88-3.26-19.67-.06-4.45,2.46-9.64,2.46-14.08,0-5.77-3.2-13.81-3.13-19.66.06-4.36,2.38-9.47,2.38-13.81,0-5.87-3.22-14.02-3.27-19.82.04-1.07.47-2.07.88-3.17,1.23v-16.08s25.59,0,25.59,0l.03-8.98h7.41s.06,8.98.06,8.98h26.67s.02-8.99.02-8.99h7.43s.02,8.99.02,8.99h26.67s.05-8.98.05-8.98h7.39s.05,8.98.05,8.98h25.59Z"/>
  <path class="st0" d="M127.51,114.78v12.71H.57s-.05-12.64-.05-12.64c2.17-.46,4.03-1.11,5.98-2.02,4.33-2.58,9.63-2.56,14.03-.15,5.9,3.22,13.89,3.25,19.75.01,4.4-2.43,9.57-2.38,13.97.04,5.77,3.18,13.8,3.16,19.58-.02,4.38-2.41,9.53-2.44,13.91-.03,5.86,3.22,13.89,3.24,19.74,0,4.4-2.43,9.57-2.38,13.98.04,1.95,1.07,3.99,1.72,6.05,2.04Z"/>
  <path class="st0" d="M127.51,92.62v14.55c-.99-.29-2.06-.69-3.05-1.22-6.05-3.22-13.9-3.37-19.85-.08-4.4,2.43-9.56,2.42-13.95,0-5.81-3.21-13.84-3.18-19.69.03-4.38,2.4-9.52,2.39-13.89-.01-5.82-3.2-13.9-3.21-19.67-.02-4.53,2.51-9.62,2.36-14.17-.08-5.44-2.91-12.19-3.14-17.79-.69l-4.92,2.15v-14.57c2.23-.47,4.17-1.04,6.05-2.09,4.41-2.45,9.61-2.47,14.04-.03,5.77,3.18,13.82,3.19,19.58,0,4.44-2.44,9.62-2.44,14.06,0,5.72,3.16,13.81,3.16,19.52,0,4.42-2.44,9.61-2.47,14.05-.02,5.77,3.18,13.82,3.19,19.58,0,4.44-2.45,9.62-2.44,14.06.01,1.93,1.07,3.98,1.72,6.04,2.03Z"/>
  <path class="st0" d="M29.79.51c4.43.77,8.6,2.67,11.57,6.24-1.28,2.53-2.11,5.07-2.63,7.79-11.61,9.61-12.64,26.96-1.89,37.91h-18.88c-8.15-.01-14.92-6.06-16.88-13.58-2.07-7.94,1.48-16.14,8.51-20.24.05-9.47,6.98-16.68,15.97-18.12h4.22Z"/>
  <path class="st0" d="M102.46.51c9.09,1.45,15.94,8.75,15.98,18.17,5.25,2.92,8.12,8,9.07,13.58v4.22c-1.4,8.97-8.53,15.83-17.87,16.03l-18.48-.02c10.77-10.89,9.79-28.37-1.93-38.01-.42-2.76-1.33-5.25-2.56-7.71,2.97-3.61,7.15-5.44,11.57-6.25h4.22Z"/>
</svg>