<?xml version="1.0" encoding="UTF-8"?>
<svg id="Camada_1" data-name="Camada 1" xmlns="http://www.w3.org/2000/svg" viewBox="0 0 128 128">
  <defs>
    <style>
      .cls-1 {
        fill: #284e32;
      }
    </style>
  </defs>
  <polygon class="cls-1" points="87.89 126.52 44.58 126.52 44.58 97.6 52.87 97.63 66.24 114.15 79.62 97.61 87.89 97.58 87.89 126.52"/>
  <path class="cls-1" d="M37.24,126.52h-11.93v-15.88c-.02-6.87,5.14-12.54,11.93-12.99v28.86Z"/>
  <path class="cls-1" d="M107.16,126.52h-11.92v-28.89c7.01.55,11.96,6.34,11.95,13.26l-.03,15.63Z"/>
  <path class="cls-1" d="M84.9,62.51c0,6.08-3.03,11.58-7.57,14.91-5.19,3.81-11.66,4.71-17.58,2.49-7.35-2.77-12.2-9.76-12.21-17.63v-16.72s37.35,0,37.35,0v16.95ZM70.97,59.84c-.15,2.94-2.36,4.79-4.92,4.71s-4.48-2-4.6-4.72l-7.33.06c.16,7.02,5.75,12.13,12.38,12.02s11.84-5.47,11.77-12.07h-7.3Z"/>
  <path class="cls-1" d="M100.8,38.2H31.72c.35-3.16,1.55-6.22,2.95-9.18h63.13c1.39,2.98,2.42,5.8,3.01,9.18Z"/>
  <path class="cls-1" d="M50.88,83.35v6.91s-12.32-.01-12.32-.01c-2.62,0-5.06.42-7.55,1.25v-45.91s9.17-.01,9.17-.01v16.47c0,8.43,3.81,16.19,10.69,21.32Z"/>
  <path class="cls-1" d="M95,90.27h-13.42s-.01-6.82-.01-6.82c6.49-4.85,10.61-12.21,10.64-20.43l.07-17.48,9.13.04v45.88c-2.12-.58-4.2-1.19-6.42-1.19Z"/>
  <path class="cls-1" d="M48.23,21.68c-.36-2.27-.74-4.35-1.24-6.51,14.57-9.59,34.29-7,45.86,6.49l-44.62.02Z"/>
  <path class="cls-1" d="M40.69,21.36c-3.26-.42-6.06-1.23-8.82-2.5-3.71-1.76-6.58-4.54-8.4-8.23-1.4-2.9-2.25-5.89-2.67-9.15,3.38.4,6.53,1.33,9.53,2.84,3.31,1.73,5.84,4.28,7.55,7.59,1.46,2.94,2.38,5.99,2.8,9.46Z"/>
  <path class="cls-1" d="M74.26,92.56l-8.02,9.92-7.98-9.87.03-5.4c5.31,1.64,10.64,1.6,15.91.02l.07,5.32Z"/>
</svg>