<?xml version="1.0" encoding="UTF-8"?>
<svg id="Camada_1" data-name="Camada 1" xmlns="http://www.w3.org/2000/svg" viewBox="0 0 128 128">
  <defs>
    <style>
      .cls-1 {
        fill: #fff;
      }
    </style>
  </defs>
  <path class="cls-1" d="M118.35,51.1c2.02-.34,4.15.46,4.84,2.48.99,2.91.23,8.37.17,11.52-.32,15.26,1.09,24.35-10.23,35.9-4.17,4.25-14.03,10.65-16.29,15.45-.97,2.05-.71,3.81-1.26,5.72-.51,1.78-3.61,2.17-5.24,2.41-4.44.66-17,1.15-20.47-1.68-1.36-1.11-1.04-3.06-.95-4.67.26-4.97,1.57-13.07,3.95-17.43,3.54-6.48,13.22-11.7,19.11-16.22,2.61-2.01,9.12-8.16,11.86-8.84,5.01-1.24,7.89,2.72,4.9,6.93-3.49,4.92-9.2,9.05-13.5,13.28-.98,1.03-.37,2.86,1.12,2.49.58-.14,2.36-1.58,2.93-2.04,2.76-2.25,6.12-5.48,8.56-8.1,3.94-4.24,8.93-9.77,3.03-14.97-.6-.53-1.67-.67-1.45-1.66.98-3.87,1.66-7.83,2.75-11.67.9-3.13,2.42-8.26,6.18-8.9Z"/>
  <path class="cls-1" d="M18.46,72.39c-5.6,2.91-5.06,7.85-1.54,12.29,2.82,3.55,9.71,10.78,13.42,13.14,2.17,1.37,3.65.19,2.2-1.97-.96-1.43-4.89-4.3-6.4-5.75-1.93-1.84-7.23-7.08-7.98-9.35-.95-2.88.97-5.43,4.02-5.37,3.6.06,8.57,5.12,11.41,7.27,5.79,4.38,17.33,11.35,20.86,17.17,2.88,4.75,4.36,13.75,4.55,19.3.09,2.72,0,3.77-2.72,4.73-4.77,1.68-16.31,1.64-21.19.28-3.54-.98-2.52-2.54-3.17-5.38-1.35-5.92-9.54-10.7-13.89-14.69-8.23-7.53-12.21-12.83-13.05-24.31-.5-6.84-.57-13.87-.68-20.7-.06-3.61-.02-8.53,5.04-7.96,3.82.43,5.43,5.37,6.32,8.53.41,1.44,3.13,12.24,2.78,12.79Z"/>
  <path class="cls-1" d="M63.21,2.93c2.22-.4,4.3,1.66,6.21,2.69,10.9,5.84,22.57,9.1,34.81,10.88,1.45.67,1.7,1.91,1.81,3.37.29,3.97.02,9.47-.24,13.51-1.5,24.05-10.96,41.81-31.8,54.17-1.76,1.04-8.55,4.92-10.17,4.91-1.2,0-7.38-3.42-8.81-4.24-23.15-13.25-32.26-32.34-33.17-58.65-.1-3-.34-7.98,0-10.82.16-1.36,1.11-2.27,2.42-2.53,3.82-.75,7.68-1.1,11.5-2.01,9.78-2.31,18.82-6.18,27.44-11.27ZM63.68,11.77c-10.05,5.96-21.35,9.59-32.9,11.41-.16.1-.38.2-.49.35-.34.48-.23,4.9-.2,5.87.57,21.38,6.43,37.64,24.89,49.48,1.28.82,7.83,4.73,8.86,4.73,1.21,0,7.69-3.84,9.07-4.73,6.96-4.47,13.8-11.28,17.81-18.54,6.14-11.1,7.32-24.41,6.76-36.91-2.6-.9-5.49-1.18-8.22-1.81-8.65-2-17.12-5.19-24.74-9.73l-.83-.13Z"/>
  <path class="cls-1" d="M73.67,19.71c2.06-.25,2.81-.87,4.97-.13,2.5.86,3.22,2.33,4.09,4.69,2.63.76,4.74.86,6.07,3.61.22.45.33,1.47.39,1.53s1.13.18,1.55.37c2.23.97,3.92,4.17,2.58,6.4-.38.63-1.63,1.25-1.79,1.58-.19.39-.06.92-.22,1.36-.66,1.89-2.94,2.57-4.74,2.03-.86-.26-1.49-1.15-2.29-.74-1.1,1.09-2.71,1.74-3.87,2.67-.67.53-1.11,1.34-1.62,1.76-1.77,1.46-3.84,2.03-4.38,4.62-.62,2.99.29,9.51.87,12.66.14.77.58,3.37.86,3.86.41.71,3.1.7,4.06.89s2.39.49,3.25.81c.24.09.38-.11.31.36-5.59,6.01-12.35,10.95-19.88,14.24-7.32-3.26-13.81-8.19-19.5-13.79l5.36-1.5c.21-2,.51-4.15.5-6.16,0-.48-.21-.91-.23-1.34-.08-2.08.38-4.51-1.37-6.06l-6.95-4.31c-1.25,1.04-3.48,1.66-4.8.37-.58-.57-.45-1.42-.73-1.81-.18-.25-.66-.24-.9-.45-1.94-1.7-1.38-3.71.45-5.19.22-.18.67-.17.75-.25.06-.07.17-1.36.33-1.81.9-2.38,3.52-2.13,4.01-2.74.26-.33.21-1.21.45-1.8.83-2.06,3.22-2.51,5.17-2.04,1.29-2.84,3.94-3.36,6.74-2.37l-1.79-.8-1.36-.1c.09-3.26,2.57-5.09,5.64-5.27.45-4.09,3.58-5.86,7.48-4.88.85-.77,1.56-2.02,2.55-2.63,2.7-1.68,6.68-.43,8,2.39ZM68.9,45.86c.39-1.11.61-2.3.46-3.49-.11-.88-2.93-5.55-3.67-5.47l-1.28.42.7,2.22c2.03-.2,3.55,2.06,3.07,3.91-.21.81-1.15,1.17-1.25,1.34-.34.6.31,1.37-.96,2.3-1.17.87-2.67.74-3.92.14-3.24,2.23-7.93,3.88-7.76,8.65.05,1.33,1.52,10.33,2.24,10.81.84.24,1.71.02,2.57.13,1.21.15,3.3.86,4.31.83.27,0,3.47-.95,3.59-1.09.32-1,.55-2.07.73-3.1.5-2.97,1.06-11.93.24-14.52-.53-1.66-1.64-1.74-.4-3.76l1.34.67ZM75.88,38.67c-1.24.06-2.2-.7-3.15-1.35-.6,1.55.13,2.99.45,4.5.46.35,3.05-2.32,2.7-3.15ZM82.17,37.32c-2.43-.13-3.3,2.35-2.36,4.26l3.25-2.16-.89-2.1ZM70.02,40.46c.2-.73.39-1.51.13-2.26-.29-.41-1.64-.14-2.15-.21l2.02,2.47ZM78.8,38.44c-.21-.16-1.51.37-1.79.57-.13.09-2.08,2.08-2.26,2.3-.92,1.12-1.37,2.7-.89,4.1.28.25,3.12-1.76,3.47-2.27.98-1.39.66-3.26,1.48-4.71ZM57.88,48.34c.22.25,2.63-1.37,2.82-1.8l-.79-1.48c-1.7.29-2.13,1.71-2.03,3.28ZM57.42,46.09c-1.09.1-2.05-.14-3.01-.65-1.91,1.47-1.55,4.19-1.04,6.27l3.15-2.81.9-2.81ZM50.9,49.47l.9-3.04-1.87-.53-1.48,1.4,2.46,2.17ZM45.5,49.46c.2-2.81-2.49-3.87-3.14-.91l3.14.91ZM49.77,51.94c.21-2-1.52-3.09-2.47-4.62l-.88.14c-.29,2.67.75,4.02,3.35,4.47Z"/>
</svg>