<?xml version="1.0" encoding="UTF-8"?>
<svg id="Camada_1" data-name="Camada 1" xmlns="http://www.w3.org/2000/svg" viewBox="0 0 128 128">
  <defs>
    <style>
      .cls-1 {
        fill: #fff;
        stroke: #fff;
        stroke-miterlimit: 10;
      }
    </style>
  </defs>
  <path class="cls-1" d="M79.31,12.65l-3.65,2.13c-7.23,5.37-11.05,13.82-11.2,22.77,8.94.22,17.41,2.68,24.89,7.55,34.73,22.67,20.81,72.54-19.13,77.83-29.23,3.87-56.71-20.74-50.43-50.87,3.95-18.99,21.99-33.39,41.18-34.29.17-3.3,1.08-6.52,2.36-9.54.39-.91,2.11-3.73,2.17-4.36.04-.39-.35-.95-.38-1.5-.53-9.25,5.45-14.68,13.98-16.82,2.06-.52,6.41-1.15,8.42-.76.62.12.71.87.76,1.42.93,9.1-4.44,19.65-13.97,21.42-.8.15-4.83.57-5.03-.24-.22-.9,2.84-5.92,3.52-6.93,1.9-2.82,4.17-5.35,6.51-7.79ZM98.53,64.42h-4.04c-1.89,0-3.2-2.17-4.32-2.67-.88-.39-2.38-.47-3.49-.88-.64-.24-2.57-1.44-2.88-1.46-.12,0-2.12.4-2.36.47-1.89.56-1.97,3.27-4.09,3.77-3.18.75-4.49-1.01-3.45-3.99l3.88-.82c.13-.6-2.3-1.92-1.96-2.29.74-.09,1.48-.28,2.18-.56.36-.14,1.02-.22.88-.76-2.09.73-3.91-.31-5.97-.25l-.34-.33c-.24-1.38,1.36-1.67,1.95-2.59.46-.72.17-1.61,1.22-1.63,1.31-.02,1.18,1.02,1.74,1.72.74.92,1.88,1.43,1.63,2.85.82-.75,3.93-2.58,3.95-3.6.02-2.04-2.53-.87-3.4-2.09-1.26-1.76,1.65-2.89,2.07-4.36-1.19-.74-9.6-3.97-10.25-3.49-.06.04-.13.65-.46.96-.5.46-1.82.8-2.47,1.25-1.45,1-1.12,2.12-2.26,3.2-1.46,1.4-3.75,1.39-4.86,2.35-.79.68-1.32,3.15-2.49,3.1-1.62-.08-2.93-3.29-3.13-4.67-.05-.32.19-.72.1-1.22-.32-1.83-2.2-1.37-3.09-2.12-.44-.37-.23-1.81-1.32-1.76-.81.04-3.96,1.48-4.87,1.93-.46.23-1.14.42-1.38.91,1.58-.01,2.51,1.23,3.64,1.93.63.39,2.65,1.04,2.71,1.68-.02.9-1.18,1.3-1.98,1.2l.12,1.76c-1.48,1.06-3.12-.66-4.71-.12.56.53,1.44,1.54,2.17,1.76s1.91-.1,2.31.31c.34.34.5,1.52,1.08,2.2,1.31,1.52,3.31.97,3.59,3.84.24,2.42-1.19,1.75-3.03,1.83l.65-1.75-3.93.22c.38.61.32,1.71.54,2.18.35.73,1.67.16,1.42.76-.68.64-1.61,1.99-2.69,1.61-.68-.24-.22-1.52-2.18-.37-.85.5-1.93,1.59-2.28,2.52-.26.68-.4,2.47-.76,2.85-.94,1.01-3.66.26-3.68,3,0,.87.93,3.72-.71,3.56-1.29-.13-.82-1.42-1.13-2.13-.82-1.91-4.5-.08-6.06-.39-3.24.64-2.39,9.78,2.01,6.82.67-.45,1.15-1.54,2.21-1.31.65.48-.25,2.62.02,3.38l2.29.44c.6,2.09.83,3.24,3.28,3.49,2.61.27,2.23-1.02,3.81-2.04,1.28-.82,1.89.34,3.18.52.96.13,2.7-.2,3.44.05.2.07,1.66,1.98,2.39,2.41,1.54.9,3.51.27,4.67,1.33,1.04.95-.19,3.25,2.18,3.35,2.61.11,4.06-.11,6.62,1.07,3.03,1.39.07,3.39-.33,4.9-.33,1.28.21,2.51-.57,3.8s-2.82,1.16-3.8,2.54c-.87,1.23-.27,2.51-1.84,3.84-.83.7-2.48.95-3.01,1.47s-.48,2-.84,2.55c-.17.25-.85.58-1.19,1-.88,1.06-1.1,2.44-1.53,3.71,14.1,4.08,29.36-.44,39.76-10.48-.61-.86-1.78-1.89-2.22-2.8-.53-1.08-.62-2.72-1.04-3.98-.35-1.05-1.22-2.37-1.44-3.37-.46-2.18,1.39-3.51.09-5.99-.43-.82-1.91-1.97-2.1-2.71-.48-1.9.8-3.39-1.61-4.73-2.67-1.48-3.19-.22-5.57.06-1.12.13-2.9,0-3.98-.34s-3.7-2.93-4.41-3.89c-1.02-1.39-.93-6.01-.09-7.52.69-1.25,2.17-1.77,2.93-2.75s.77-2.2,1.98-3.04,2.11-.55,3.27-.88c1.85-.52,2.98-1.2,5.12-1.23,3.11-.05,1.67,1.56,2.96,2.52.39.29,2.93,1.23,3.39,1.22.79-.02,1.34-.97,2.19-1.1,2.21-.34,5.14,2.05,5.99-1.76ZM38.46,52.41c-.24,2.1,1.1,5.7,3.69,4.24,1.14-.64,1.15-1.97.23-2.81-.37-.33-3.71-1.65-3.92-1.43ZM24.04,79.5l-.44.11c.28,2.54.42,5.06.94,7.58,2.76,13.36,12.95,24.5,25.71,29.01l-1.73-8.86c-.3-1.89,1.04-2.86-.14-4.67-.96-1.48-2.93-1.56-3.93-2.62-.64-.68-1.13-2.1-1.85-2.95-1.4-1.65-3.01-1.67-2.35-4.55.17-.72,1.13-1.27,1.22-2.28.21-2.27-2.36-2.25-3.74-2.94-1.13-.56-2.02-1.74-3.12-2.34-4.18-2.27-6.61-1.02-10.36-4.95-.16-.17-.19-.52-.22-.54Z"/>
  <path class="cls-1" d="M61.4,26.85c-.29.31-1.64-1.74-1.85-1.97-2.97-3.25-6.73-6.21-11.03-7.42,4.04,3.43,8.7,6.83,10.92,11.79-8.2,2.27-15.35-2.95-18.39-10.33-.57-1.38-2.25-7.15-1.22-8.18,3.13-.65,6.63-.24,9.74.53,7.62,1.89,13.71,7.03,11.83,15.58Z"/>
</svg>