<?xml version="1.0" encoding="UTF-8"?>
<svg id="Camada_1" data-name="Camada 1" xmlns="http://www.w3.org/2000/svg" viewBox="0 0 128 128">
  <defs>
    <style>
      .cls-1 {
        fill: #fff;
      }
    </style>
  </defs>
  <path class="cls-1" d="M81.84,107.48c-.41-5.6-2.21-10.82-5.73-15.2,1.41-5.08,2.72-10.87,2.33-16.17-.05-.69-.31-2.66-.73-3.1-.61-.63-3.17-1.77-4.14-2.45-3.25-2.28-5.76-5.47-7.67-8.92l-2.14-.46-2.49-14.27c-.59-1.8-1.7-3.17-3.27-4.22,1.21-2.69,2.34-5.11,2.75-8.08.35-2.55.47-8.43-1.13-10.5-.84-1.09-1.78-.9-2.66-1.69,2.7-1.62,5.77-2.52,8.93-2.23.84-1.18,1.28-2.38,2.23-3.52,7.57-9.16,24.23-7.35,29.03,3.73,2.29.12,4.23.02,6.44.79,5.1,1.8,8.7,6.59,8.68,12.06,14.8,1.26,18.5,21.73,4.4,27.48-1.65.67-4.69.85-5.68,1.34-.23.11-2.78,3.39-3.29,3.94-2.26,2.42-4.92,4.92-7.57,6.89-.99.73-5.44,3.32-5.68,4.11-.14.44-.23,1.74-.27,2.28-.45,7.04.27,19.87,6.29,24.58,2.25,1.75,5.05,1.62,6.91,3.62h-25.53ZM88.86,60.47c-3.5-.14-6.85-1.23-9.89-2.9-2.32,1.41-4.71,2.69-7.34,3.43,4.53,4.6,14.79,7.66,17.23-.53ZM94.86,59.88c-.6,2.92-1.75,5.71-3.43,8.17l.31.51c4.92-1.59,9.59-4.02,13.71-7.13-2.01-.89-3.94-1.87-5.67-3.25l-4.92,1.7Z"/>
  <path class="cls-1" d="M27.49,86.72c3.25,3.25,6.26,7.49,10.32,9.79,2.05,1.16,2.25,1.32,4.38.16,4.12-2.25,7.37-6.63,10.59-9.95,7.52,1.95,18.74,4.54,22.43,12.17,1.91,3.96,2.72,9.35,2.48,13.7-.92,1.38-20.2,3.8-22.99,4.03-14.68,1.2-32.99.7-47.33-2.66-1.07-.25-4.47-.82-4.8-1.8-.23-.7.05-3.04.14-3.92.94-8.71,3.26-13.43,11.32-17.19,4.27-1.99,8.88-3.26,13.45-4.34Z"/>
  <path class="cls-1" d="M64.39,78.75c-2.52,1.38-5.31,2.3-8.19,2.56-1.1.1-2.55-.18-3.57.05-.7.16-2.14,1.37-2.91,1.77-6.35,3.3-11.38,4.01-18.02.78-1.14-.55-3.15-2.21-4.1-2.49-1.28-.38-4.1-.07-5.81-.36-2.19-.38-4.34-1.35-6.33-2.29,3.19-8.51,4.72-17.58,5.84-26.6,11.9-4.05,25.19-3.95,37.13-.1l.18.24c1.05,8.98,2.73,17.94,5.77,26.44ZM25.89,62.6v3.08l8.18,2.03c.57.04,1.35-2.43,1.32-2.67-.03-.3-.44-.43-.68-.52-2.59-.94-6.1-1.25-8.82-1.92ZM53.5,62.64l-8.68,1.98c-.56.42.31,2.9.78,3.06.26.09.52.04.79.01.69-.06,6.94-1.49,7.24-1.7.38-.27.74-3.01.35-3.3-.17-.13-.31-.07-.48-.05ZM32.88,72.57c.09-.71,1.23-2.49.58-2.96l-6.83-1.06c-.28.49.01,3.05.54,3.31.41.2,5.47.87,5.71.71ZM53.33,68.55c-.24-.24-6.54.75-6.81.95-.69.52.46,2.34.45,3.07l6.12-.86.24-3.16Z"/>
  <path class="cls-1" d="M43.33,41.96l2.53.19c.98-4.8,1.96-9.3,5.45-12.95.69-.72,4.31-3.78,5.23-3.1.85,2.97.68,6.49.14,9.53s-2.43,5.68-3.77,8.46c2.17.61,4.32,1.93,4.89,4.26-11.46-3.69-24.28-3.75-35.73,0,.12-2.3,2.72-3.64,4.68-4.26-2.45-3.95-4.31-7.65-4.48-12.43-.03-.86.12-4.68.54-5.23,1.22-1.61,5.7,2.98,6.49,3.94,2.67,3.27,3.71,7.5,4.35,11.6.39.57,2.04-.13,2.67-.01-.58-4.1-2.23-8.21-1.43-12.38.58-3.02,2.39-7.13,4.94-8.9,1.34,0,3.9,5.71,4.3,6.98,1.61,5.13-.13,9.22-.79,14.3Z"/>
</svg>