<?xml version="1.0" encoding="UTF-8"?>
<svg id="Camada_1" data-name="Camada 1" xmlns="http://www.w3.org/2000/svg" viewBox="0 0 128 128">
  <defs>
    <style>
      .cls-1 {
        fill: #fff;
      }
    </style>
  </defs>
  <path class="cls-1" d="M31.41,85.33c.69.69-1.06,2.97-1.22,4.03-.12.76-.01,1.54-.04,2.3,2.21-1.78,5.33-3.26,8.19-3.54.82-.08,2.32-.24,2.74.59.46.91.89,2.83,1.31,3.94.4,1.04.93,2.05,1.41,3.05-.08.22-.26.34-.47.42-1.76.65-4.31.88-6.24,1.46-12.76,3.82.96,6.31,5.63,7.33,2.28.5,4.68.72,6.92,1.34.59.16,2.21.49,1.26,1.38-.84.79-4.83.94-6.16,1.17l-2.39.7c3.45.44,6.93.93,10.41,1.14,6.73.39,15.18-.56,21.58.58,1.59.28,3.47.76,2.56,2.79.4.28,3.9-1.11,4.45-1.46,2.95-1.95-3.14-2.53-4.3-2.9-.63-.2-1.56-.52-1.44-1.33.15-.51,2.53-1.09,3.1-1.23,6.46-1.55,22.69-2.51,26.82-7.53,1.41-1.71.4-2.1.73-3.39.31-1.22,2.28-.12,2.83.58,2.56,3.34-1.62,6.82-4.4,8.15-4.78,2.29-10.56,2.94-15.77,3.67-.04.33.43.18.65.19,2.34.1,7.88-.05,9.66,1.61,2.54,2.35-5.17,4.9-6.52,5.29-7.44,2.15-15.65,2.08-23.32,2.87.08.37.39.32.66.37,4.73.92,8.29.54,12.94.37.91-.03,4.79-.41,4.35,1.14-.84,1.18-2.65,1.64-4.02,2.01-6.91,1.87-24.92,2.07-31.14-1.61-3.33-1.97.77-2.36,2.47-2.47,2.72-.17,5.54-.03,8.27-.18.7-.04,1.4-.32,2.15-.2l-.35-.82c.14-.31.43-.46.72-.59,1.89-.86,5.58-.95,7.85-1.73,1.31-.45,2.18-1.29.13-1.19-2.68.13-5.3.46-8.07.57-10.19.39-27.69-.05-37.26-3.27-.74-.25-4.78-1.61-3.48-2.74,1.49-1.29,9.78-.05,12.22-.37.27-.03.58-.14.28-.37-4.51-.28-9.14-.87-13.52-1.97-2.5-.63-7.1-1.98-8.71-4.05-2.41-3.1,3.84-2.28,5.34-1.68-1.58-1.22-3.64-2.04-4.66-3.88-.68-1.23-.94-3.58.89-3.73.62-.05,1.22.94,1.73,1.3,1.39,1.01,3.01,1.74,4.68,2.17-1.6-2.25-3.61-4.43-3.39-7.42.08-1.1.48-2.36,1.8-1.6l4.21,5.45c0-2.18,1.12-4.37,2.83-5.71.6-.47,2.47-1.67,3.13-1ZM34.08,94.48c1.07-.14,2-.49,2.81-1.22.03-.73-3.2.16-2.81,1.22ZM89.47,112.31c-.9,0-2.14.07-2.63.94.81.02,2.4.08,2.63-.94Z"/>
  <path class="cls-1" d="M90.22,63.88l-4.51,18.12c-.71.78-9.44,2.19-10.98,2.35-7.61.75-16.82.63-24.35-.62-2.53-.42-5.21-.99-7.57-2-2.04-5.93-3.21-12.18-4.58-18.32l.38-.2c3.94,2.02,8.32,2.9,12.69,3.46,7.38.94,16.96.99,24.38.4,4.95-.39,9.98-1.25,14.55-3.19ZM51.92,78.89c-2.23-4-4.75-9.08-9.2-10.89-.08.34.12.52.25.78,1.29,2.42,6.06,9.24,7.91,11.24,1.36,1.47,1.68.93,3.01-.37,1.98-1.93,4.87-5.4,6.65-7.61.16-.2,1.45-1.85,1.32-1.96-2.77.32-5.22,3.09-6.94,5.17-.69.84-1.93,2.95-2.53,3.47-.16.14-.21.24-.47.18ZM65.25,70.07l1.42,2.24c2.58,2.63,4.59,6.41,7.3,8.84.17.15.5.39.73.34l2.18-2.13,8.45-10.51c-.23-.29-.23-.28-.57-.2-3.38.85-8.3,7.74-9.95,10.81l-.39-.12c-2.15-3.59-4.96-8.02-9.18-9.27ZM51.68,70.12c-2.95.61.21,4.34.68,4.26.93-.91,2.61-2.14,1.71-3.55-.52-.8-1.51-.89-2.39-.71ZM74.02,70.3c-2.72.62-.1,4.51.86,4.26.32-.08,1.63-1.61,1.79-1.98.81-1.84-1.07-2.64-2.65-2.28ZM44.64,77.63c-.76.77.51,1.71,1.1.99.43-.52-.48-1.63-1.1-.99ZM82.43,77.65c-.43-.05-1.06.56-1.33.88v.37c.27,1.1,1.41.11,1.84-.44.26-.26-.33-.79-.52-.82ZM63.13,78c-.64.15-1.11.79-1.21,1.4.27,1.16,1.32,1.7,2.44,1.14,1.57-.78.58-2.96-1.23-2.54Z"/>
  <path class="cls-1" d="M78.34,4.6c.56.46,1.27,3.91,1.34,4.76.36,4.09-1.11,7.14-3.36,10.39l5.16-2.63c.06-2.42.21-5.36,1.97-7.23.54-.57,1.52-.97,2.07-1.5.95-.9,1.79-3.39,3.43-2.88,1.55.47.04,4.99-.47,6.03-.71,1.45-1.87,2.58-2.78,3.88l2.39-.8c1.6-3.92,6.5-6.9,10.53-7.78,7.31-1.59,3.26,2.79.5,5.2-2.6,2.28-6.72,5.03-10.33,4.52-.51-.07-.69-.44-1.25-.36-.74.11-3.88,1.58-4.78,2-1.42.66-2.73,1.54-4.19,2.1-.04.33.64.2.83.17.94-.16,1.96-.64,2.92-.84,4.34-.89,8.6-.56,12.38,1.9,1.26.82,2.43,1.8.39,2.61-4.01,1.59-10.9,1.78-14.77-.24-.63-.33-2.01-1.55-2.45-1.68-.28-.09-1.69-.25-1.98-.2-.93.17-5.05,2.94-6.13,3.64-1.53,1-3.2,2.03-4.52,3.27,2.04-.51,3.7-1.84,5.74-2.43,4.39-1.28,9.03-.47,12.83,1.97,4.16,2.67,1.33,3.39-1.98,3.81-1.64.21-3.29.25-4.95.21.28.47,1.16.36,1.52.83.79,1.05-1.7,1.43-2.41,1.56-2.59.45-5.9.2-8.1-1.37-1.44-1.03-2.24-3.12-4.4-2.89s-5.31,4.97-6.82,5.21c-.24.04-.46-.03-.67-.14-1.13-1.61,1.96-2.74,2.13-4.04.33-2.4-1.02-2.6-1.86-4.35-1.89-3.92.06-8.35,1.02-12.27,1.98-2.17,3.11,2.33,3.51,3.79.85,3.08,1.03,5.17-.15,8.21-.53,1.36-1.66,2.38-1.12,3.95l5.32-4.25c.5-2.74-1.26-4.8-1.47-7.48s1.4-8.53,3.11-10.78c2.27-2.97,3.67-.2,4.3,2.24,1.52,5.84-1.18,10.06-4.22,14.74l.28.09c.95-1.09,6.73-3.86,7.14-4.69.44-.91-.57-3.26-.66-4.41-.24-2.87,1.34-7.76,2.54-10.42.4-.89,1.31-2.42,2.48-1.45ZM83.08,15.44c1.79-1.95,3.74-4.19,3.94-6.95-1.8,2.08-3.81,3.98-3.94,6.95ZM77.26,8.68c-.57-.1-.29.17-.39.44-.79,2.07-1.57,3.96-1.67,6.22l.37,2.16c.33-.86.8-1.7,1.08-2.59.15-.5.62-2.18.62-2.58v-3.66ZM97.73,9.81c-1.34.26-2.85.99-4,1.72-.27.17-2.72,1.87-2.38,2.22,2.33-.95,4.57-2.17,6.38-3.94ZM66.37,22.2c1.59-3.87,2.67-7.37,1.88-11.64-.53.61-.85,1.73-1.13,2.53-1.03,2.93-1.47,5.34-1.13,8.46.03.28.04.58.38.65ZM58.86,27.26l.38-4.79-.76-3.28c-.73,2.71-.8,5.1,0,7.8.08.27-.11.33.38.27ZM92.66,22.95c-.05-.32-.37-.33-.61-.43-1.88-.8-3.88-.99-5.88-1.27l-5.72.57,2.63,1.03c3.14.78,6.4.52,9.58.09ZM79.33,28.77c-2.33-1.06-4.82-1.16-7.32-.75.48.68,1.75.31,2.53.38,1.39.12,2.8.38,4.19.51.21.02.64.22.6-.13ZM81.39,30.46c-.53-.03-1.07.05-1.59,0-3.11-.29-6.25-.84-9.38-.94-.99-.03-2.45-.18-3.29.29,3.22.74,6.14,2.44,9.48,2.72l-.28-.47c1.33-1.09,3.18-.93,4.78-1.23.31-.06.32.12.28-.37ZM72.76,32.9l-3.19-.94c.48.77,2.05,1.27,2.91,1.31.37.02.29-.04.28-.38Z"/>
  <path class="cls-1" d="M85.15,83.59c.36.5-3.54,10.22-4.16,11.52-4.19,8.87-8.31,10.77-18.09,10.45-5.87-.19-10.68-1.27-13.83-6.63-2.79-4.75-4.31-10.39-5.98-15.61l6.79,2.41c7.97,1.67,16.93,2.05,25.01.85,3.47-.52,7.11-1.46,10.26-2.98ZM52.86,91.29c.15,3.6,2.42,6.46,5.53,8.07.32-.22.23-.28.21-.57-.17-2-1.81-4.44-3.3-5.72l-2.44-1.78ZM75.38,91.66c-.32-.35-3.59,2.68-3.94,3.1-1.09,1.34-1.86,3.06-2.07,4.78,3.23-1.41,5.68-4.32,6.01-7.88ZM64.21,91.85c-1.75,2.32-2.11,5.96-.19,8.25,1.75-2.18,1.9-6.02.19-8.25Z"/>
  <path class="cls-1" d="M91.72,52.8c.33.39-.86,9.13-1.26,9.39-4.12,1.45-8.57,2.06-12.91,2.44-10.87.95-25.16.68-35.8-1.75-.8-.18-2.83-.65-3.42-1.08-.5-.37-.71-2.57-.83-3.3-.34-2.11-.56-4.33-.5-6.44,3.82,3.86,10.21,4.91,15.42,5.6,9.07,1.21,29.64,1.49,37.41-3.46.71-.45,1.15-1.11,1.89-1.39ZM43.79,58.47c-1.75.38.09,2.84,1.88,2.07,1.62-.69-.64-2.34-1.88-2.07ZM84.72,58.67c-1.21-.01-3.65,1.5-1.83,2.11,2.14.73,3.98-2.09,1.83-2.11ZM58.63,60.35c-.23.02-1.07.34-1.18.52l-.1.47c.1,1.04,2.55,1.11,3.12.29.44-.82-1.22-1.33-1.84-1.28ZM51.49,60.53c-.22.07-.35.28-.51.43.31.39.81.66,1.32.58,1.51-.24.33-1.36-.81-1.01ZM70.45,60.54c-.42.1-.81.48-1.06.83.3,1.19,2.93.99,2.81-.21-.17-.7-1.14-.76-1.76-.62ZM76.27,60.72c-1.2.37.4,1.52,1.18.43.12-.52-.83-.54-1.18-.43Z"/>
  <path class="cls-1" d="M41.22,27.27c.81-.25-.11-2.26.87-1.91,1.83.64,2.94,3.53,3.26,5.29l.56-1.31c.15-.01.29-.02.44.03.66.23,3.19,3.34,3.6,4.1,1.68,3.06.85,5.64,1.59,8.83.55.43.98-3.61.94-3.94,1,.71,1.82,2.2,2.16,3.38.78,2.76-.56,3.95,1.97,6.29.83.77,2.51,1.33,2.46,2.63,0,.2,0,.44-.19.57-1.27.89-4.57-2.65-6.01-3.02-1.16-.3-2.73.02-3.99-.14-1.59-.2-3.87-1.08-5.27-1.87-.78-.44-4.88-3.39-4.26-4.28.34-.22,1.27.04,1.12-.57-3.24-.85-5.57-3.14-7.39-5.84-.53-.78-1.29-1.62-1.24-2.61l2.44.09c-2.76-2.16-5.41-5.93-5.08-9.58.17-1.93,1.33-3.2,3.29-3.29,3.61-.17,7.86,3.76,8.74,7.14ZM53.61,46.98c.08-.35-.2-.44-.37-.66-2.75-3.35-7.14-6.52-10.23-9.85-3.28-3.54-5.98-7.57-9.29-11.08,1.76,4.44,4.75,8.23,7.69,11.92-.54.13-.97-.22-1.58-.29-.13-.02-1.65-.15-1.42.29.71.95,2.89.11,3.43.46l4.83,4.99c.06.39-.05.22-.25.3-.53.2-1.11.13-1.66.22-.2.03-.75.05-.71.32.61.09,1.19.47,1.8.55.67.09,1.8-.19,2.15-.09.62.17,2.5,1.97,3.43,2.4.33.15,2.02.68,2.19.53ZM43.09,31.77c-.37.54-.11,3.18.65,3,.83-.19.47-3.01-.65-3Z"/>
  <path class="cls-1" d="M42.53,46.79c-5.24,2.87,1.76,4.5,4.28,5.02,7.44,1.54,15.66,1.6,23.22,1.36,4.82-.15,11.47-.19,15.92-2.1,1.98-.85,3.25-1.93.95-3.49-4.84-3.29-21.15-3.78-27.2-3.61-1.08.03-2.3.38-3.46.19l-.57-2.62c1.06-.35,2.19-.13,3.28-.19,7.8-.43,23.55-.09,30.2,4.17,2.21,1.41,4.19,4.58,1.61,6.62-5.69,4.48-24.92,4.01-32.17,3.67-4.75-.22-18.15-.95-21.32-4.59-1.73-1.99.66-5.36,2.74-6.11l2.52,1.69Z"/>
  <path class="cls-1" d="M96.36,96.97c-.35-.34-2.38-.89-2.99-1.05-2.57-.69-5.25-.98-7.85-1.53-.49-.31.51-1.64.88-1.75.33-.09,1.97-.23,2.4-.24,2.73-.02,11.03,1.23,12.58,3.59.72,1.1.4,2.17-.45,3.1-2.52,2.73-14.2,3.68-17.67,2.82-1.58-.39-.41-1.22.57-1.52,2.37-.71,11.29-1.4,12.6-2.81.21-.16.06-.49-.07-.62Z"/>
  <path class="cls-1" d="M109.23,32.19c-.62.6-1.49,4.83-2.02,4.83-1.03-1.33-.99-3.18-1.69-4.69-.43-.52-3.37-.99-4.22-1.41-.21-.1-.64-.24-.56-.56.12-.48,3.98-1.19,4.6-1.6.57-.61,1.56-4.87,2.07-4.88,1.15.98.93,3.97,1.87,4.89.78.77,3.47.76,4.42,1.59.22.97-3.86,1.25-4.46,1.83ZM107.66,29.91c-.3-.22-1.29.2-1.03.74.5,1.02,1.68-.27,1.03-.74Z"/>
  <path class="cls-1" d="M100.35,38.72c.06.39.02.3-.23.42-.81.36-2.92.57-3.43,1.07s-1.11,3.77-1.68,3.76l-1.45-3.9c-.59-.38-3.72-.66-3.71-1.45l3.48-1.22c.65-.4,1.22-3.91,1.87-3.76.47.11,1.09,3.22,1.51,3.75l3.66,1.32Z"/>
  <path class="cls-1" d="M43.65,99.18c.05.05-.08.58.28.94.25.25,3.99,1.25,1.62,1.97-1.31.4-5.39-.05-6.68-.66s-.52-1.45.48-1.79c.55-.19,4.09-.69,4.31-.46Z"/>
  <path class="cls-1" d="M53.04,24.07c-2.45,0-1.2-4.76.09-4.51.65.13-.04,1.88-.09,2.35-.08.69.05,1.46,0,2.16Z"/>
  <path class="cls-1" d="M49.79,12.64c.95-.08.25,3.14-.41,3.54-1.11-.87-.84-2.97.41-3.54Z"/>
  <path class="cls-1" d="M105.75,12.48c1.05-.18,3,.48,1.62,1.25-1.53.85-4.07-.83-1.62-1.25Z"/>
  <path class="cls-1" d="M101.25,13.41c.39-.06.72-.14.99.24.15.7-2.23,1.5-2.77,1.55-.9.08-.52-.59-.04-.99.29-.24,1.45-.76,1.82-.81Z"/>
  <path class="cls-1" d="M65.2,34.07l.21.59c-2.08,1.67-3.12-1.55-.21-.59Z"/>
  <path class="cls-1" d="M66.79,37.18l-.14-.53c.77-.55,1.57-.78,2.16.12-.26,1-1.26.54-2.01.41Z"/>
  <path class="cls-1" d="M28.5,51.25c-.57-.57-.06-1.39.78-1.27,1.45.21.11,2.17-.78,1.27Z"/>
  <path class="cls-1" d="M101.99,44.76c1.09-.32,1.07,1.17.12,1.25-.63.05-.91-1.02-.12-1.25Z"/>
  <path class="cls-1" d="M49.57,17.5c.7-.14.91,1.58.37,1.69-.7.14-.91-1.58-.37-1.69Z"/>
  <path class="cls-1" d="M90.72,27.48c1.02-.29,1,.9.3,1.08s-1.16-.83-.3-1.08Z"/>
  <path class="cls-1" d="M46.19,17.88c.61-.17,1.17.94.56,1.31-.7.2-1.13-1.15-.56-1.31Z"/>
  <path class="cls-1" d="M22.65,42.83c-.39-.28-.04-1.3.63-1.11.73.2.08,1.62-.63,1.11Z"/>
</svg>