<?xml version="1.0" encoding="UTF-8"?>
<svg id="Camada_2" data-name="Camada 2" xmlns="http://www.w3.org/2000/svg" viewBox="0 0 128 128">
  <defs>
    <style>
      .cls-1 {
        fill: #fff;
      }
    </style>
  </defs>
  <g>
    <path class="cls-1" d="M60.25,91.3c-.03,1.38.04,2.77,0,4.15-.11,4.34-.38,9.04-.71,13.4-.36,4.72-.87,9.48-1.92,14.1-.14.2-.6.12-.82.11-.96-.04-6.71-.85-7.06-1.41-.1-.15-.1-.24-.06-.41.08-.28,1.4-1.74,1.71-2.18,2.96-4.31,5.97-9.78,3.87-15.1-.28-.7-1.17-1.8-1.07-2.38.22-1.42,2.61-6.29,3.44-7.68.59-.99,1.42-2.34,2.61-2.59Z"/>
    <path class="cls-1" d="M62.37,35.91c-.27.05-.41-.03-.62-.17-.62-.4-2.65-2.59-3.26-3.27-.4-.44-2.09-2.36-2.21-2.73-.36-1.12,1.08-2.1,1.49-3.11.27-.66.24-1.23-.57-.75-1.16.68-1.68,2.75-3.03,1.39-.48-.49-1.79-2.1-1.33-2.75.71-.47,3.64-4.35,4.01-4.47.65-.22,1.68,1.22,2.17,1.66.75.66,2.97,2.28,3.31,3.04.38.85.25,3.16.23,4.19,0,.42-.18.8-.19,1.22-.03,1.91.04,3.83,0,5.74Z"/>
    <path class="cls-1" d="M31.62,22.35c1.18.6,4.56.2,5.34.77.28.2,2.11,3.41,2.39,3.96.16.32.59.93.36,1.25l-10.15,1.85c-.41-.43-1.62-1.42-1.51-2.05.1-.51,1.3-1.98,1.65-2.58.32-.55,1.52-3.11,1.92-3.2Z"/>
    <path class="cls-1" d="M49.27,6.32c1.36-.17,1.56.12,2.14,1.3.41.83,1.97,5.59,1.97,6.34,0,.19,0,.41-.17.53-.48.32-3.05.18-3.79.27-.6.07-1.37.64-1.93.32-1.01-.57-2.96-5.54-3.98-6.62-.06-.38.98-.65,1.3-.78,1.13-.43,3.32-1.22,4.46-1.36Z"/>
    <path class="cls-1" d="M62.72,21.01l-.41.24c-2.24-1.15-4.34-3.34-5.62-5.5-.42-.71-1.61-2.95-1.29-3.64.09-.19,2.86-2.63,3.09-2.74.14-.06.26-.13.42-.1l3.8,3.27v8.47Z"/>
    <path class="cls-1" d="M28.28,32.94c.67-.07,2.3,2.19,2.76,2.81.79,1.08,2.22,3.14,2.77,4.29.44.93-.53,1.01-1.25,1.24-1.28.41-2.73.69-4.06,1.06-.77.22-3.14,1.49-3.49.32-.31-1.05.83-4.42,1.12-5.69.38-1.71-.08-3.8,2.16-4.04Z"/>
    <path class="cls-1" d="M38.87,29.97c.56-.05,1.64-.21,2.08.11.16.12,1.89,3.11,2.03,3.45.06.14.24.24.08.44-.33.67-2.76.92-3.59,1.19s-4.16,1.75-4.62,1.56c-.46-.71-3.82-4.37-3.86-4.8-.02-.24.16-.37.33-.49.56-.41,6.48-1.36,7.55-1.45Z"/>
    <path class="cls-1" d="M24.09,71.01c-.24.36-6.69.52-7.67.53-.88.01-1.77.56-2.42-.58l-1.89-4.6c.08-.29,3.25-1.74,3.68-1.81.64-.1,2.92,1.61,3.59,2.08,1.01.71,2.3,1.63,3.2,2.44.34.3,1.76,1.54,1.5,1.93Z"/>
    <path class="cls-1" d="M41.68,17.07c.28-.04,4.36,1.41,4.63,1.65.24.23,2.15,3.96,2.13,4.22-.01.16-.08.25-.17.37-.47.64-4.05.86-5.01.99-.57.08-2.19.55-2.5.34-.37-.24-2.38-3.41-2.37-3.82.65-.69,2.55-3.64,3.3-3.76Z"/>
    <path class="cls-1" d="M35.38,70.66h-7.32c-1.02-.67-2-1.41-2.91-2.2-.36-.31-1.77-1.44-1.77-1.77,0-.47,3.18-3.62,3.98-3.79.32,0,4.04,3.35,4.59,3.87.73.69,2.82,2.57,3.27,3.26.14.22.22.35.17.63Z"/>
    <path class="cls-1" d="M51.03,72.81c.6-.09,3.22,2.1,3.84,2.62,1.42,1.2,3.2,2.84,4.42,4.23,1.01,1.15,2.02,2.16,1.33,3.81-.49.36-2.14-.78-2.64-1.09-3.31-2.01-6.37-4.7-9.73-6.68-.26-.28-.18-.45,0-.73s2.51-2.13,2.78-2.17Z"/>
    <path class="cls-1" d="M44.14,35.79c.2.17,1.74,2.53,1.86,2.82.3.72-.32,1.05-.84,1.53-1.37,1.26-3.09,2.19-4.4,3.54-.14.15-.3.2-.5.15-.57-.15-3.28-4.34-4.09-4.92l-.07-.77c.14-.39,3.92-1.6,4.57-1.79.71-.2,2.96-.99,3.47-.57Z"/>
    <path class="cls-1" d="M7.71,49.11c-.41-.66,1.14-4.67,1.55-5.54,1.27.63,3.14.79,4.34,1.32s2.63,4.49,2.82,5.82c.07.49.33,1.55-.36,1.6l-8.35-3.21Z"/>
    <path class="cls-1" d="M25.27,96.98c.49-.1.83,0,1.18.34.21.2,2.21,3.26,2.3,3.52.08.21.14.33.07.57-.08.29-2.73,1.54-3.27,1.86s-2.94,2.04-3.28,1.95c-.44-.12-3.74-4-3.57-4.39,1.98-1.6,4.39-2.56,6.57-3.85Z"/>
    <path class="cls-1" d="M48.74,24.84c1.47-.09,2.51,2.49,3.21,3.55-.06.38-5.65,3.89-6.56,3.97-.8-.2-3.23-5.01-3.47-6.05.11-.35,2.81-.58,3.38-.69.97-.19,2.62-.73,3.45-.79Z"/>
    <path class="cls-1" d="M20.33,57.13c.33.39.21.67.03,1.07-.25.54-3.06,4.04-3.45,4.15-.52.14-4.66-1.75-4.79-2.22-.18-.66,1.31-4.68,1.26-5.74l.43-.46,6.53,3.2Z"/>
    <path class="cls-1" d="M25.98,49.36c.34-.04.67-.1,1.01-.04.21,0,.32.16.46.25.24.16,2.82,2.74,2.91,2.92.2.43,0,.65-.4.83l-8.42,1.29c-.92-.06-2.94-1.15-3.28-2.02-.2-.52-.4-1.47.23-1.73l7.5-1.5Z"/>
    <path class="cls-1" d="M44.64,77.1c.23,0,.39.09.59.2.38.2,3.41,2.3,3.64,2.54.18.19.32.28.24.59-.14.27-.39.44-.6.65-.57.54-4.04,3.38-4.54,3.57-.64.24-2.43.02-2.86-.57-.4-.56-.95-4.17-.76-4.81s3.61-2.18,4.29-2.16Z"/>
    <path class="cls-1" d="M30.75,102.8c.15-.02.31-.07.46-.02.38.13.6,2.69.76,3.31s.86,1.93.74,2.37c-.74.6-2.92,2.9-3.76,2.78-.34-.05-3.53-2.66-3.98-3.09-.63-.6-1.29-.96-.53-1.77.58-.62,5.55-3.48,6.31-3.58Z"/>
    <path class="cls-1" d="M61.31,76.31c-.2.23-3.09-2.03-3.43-2.3-.64-.5-4.04-3.27-4.24-3.7-.17-.37-.06-.5.05-.83.16-.49,1.64-3.16,1.98-3.31.21-.1.35-.13.58-.06.27.08,3.64,3.15,4.01,3.59,1.87,2.19,1.15,3.95,1.05,6.62Z"/>
    <path class="cls-1" d="M7.27,73.52l7.65.4c.24.15-.16,2.16-.24,2.6-.16.89-.32,1.8-.73,2.62-.44.44-5.62.54-6.09.08-.31-.31-1.05-3.99-1.06-4.59-.01-.48-.04-.91.48-1.1Z"/>
    <path class="cls-1" d="M20.85,23.93c.45-.08,4.63,4.65,5.17,5.37.74.98,1.99,2.24-.1,2.53-1.75.24-4.2-.21-5.7-1.15-.32-.2-2.68-2.03-2.76-2.19-.07-.13-.11-.25-.05-.4l3.44-4.18Z"/>
    <path class="cls-1" d="M34.81,42.12c.21-.07.37-.04.56.05.37.17,2.48,2.88,2.45,3.18l-6.29,3.58c-.2.07-.38.02-.58-.04-.66-.2-3.15-3.44-3.86-4.1l.06-.42,7.65-2.25Z"/>
    <path class="cls-1" d="M41.68,50.93c.62-.1.81.28,1.19.68.98,1.03,1.82,2.66,2.74,3.79,0,.39-3.13,2.89-3.65,3.23-.26.17-.48.42-.84.39-.5-.04-4.73-4.16-4.67-4.48l5.24-3.61Z"/>
    <path class="cls-1" d="M55.26,41.59c1.11-.17,5.71,3.24,6.84,4.03.17.37.17,4.74.1,5.39-.14,1.25-1.15.19-1.69-.27-1.89-1.59-3.48-3.78-5.19-5.57-.37-.39-1.55-1.21-1.69-1.5-.22-.49,1.12-2,1.63-2.08Z"/>
    <path class="cls-1" d="M37.14,116.7l5.11-6.79c.59-.42,3.48,1.55,3.62,1.86.07.15.1.25.09.42-.03.45-3.85,6.19-4.24,6.37-.93.43-3.56-1.56-4.58-1.86Z"/>
    <path class="cls-1" d="M23.6,56.24l8.13-1.45c.73-.23,3.33,2.42,3.28,2.71-.1.2-.29.31-.46.43-.87.6-3.67,2.17-4.64,2.59-1.14.5-1.32.02-2.25-.59-.53-.35-4.2-2.89-4.25-3.15l.19-.55Z"/>
    <path class="cls-1" d="M12.35,36.27c2.18,1.6,4.55,3.1,6.6,4.86.27.23.66.49.72.86-.07.3-3.8,1.39-4.37,1.46-1.35.17-2.02-.06-3.21-.58-.54-.24-1.85-.83-1.95-1.41s1.92-5.17,2.21-5.19Z"/>
    <path class="cls-1" d="M19.9,82.54c.43-.34,1.05-.25,1.54-.14,1.16.26,4.5,1.92,5.76,2.53.5.24,1.05.46,1.46.82,0,.36-2.42,1.49-2.88,1.71-.61.28-2.75,1.27-3.25,1.35-.23.04-.35.03-.58-.04-.4-.12-3.4-2.95-3.49-3.41-.13-.63.97-2.45,1.43-2.82Z"/>
    <path class="cls-1" d="M22.68,80.19l-7.16-.88c.34-1.03.35-4.49.88-5.14.21-.26.4-.31.71-.35.71-.09,2.89-.24,3.55-.18.25.03.5-.02.71.17.42.32,1.54,6.13,1.31,6.37Z"/>
    <path class="cls-1" d="M25.3,47.89c-.35.57-6.44,1.48-7.45,1.77l-2.03-4.48c1.04-.37,4.44-2,5.31-1.82.28.06.45.25.66.41.4.3,3.16,3.02,3.36,3.35.13.22.28.56.14.78Z"/>
    <path class="cls-1" d="M6.98,51.08c.23-.2,4.72,1.74,5.21,2.29.15.3-.88,5.21-1.14,5.75-.28.58-.52.47-1.12.38s-3.53-1.45-3.75-1.9c-.49-1.01.71-5.21.8-6.53Z"/>
    <path class="cls-1" d="M52.44,29.94c.91-.15,1.95,1.4,2.37,2.14.53.93.06,1.05-.66,1.71-.56.52-4.74,3.69-5.13,3.71-.17,0-.27-.02-.42-.09-.26-.12-2.25-2.76-2.39-3.1-.08-.19-.14-.33,0-.52l6.23-3.86Z"/>
    <path class="cls-1" d="M46.97,40.88c.59-.1,1.34.79,1.73,1.21.46.49,1.13,1.39,1.3,2-.1.39-3.97,3.49-4.58,3.9-.42.28-.91.75-1.44.61-.3-.08-2.61-3.15-2.57-3.39.68-.59,1.31-1.31,2.01-1.87.45-.37,3.24-2.39,3.56-2.45Z"/>
    <path class="cls-1" d="M18.44,81.78c-.4,2.39-2.36,3.26-4.45,3.92-.59.19-3.52.98-3.85.76-.38-1.26-1.59-3.31-1.59-4.59,0-.37-.01-.23.27-.27.92-.14,2.2.05,3.19,0,.42-.02.8-.18,1.22-.19,1.74-.03,3.52-.09,5.21.37Z"/>
    <path class="cls-1" d="M50.34,16.21c.77-.07,3.17-.2,3.79-.02.47.14,1.8,1.9,1.86,2.39.06.45-1.11,1.76-1.47,2.16s-2.34,2.44-2.66,2.48c-.26.03-.34-.03-.52-.19-.2-.17-1.25-1.87-1.47-2.24-.45-.78-1.48-2.72-1.59-3.54-.03-.25-.11-.48.14-.66.24-.2,1.51-.35,1.91-.39Z"/>
    <path class="cls-1" d="M25.94,19.04c.32,0,3.15,2.05,3.53,2.41.19.18.42.3.43.61.04.76-2.53,5.04-3.25,5.04-.21,0-.31-.15-.45-.26-.68-.52-2.92-2.77-3.43-3.44-.83-1.11-.32-1.31.53-2.13.34-.33,2.44-2.22,2.65-2.23Z"/>
    <path class="cls-1" d="M17.08,99.19l-3.03-4.6c.07-.39,1.61-.95,2.05-1.13.76-.32,3.13-1.27,3.8-1.07.55.17,2.69,3.46,2.57,3.9-.75.74-1.91,1.2-2.86,1.74-.63.36-1.95,1.68-2.54,1.15Z"/>
    <path class="cls-1" d="M54.03,93.98c.58-.09.59.22.5.68-.16.85-2.68,6.53-3.2,7.22-.85,1.11-2.56.75-3.79.99-.68-.48.76-5.56,1.33-6.27.16-.2.29-.26.49-.39.34-.23,4.41-2.19,4.66-2.23Z"/>
    <path class="cls-1" d="M36.04,58.87c.36-.06.51.01.82.17.14.07,2.22,1.94,2.33,2.08.25.31.35.55.22.95-.08.24-2.34,1.95-2.74,2.21-.51.33-2.09,1.38-2.57,1.24s-3.11-3.14-3.83-3.59c0-.17,1.63-1.07,1.93-1.24.73-.4,3.18-1.7,3.84-1.82Z"/>
    <path class="cls-1" d="M40.78,63.11c.36-.03.61.29.86.49.38.3,2.38,2.25,2.56,2.55.46.76-.34,1.27-.89,1.78-.69.64-2.71,2.32-3.6,2.2-.72-.09-3.96-2.7-3.79-3.4.65-.5,4.42-3.58,4.86-3.62Z"/>
    <path class="cls-1" d="M40.16,87.45c.37-.24,5.42.38,6.16.58.54.15.8.21.67.85-.11.53-2.36,3.97-2.79,4.27-.19.13-.39.24-.63.26-.44.05-4.27-1.21-4.4-1.4-.47-.71.82-3.67,1-4.57Z"/>
    <path class="cls-1" d="M16.28,86.41c.5-.08.92-.14,1.38.12s2.81,2.65,2.47,3.19c-.35.56-5.67,2.01-6.58,2.61l-.75-.05c-.29-1.35-2.85-3.64-.93-4.47.76-.33,3.65-1.28,4.41-1.41Z"/>
    <path class="cls-1" d="M37.44,93.31c1.41-.03,2.79.37,4.06.96.5.24,1.98.82,1.8,1.5-.12.47-2.86,1.44-3.47,1.66-.73.27-3.02,1.25-3.62,1.07-.56-.16-2.7-3.36-2.94-4.09.16-.56,3.51-1.09,4.17-1.1Z"/>
    <path class="cls-1" d="M21.38,33.11l3.47.36c.53.3.49.94.45,1.45-.06.8-1.48,6.59-2.01,6.63-1.22-.94-2.62-1.72-3.59-2.94l1.37-5.09.31-.4Z"/>
    <path class="cls-1" d="M46.62,57.11c.53-.1.73.13,1.11.41.4.3,2.25,2.25,2.47,2.64.25.43.25.65,0,1.08-.1.18-2.73,2.81-2.91,2.91-.35.21-.4.21-.79.08-.3-.11-3.18-2.84-3.37-3.16-.27-.46-.23-.9.11-1.32.23-.28,3.16-2.59,3.38-2.63Z"/>
    <path class="cls-1" d="M32.61,50.08c.29-.32,2.25-1.45,2.76-1.73.63-.34,2.71-1.47,3.28-1.49,1.01-.04,1.88,1.79,2.37,2.56.03.18-.1.24-.19.34-.42.49-2.78,2.08-3.47,2.53-.46.3-1.43,1.06-1.92,1.09-.85.06-2.56-2.04-3.03-2.76-.03-.18.07-.4.19-.53Z"/>
    <path class="cls-1" d="M61.66,66.25c-2.95-1.56-5.08-4.15-7.6-6.25-.59-.43.58-2.16.89-2.31.49-.24,1.34.38,1.82.66.7.4,4.29,2.85,4.62,3.32.68.97.47,3.44.26,4.58Z"/>
    <path class="cls-1" d="M55.66,89.54c.32.48-.92,1.04-1.29,1.26-1.81,1.07-4.76,2.56-6.7,3.35-.74.31-3.3,1.33-2.39-.44.25-.49,3.4-4.84,3.68-4.96.62-.28,6.51.51,6.7.79Z"/>
    <path class="cls-1" d="M57.43,86.54c-.38.33-8.61-.88-9.73-1.11-.56-.12-1.63-.11-1.54-.9.07-.24,3.67-2.63,4.09-2.79.33-.13.54-.18.91-.13,1.03.12,4.94,3.35,5.84,4.22.21.2.49.38.44.71Z"/>
    <path class="cls-1" d="M46.09,97.51c1-.11.47,2.3.32,2.98-.23,1.05-2.08,4.61-3.05,4.9-.92.27-2.51-1.83-3.05-2.53-.06-.61,1.99-3.53,2.56-3.96.41-.3,2.77-1.33,3.22-1.38Z"/>
    <path class="cls-1" d="M21.74,58.87c.29-.09.48-.05.75.06.18.07,2.92,2.17,3.1,2.37.88.98-.34,1.4-.89,1.94-.6.6-1.73,2.27-2.46,2.32-.62.04-3.19-1.52-3.68-1.98-.14-.13-.3-.14-.29-.41,0-.33,3.07-4.17,3.48-4.3Z"/>
    <path class="cls-1" d="M45.56,68.04c.16-.03.29-.03.45,0,.31.06,3.74,3.15,3.82,3.45.03.1.03.18,0,.28-.09.35-2.7,2.24-3.13,2.32-.74.14-5.19-2.27-5.3-2.66-.09-.3.08-.41.25-.6.29-.31,3.67-2.74,3.92-2.79Z"/>
    <path class="cls-1" d="M54.9,49.17l2.28,2.26v.36c-.98,1.04-3.34,5.61-4.34,6.08-.69.32-2.14-1.2-2.09-1.72.09-.87,1.23-3.29,1.71-4.13.37-.65,1.7-2.79,2.44-2.86Z"/>
    <path class="cls-1" d="M16,29.94c.81-.48,3.27,2.3,3.82,2.91-.14.73-1.1,4.71-1.67,4.8l-4.63-3.28c-.08-.3,2.26-4.3,2.48-4.43Z"/>
    <path class="cls-1" d="M39.79,84.42h-5.03c-.74,0-1.93-3.92-1.78-4.23.33-.65,4.68-1.04,5.4-.8,1.19.39,1.04,3.97,1.4,5.04Z"/>
    <path class="cls-1" d="M31.82,14.78c1.05,1.7,2.75,3.32,3.59,5.14.16.34.59.98.15,1.28-.71.48-3.42-.36-4.24-.72-.69-.3-3.34-1.98-3.63-2.56-.22-.44,1.33-1.54,1.7-1.83.43-.33,1.94-1.59,2.42-1.31Z"/>
    <path class="cls-1" d="M55.79,34.18c.78-.23,1.85.8,1.6,1.6l-4.68,6.28c-.15.06-.3.04-.45,0-.41-.11-2.52-2.56-2.4-3.03l5.93-4.86Z"/>
    <path class="cls-1" d="M5.74,60.34c.18-.6,1.68.19,2.11.36,1.57.6,4.09,1.5,5.48,2.28.26.15.7.35.7.71-1.6.79-3.61,1.65-5.4,1.83-.61.06-2.89.28-2.89-.6,0-.94-.19-3.95,0-4.59Z"/>
    <path class="cls-1" d="M36.84,18.92c-.45-.95-3.59-4.41-3.58-5.15,0-.5,2.96-2.08,3.44-2.03.15.01.27.06.35.19.25.98,2.85,3.49,2.91,4.15.06.62-2.13,3.91-3.13,2.85Z"/>
    <path class="cls-1" d="M35.2,73.49c-.25.82.74,4.08.18,4.5-1.01.25-4.5.79-5.22.27-.08-.06-.43-.59-.43-.63v-3.88l.26-.26h5.2Z"/>
    <path class="cls-1" d="M39.21,104.38c.31-.09.42,0,.68.14.28.17,2.34,2.34,2.34,2.53-.53,1.2-1.32,2.48-2.12,3.53-.32.42-.73,1.24-1.28,1.19-.48-.05-2.78-2.55-2.88-3.24.02-.51,2.84-4.03,3.26-4.15Z"/>
    <path class="cls-1" d="M51.56,62.05c.33-.07.41-.02.67.14.11.07,1.81,1.61,1.94,1.77.2.24.41.48.43.81.03.41-1.67,3.72-2.01,3.97-.3.22-.64.25-.98.07l-3.51-3.02c-.11-.56,2.89-3.63,3.46-3.74Z"/>
    <path class="cls-1" d="M24.76,73.36c.73-.07,3.3-.24,3.65.47.2.4-.09,3.87-.31,4.28-.4.77-2.89.5-3.73.79-.71-.13-1.26-3.23-1.32-3.95-.14-1.72.11-1.46,1.7-1.6Z"/>
    <path class="cls-1" d="M31.63,87.27c.54-.06.84.48.91.95.09.52.08,3.77-.08,4.13-.27.61-3.24,1.61-3.79,1.33-.45-.23-1.44-3.54-1.57-4.21.1-.31,4.03-2.15,4.53-2.21Z"/>
    <path class="cls-1" d="M6.13,67.17c.21-.15,3.91-.61,4.19-.48.63.29,2.54,4.25,2.22,4.68s-1.3,0-1.77-.02c-1.44-.05-2.9.12-4.34-.07-.32-.23-.72-3.82-.3-4.12Z"/>
    <path class="cls-1" d="M31.1,94.87c.91-.06,3.39,3.53,3.4,4.11,0,.51-3.26,1.67-3.78,1.62-.98-.09-2.56-2.53-2.92-3.41-.24-.58-.43-.97.21-1.35.48-.29,2.54-.94,3.09-.98Z"/>
    <path class="cls-1" d="M47.69,104.06c.46-.05,2.54-.3,2.48.36l-2.89,5.58c-.58.93-2.75-.64-3.42-1.15-.9-.69-.43-1.01.09-1.82.97-1.52,1.88-2.75,3.74-2.96Z"/>
    <path class="cls-1" d="M41.89,9.11l3.54,6.79c-.08.56-.47.44-.89.35-1.92-.43-3.53-1.51-4.76-3.01-.31-.38-1.69-2.22-1.52-2.55.21-.4,3.42-1.71,3.62-1.58Z"/>
    <path class="cls-1" d="M62.19,43.41l-.43.27-5.26-3.17c-.59-.56.27-1.65.61-2.18.28-.44,1.16-1.77,1.63-1.72s3.45,3.3,3.45,3.8v3Z"/>
    <path class="cls-1" d="M61.84,59.9c-.17.18-1.17-.5-1.4-.63-.57-.34-4.21-2.64-4.35-2.9-.3-.56,1.69-3.78,2.41-3.62.39.09,2.96,2.74,3.14,3.2.5,1.26.22,2.66.19,3.95Z"/>
    <path class="cls-1" d="M34.62,109.49l3.21,3.63c-.3,1-1.51,2.86-2.75,2.39-.42-.16-4.05-2.53-4.07-2.77.9-1.33,2.36-2.25,3.62-3.24Z"/>
    <path class="cls-1" d="M50.31,109.49c.23-.04,2.83,2.55,2.89,2.91.17,1.01-1.22,3.13-1.88,3.94-.64.19-3.32-1.88-3.74-2.57.37-.72,2.1-4.17,2.73-4.28Z"/>
    <path class="cls-1" d="M43.49,119.7c-.16-.21,2.78-4.3,3.12-4.39.39-.1,3.47,2.22,3.56,2.58.15.62-1.6,2.79-2.22,3.2l-4.46-1.39Z"/>
    <path class="cls-1" d="M32.73,84.6c-.3.31-6.93-3.05-7.89-3.31-.35-.07-.55-.66-.38-.91.23-.34,6.13-.73,6.82-.41.75.35,1.41,3.71,1.45,4.63Z"/>
    <path class="cls-1" d="M38.51,100.15c.32-.03.57.03.57.4,0,.83-4.47,6.75-5.02,6.63-.64-.67-1.53-4.07-1.14-4.65.34-.5,4.89-2.3,5.59-2.38Z"/>
    <path class="cls-1" d="M34.23,87.07h2.82c.08,0,1.04.15,1.23.18s.37.07.43.29c.08.27-.54,2.55-.71,2.95-.68,1.61-2.31,1.8-3.87,1.8-.29-.21-.16-2.31-.17-2.83-.01-.76-.44-1.65.27-2.38Z"/>
    <path class="cls-1" d="M24.75,90.28c.42-.06.8-.14,1.11.21.24.27,1.46,3.42,1.38,3.69-.42.4-2.64,1.37-3.08,1.34-.7-.04-2.48-3.1-2.88-3.79.02-.27,3.01-1.39,3.46-1.46Z"/>
    <path class="cls-1" d="M45.31,49.72c.28-.33,1.44-.99,1.89-.86.4.11,3.48,2.84,3.53,3.2.07.53-.75,2.57-1.24,2.82-.26.13-.26.04-.44-.09-.64-.44-3.71-3.78-3.89-4.42-.07-.26-.01-.46.16-.66Z"/>
    <path class="cls-1" d="M50.67,45.29c.91-.27,2.54,1.83,3.01,2.55.05.56-1.51,2.49-2.06,2.62-.76.17-2.99-2.11-3.35-2.86-.02-.25,2.14-2.25,2.39-2.32Z"/>
    <path class="cls-1" d="M62.9,10.16c-.51.5-3.06-2.18-3.44-2.64-.53-.65-1.15-1.54-1.33-2.37.05-.29,3.96-.64,4.48-.3.09.06.3.38.3.45v4.85Z"/>
    <path class="cls-1" d="M37.09,73.34c.41-.12.69-.01,1.06.11.91.29,3,1.56,3.88,2.12s-.15.93-.77,1.24c-1.22.61-2.75,1.15-4.13.83-.33-.73-.98-4.02-.04-4.3Z"/>
    <path class="cls-1" d="M54.44,10.5l-1.77-4.93c1.04.01,2.85-.76,3.7-.08.36.29,1.28,2.17,1.22,2.6-.18.54-.78.89-1.22,1.26-.3.24-1.68,1.31-1.92,1.15Z"/>
    <path class="cls-1" d="M54.07,110.71c-.3.08-.35-.13-.53-.26-.49-.38-2.21-2.12-2.29-2.66-.1-.66.74-2.48,1.08-3.14.25-.47.37-.98.95-1.14,1.61,1.92,1.63,4.93.79,7.2Z"/>
  </g>
  <g>
    <path class="cls-1" d="M66.78,123.41l.62-32.63c3.7,2.56,2.82,7.19,3.08,11.03.49,7.07,2.52,13.97,6.36,19.92-.16.77-8.84,1.61-10.06,1.68Z"/>
    <path class="cls-1" d="M65.89,23.21v-10.14c0-.22.68-.86.9-1.04.42-.36,2.8-2.14,3.17-2.31.15-.07.24-.11.42-.1.91.08,2.9,2.9,3.88,3.37l.24.46c-1.5,3.02-3.82,6.16-6.41,8.35-.64.54-1.4,1.15-2.2,1.42Z"/>
    <path class="cls-1" d="M97.41,96.28c.24-.04,3.08,1.09,3.59,1.29,2.2.86,4.71,1.87,6.83,2.88.32.15,1.54.63,1.46.99-.04.17-1.98,2.34-2.28,2.66-.36.38-1.57,1.75-1.99,1.65l-7.34-4.5c-.52-.65-.71-2.46-.74-3.32-.02-.46-.12-1.54.47-1.65Z"/>
    <path class="cls-1" d="M72.73,29.94c.34-.05,2.29,1.09,2.43,1.38.68,1.39-1.33,4.01-2.13,5.1-1.8,2.43-3.89,4.74-6.16,6.72-.32-.23-.4-.4-.45-.78-.11-.84-.11-6.17.09-6.81.23-.74,2.42-2.29,3.1-2.9.62-.55,2.45-2.6,3.12-2.71Z"/>
    <path class="cls-1" d="M86.82,9.3c.39-.09,5.79,2.4,5.98,2.8l.06.58c-1.2,1.21-2.71,4.68-4.08,5.46-1.45.82-4.52.56-6.12.23-.42-.31,0-1.07.15-1.44.7-1.81,2.3-4.87,3.29-6.59.14-.23.53-.98.73-1.03Z"/>
    <path class="cls-1" d="M79.3,41.73c-1.2-.12-3.1,3.71-3.61,3.71l-3.1-3.09c-.28-.37-.22-.7,0-1.08.12-.21,1.67-1.93,1.85-2.03.33-.19.51-.2.89-.18.71.04,4.46,1.43,5.27,1.8.76.35,3.17,1.82,3.12,2.69-.02.4-3.13,4.6-3.61,5.05-.17.16-.28.33-.55.36-.57.05-2.51-1.77-2.55-2.4-.05-.88,2.83-4.25,2.29-4.84Z"/>
    <path class="cls-1" d="M117.93,85.83c.31.31-1.37,4.18-1.73,4.71-.42.62-.53.81-1.35.77l-7.15-1.69c-.82-1.37-.94-3.02-1.2-4.56l.31-.37,11.11,1.15Z"/>
    <path class="cls-1" d="M94.78,102.09c.53-.08,5.47,2.78,6.34,3.29s2.14,1.05,2.69,1.86c-.05.27-3.65,3.37-4.05,3.55-.25.11-.44.15-.69,0l-6.45-4.32c-.1-.19-.11-.4-.1-.61.03-.65,1.54-3.66,2.26-3.77Z"/>
    <path class="cls-1" d="M101.01,62.54c-.19-1.03.61-1.21,1.14-1.75.8-.81,3.96-4.23,4.72-4.46s3.85,1.21,4.94,1.14l.28.25c-.2.75.51,4.43.03,4.75-1.29.28-10.76.49-11.12.07Z"/>
    <path class="cls-1" d="M104.48,75.82c.61-.03,4.45,1.38,4.61,1.84.23.69-1.08,4.08-1.74,4.38-.72.32-2.23-.03-3.03-.14-2.03-.28-5.31-.86-7.24-1.4-.8-.22-.87-.51-.19-.98.91-.64,2.71-1.53,3.76-2.06.95-.48,2.85-1.58,3.84-1.63Z"/>
    <path class="cls-1" d="M66.95,69.87c.25-2.32,3.3-4.77,4.88-6.41.44-.08,3.73,2.59,3.78,3.07.03.36-.54,1-.8,1.32-2.09,2.56-5.17,4.76-7.41,7.23l-.44-.26c.12-1.58-.17-3.39,0-4.94Z"/>
    <path class="cls-1" d="M111.31,77.8c1.83.2,3.65.59,5.48.8.59.07,3.13.04,3.45.26.24.16.17.43.13.67-.05.34-1.15,3.86-1.29,4.02-.22.26-.59.19-.88.18-2.89-.17-6-.98-8.93-1.14-.25-.17-.18-.58-.13-.85.15-.73,1.4-3.86,2.16-3.93Z"/>
    <path class="cls-1" d="M91.6,69.81c.64-.13,4.45,1.31,4.79,1.84.36.57.12,1.44.2,2.1.17,1.61.94,3.19-1.24,3.72-.69.17-2.28-1.03-3.05-1.37-1.87-.82-4.02-1.28-5.59-2.7.29-.3.57-.6.89-.87.47-.39,3.66-2.65,4-2.72Z"/>
    <path class="cls-1" d="M77.36,31.32c.26-3.97,2.51-7.56,4.14-11.11l5.74-.27c.4.27,0,.79-.15,1.1-1.5,3.07-6.44,7.93-9.2,10.02-.18.13-.22.34-.53.26Z"/>
    <path class="cls-1" d="M76.32,15.08l.06-.87c1.01-1.1,2.53-6.65,3.34-7.24.31-.23.5-.18.85-.13.44.06,3.98,1.34,4.11,1.55.27.44-.1,1.21-.29,1.66-.79,1.82-2.18,3.74-3.16,5.49-.18.14-.37.24-.6.25-.42.01-4.19-.52-4.31-.7Z"/>
    <path class="cls-1" d="M89.73,21.08c-.11-.35.04-.62.19-.93,1.05-2.22,3.48-4.56,4.67-6.8.49-.15,4.48,2.54,4.44,3.04-.09.25-.22.48-.36.71-.62,1.04-2.34,3.67-3.06,4.52-.35.41-.65.55-1.2.53-.48-.02-4.55-.87-4.69-1.06Z"/>
    <path class="cls-1" d="M80.48,78.12c.69-.03,3.65,1.93,4.35,2.45.36.27,1.28.7.82,1.11-.32.28-2.78,1-3.39,1.2-2.65.83-6.17,1.86-8.89,2.22-.46.06-1.36.28-1.65-.07-.08-.37,2.33-2.38,2.74-2.72,1.3-1.08,3.63-3,5.03-3.79.28-.15.68-.39.99-.4Z"/>
    <path class="cls-1" d="M113.55,57.64l7.97-2.13c.74.25.58,4.18.8,4.97-.21.47-.67.55-1.1.68-2.02.61-4.35.64-6.4,1.2-1.88.01-1.26-3.44-1.27-4.72Z"/>
    <path class="cls-1" d="M96.02,31.18c.17-.04.28-.05.44,0,.38.1,1.8,2.5,2.25,3.06,1.29,1.58,2.2,1.16,1.41,3.54-.42,1.26-.49,1.7-1.95,1.42-1.29-.25-4.42-1.36-5.68-1.9-.25-.11-.94-.35-1-.59.71-1.49,2.91-5.1,4.53-5.51Z"/>
    <path class="cls-1" d="M67.31,83.19c-.1-.11.17-2.71.27-2.99.16-.45,2.6-3.57,3.09-4.15.8-.95,1.86-1.69,2.54-2.75.7-.82,3.89,2.07,4.08,2.49.06.14.13.25.06.4-.1.38-2.33,1.94-2.82,2.31-1.66,1.25-4.69,3.65-6.45,4.49-.26.12-.45.27-.76.2Z"/>
    <path class="cls-1" d="M95,29.21c.39-2.7,1.43-5.38,2.73-7.76.32-.59,2.28-3.75,2.68-3.86.53-.14,3.63,2.53,3.57,2.86-1.85,2.29-3.68,4.68-5.89,6.65-.36.32-2.79,2.41-3.09,2.11Z"/>
    <path class="cls-1" d="M106.6,41.05l4.72,1.91c.11.95.3,3.74-.44,4.32-.25.19-3.77,1-4.13.97-.76-.08-1.58-1.29-2.01-1.88-.36-.49-1.55-2.26-1.42-2.75.12-.45,2.8-2.48,3.28-2.57Z"/>
    <path class="cls-1" d="M92.51,29.9l-6.86-2.91,3.04-4.53.52-.09c.68.39,4.97.91,5.18,1.18.18.25.05.63,0,.9-.31,1.71-1.47,3.71-1.88,5.45Z"/>
    <path class="cls-1" d="M89.81,107.19l7.83,5.2c-.83.57-4.05,3.13-4.83,3.09-.63-.03-4.15-3.11-4.31-3.66-.07-.23-.02-.4,0-.62.06-.47.83-3.09,1.02-3.57.07-.17.06-.37.28-.44Z"/>
    <path class="cls-1" d="M99.2,83.41c.42.39-.85,3.88-1.36,4.29-.78.62-4.04-.08-4.9-.6-.52-.31-3.23-3.03-3.24-3.48-.02-.24.14-.3.3-.42.26-.19,2.92-1.43,3.15-1.44l6.05,1.64Z"/>
    <path class="cls-1" d="M112.96,64.54c.45-.02,1.06-.19,1.23.43.3,1.06.02,2.74.39,3.85-.04.9-.65,1.18-1.41,1.41-.98.3-3.95,1.05-4.88,1.13s-1-.06-.95-.95c.05-.76.4-4.87.63-5.2.4-.6,2.11-.3,2.81-.36s1.49-.27,2.17-.3Z"/>
    <path class="cls-1" d="M83.53,120.05l-4.68,1.4c-.2.01-.31-.13-.44-.24-.54-.45-2.78-4.66-2.74-5.31.04-.54,2.66-2.86,3.1-3.53.46-.23,1,.79,1.2,1.1,1.27,2.03,2.48,4.44,3.56,6.58Z"/>
    <path class="cls-1" d="M88.98,67.99c-.93.34-3.51,2.92-4.28,2.85-.61-.05-4.77-3.13-5.22-3.97,0-.37,2.52-3.05,2.9-3.28.5-.29.77-.22,1.26,0,.53.23,5.1,3.56,5.28,3.89.08.15.16.34.06.5Z"/>
    <path class="cls-1" d="M81.44,51.94c-.12-.35.04-.62.18-.92.24-.5,1.79-2.77,2.17-3.12.48-.44.71-.43,1.34-.26.53.15,4.51,2.44,4.92,2.84.44.42.46.47.16,1.02-.27.5-3.24,3.64-3.59,3.64l-5.18-3.2Z"/>
    <path class="cls-1" d="M84.7,28.38c1.36-.14,5.21,2.63,6.87,2.76.33.63-1.75,3.8-2.04,3.98-.82.5-3.28-1.23-4.17-1.65-1.36-.64-2.78-1.18-4.12-1.88-.07-.28,2.85-3.15,3.46-3.21Z"/>
    <path class="cls-1" d="M90.88,38.25l7.75,2.41c.24,1.17-1.5,4.62-2.68,4.73l-6.78-4.09c-.61-.7,1.03-2.98,1.71-3.05Z"/>
    <path class="cls-1" d="M109.04,91.87c.76.22,5.39.89,5.52,1.48-.42.93-3.34,5.88-3.99,6.04l-4.62-2.04c-.11-.36.11-.65.24-.95.23-.54,2.58-4.49,2.85-4.54Z"/>
    <path class="cls-1" d="M66.78,63.96c.07-2.12-.52-4.33.02-6.42l5.85-3.32c.95-.52,2.22,1.1,1.8,1.97-1.16,1.46-2.31,2.99-3.61,4.33-.65.68-2.8,2.85-3.44,3.27-.22.14-.35.22-.62.17Z"/>
    <path class="cls-1" d="M87.88,42.48c.53-.1,5.33,2.59,6.01,3.1.39.29,1.12.72.85,1.27-.79.64-1.91,2.5-2.79,2.88-.22.09-.34.07-.54-.06l-6.1-3.62c-.07-.29,2.17-3.48,2.57-3.56Z"/>
    <path class="cls-1" d="M90.71,59.96c.22.24,1.68,4.77,1.66,5.15-.03.51-1.14,1.38-1.56,1.47-.49.1-2.88-1.71-3.45-2.12-.54-.39-2.99-2.14-3.1-2.56l.15-.5c.58-.31,2.06-2.36,2.46-2.48.71-.2,3.35.5,3.84,1.04Z"/>
    <path class="cls-1" d="M122.34,63.25v4.85c0,.14-.26.57-.26.8l-.2.15c-1.9.1-3.81.54-5.72.29-.69-1.43-.59-3.07-.81-4.6.07-.45,1.4-.62,1.84-.73s5.15-1.07,5.15-.76Z"/>
    <path class="cls-1" d="M114.32,33.27l2.65,5.12c-.19.44-3.69,2.83-4.28,2.95-.81.17-4.29-.59-4.28-1.46,0-.49,1.75-1.89,2.21-2.38,1.28-1.36,2.49-2.81,3.7-4.23Z"/>
    <path class="cls-1" d="M117.4,54.78c-3.08,1.41-6.27,1.74-9.35.08-.1-.47,1.49-1.77,1.85-2.19.51-.59,2.28-3.05,2.73-3.26.33-.15.72-.16,1.05,0l3.71,5.38Z"/>
    <path class="cls-1" d="M96.55,52.36c.27.31.69,4.09.54,4.6-.2.68-3.52,1.31-4.28,1.36s-3.93-.21-4.25-.88c-.07-.28.21-.52.36-.71.52-.67,3.26-3.43,3.91-3.85s3.27-1.04,3.72-.51Z"/>
    <path class="cls-1" d="M91.11,116.7c-1.1.23-4.65,2.51-5.51,2.28-.53-.14-2.95-3.9-2.74-4.61.09-.31,2.56-2.9,3.19-2.57,1.26,1.22,2.86,2.29,4.1,3.5.26.25,1.21,1.04.96,1.41Z"/>
    <path class="cls-1" d="M84.19,75.11c.34-.08.64-.06.98,0,.81.15,6.76,2.53,7.42,2.99.17.12.33.25.47.41,0,.28-4.64,2.2-5.03,2.21-1.52.04-4.87-3.14-6.43-3.8-.06-.26,2.26-1.74,2.59-1.81Z"/>
    <path class="cls-1" d="M66.6,48c.08-.42,1.94-2.46,2.38-2.91.77-.79,2.07-2.69,3.09-1.5l2.47,2.83c0,.4-1.01,1.03-1.36,1.29-1.06.8-2.74,1.84-3.93,2.42-.37.18-1.99.92-2.25.94-.15,0-.4-.13-.4-.24,0-.76-.13-2.17,0-2.82Z"/>
    <path class="cls-1" d="M79.78,32.94c.56-.11,3.14.84,3.7,1.17.22.13.44.29.5.55.08.39-2.33,4.62-2.87,4.75-1.78-.5-3.73-.76-5.33-1.67-.22-.74,3.21-4.64,4-4.8Z"/>
    <path class="cls-1" d="M80.36,17.21c.19.19-1,2.84-1.2,3.29-.22.48-1.32,2.83-1.62,2.97-.3.18-.55.06-.83-.05-1.22-.47-2.76-2.04-4.08-2.53-.13-.23.08-.53.18-.74.18-.38,2.22-3.36,2.41-3.46.75-.41,4.05.79,5.15.53Z"/>
    <path class="cls-1" d="M80.31,53.05c.55-.14,4.79,2.58,4.97,3.09.12.33.02.57-.14.86-.13.22-2.91,3.01-3.12,3.05-.63-.22-4.73-2.47-4.81-2.73-.11-.39.8-1.48,1.08-1.88.31-.45,1.64-2.29,2.03-2.39Z"/>
    <path class="cls-1" d="M82.95,71.42c.33.39.08.7-.21,1-.36.37-3.78,2.78-4.06,2.76-.75-.6-3.58-2.52-3.62-3.39.02-.69,2.91-3.59,3.26-3.6,1.73.72,3.05,2.23,4.63,3.22Z"/>
    <path class="cls-1" d="M121.24,53.51c-.17.21-1.5.58-1.81.58-1.08-.01-2.25-2.01-2.8-2.84-.28-.43-1.84-2.93-1.68-3.15l4.76-2.05c.38.24,1.22,3.8,1.35,4.48s.61,2.45.18,2.98Z"/>
    <path class="cls-1" d="M85.4,90.79c.36-.08,3.47,1.99,3.68,2.46.25.54.07,3.45-.12,4.11-.13.44-.52.49-.92.49-.67,0-3.3-.43-3.99-.61-.88-.23-1.77-.79-1.26-1.81l2.61-4.62Z"/>
    <path class="cls-1" d="M101.33,90.44c.67,1.04-2.09,3.37-3.06,3.51l-6.67-2.69c-1.07-.63,1.2-2.2,1.72-2.27.8-.11,7.79,1.1,8.01,1.44Z"/>
    <path class="cls-1" d="M100.82,42.09c.84-2.21,1.63-4.74,2.86-6.76.39-.64.93-1.79,1.77-1.68.41.05,3.99,1.19,4.12,1.37.2.26.04.42-.09.64-.3.5-2.01,1.9-2.57,2.37s-5.77,4.37-6.08,4.06Z"/>
    <path class="cls-1" d="M78.12,104.66c-.14-.11-1.61-2.92-1.68-3.18-.06-.24-.07-.32.02-.57.24-.61,3.68-3.04,4.3-2.88.29.07,1.95,1.89,2.03,2.23.16.66-1.24,4.26-1.84,4.61-.45.26-2.47.1-2.84-.21Z"/>
    <path class="cls-1" d="M81.95,86.01c1.29-.12,5.07-2.09,6.04-1.92.29.05.55.3.76.49.46.42,2.23,2.28,2.55,2.74.23.32.45.59.33,1.02-.08.3-1.79,2.08-2.34,1.71-2.04-1.34-4.74-2.21-6.75-3.49-.13-.09-.68-.44-.58-.56Z"/>
    <path class="cls-1" d="M76.25,58.52c.36-.06,2.56,1.35,3.03,1.66.36.24,1.44.81,1.43,1.22s-3.31,3.38-3.82,3.94c-.32.06-3.85-2.65-3.91-3.26-.05-.5,2.69-3.47,3.27-3.56Z"/>
    <path class="cls-1" d="M71.49,21.83c.3-.06.4.07.63.17.5.24,4.31,2.87,4.44,3.15.14.31.06.42.01.7-.09.48-1.07,3.48-1.34,3.62-.42.22-1.69-.86-2.03-1.16-.82-.7-3.41-3.54-3.45-4.51-.03-.65,1.16-1.87,1.73-1.99Z"/>
    <path class="cls-1" d="M99.55,51.84c.64-.05,1.07-.22,1.64.2.3.22,2.44,3.49,2.46,3.73.02.26-.06.34-.17.53s-2.9,2.98-3.09,3.09c-.12.07-.22.18-.37.18-.73.07-1.19-1.09-1.36-1.64-.34-1.06-.61-3.63-.67-4.81-.01-.28-.06-.92.17-1.08.45-.04.96-.16,1.39-.2Z"/>
    <path class="cls-1" d="M121.61,71.39c.56.35-.38,4.61-.67,5.37-1.5.21-3.05,0-4.52-.26-.52-.4-.91-3.83-.7-4.61.36-.55,4.94-.33,5.89-.5Z"/>
    <path class="cls-1" d="M104.68,29.41c.11.29.03.57-.07.85-.17.46-2.88,4.59-3.16,4.59-.88-.89-3.97-3.61-3.35-4.93.22-.46,2.19-2.38,2.67-2.43.92-.1,2.88,1.74,3.92,1.92Z"/>
    <path class="cls-1" d="M99.44,88.46c-.39-.61.98-4.37,1.56-4.65.43-.21,3.77.41,4.07.88.26.41,1.1,4.33.71,4.61-.71.5-5.33-.37-6.34-.83Z"/>
    <path class="cls-1" d="M75.72,105.43c.55-.15,1.16,1.13,1.37,1.57,1.72,3.54.57,5.04-2.29,7.23-.34,0-2.08-5.38-2.03-5.9.07-.65,2.47-2.25,2.95-2.89Z"/>
    <path class="cls-1" d="M109.75,26.92c.22-.05.3.14.42.26.4.37,2.79,3.86,2.82,4.24.06.56-1.49,2.43-2.07,2.52l-4.98-1.85c-.23-.77,3.2-4.39,3.8-5.18Z"/>
    <path class="cls-1" d="M95.71,100.48c-.49.48-4.72-1.62-5.22-2.28-.58-.78.04-3.7.11-4.77l5.11,2.2v4.85Z"/>
    <path class="cls-1" d="M66.25,26.65c.08-.27,1.88-1.95,2.35-1.83.24.06,2.78,3.57,2.79,3.95s-1.01,1.51-1.34,1.85c-1.04,1.1-2.32,1.92-3.53,2.82-.05.02-.26-.41-.26-.44v-6.35Z"/>
    <path class="cls-1" d="M77.48,87.45c.71-.22,1.68.16,2.35.42.59.22,4.13,1.97,4.22,2.32l-2.74,4.98c-1.47.25-3.29-6.29-4.1-7.34-.07-.18.11-.33.27-.38Z"/>
    <path class="cls-1" d="M98.66,64.88c.39-.07,1.83.05,1.96.43.11.32.09,3.36.03,3.86-.2,1.74-2.51,1.2-3.74.91-.96-.22-4-1.04-2.79-2.34.44-.48,3.99-2.76,4.55-2.87Z"/>
    <path class="cls-1" d="M84.15,101.89l4.29,4.53c.15.52-1.1,3.86-1.31,3.93-.39.12-.96-.59-1.22-.87-.48-.51-3.06-3.63-3.19-4.06-.23-.77.82-2.9,1.43-3.53Z"/>
    <path class="cls-1" d="M77.71,6.11c.23.26-1.55,4.68-1.9,5.23-.31.49-.43.75-1.01.41-.39-.23-2.96-2.66-3.05-2.96-.18-.6.92-3.09,1.38-3.31.97-.47,3.48.54,4.58.62Z"/>
    <path class="cls-1" d="M78.89,96.29c.16.19.27.46.21.7-.12.46-3.5,2.86-4,2.56-.71-.95-3.79-6.58-3.2-7.38l7,4.11Z"/>
    <path class="cls-1" d="M114.2,72.28l.55,4.39c-.3.3-8.03-1.26-8.27-1.6-.3-.42.22-.87.59-1.05,1.15-.54,4.29-1.48,5.56-1.68.52-.08,1.04-.14,1.57-.05Z"/>
    <path class="cls-1" d="M104.52,48.78c-2.67.87-5.48,1.19-8.28,1.07-.32-.31,1.29-1.76,1.58-2.03.78-.73,2.28-2.14,3.09-2.73,1.1-.8,1.16-.56,1.86.44.3.43,1.93,3.01,1.75,3.26Z"/>
    <path class="cls-1" d="M103.78,90.8c.52-.1,3.35.31,3.41.94.05.58-2.23,4.79-2.93,4.86-.52.05-3.79-1.36-3.79-2.03,0-.25,2.87-3.68,3.31-3.76Z"/>
    <path class="cls-1" d="M75.86,47.8c.65.37,2.94,2.13,2.87,2.81-.04.37-2.73,3.8-3.05,3.78-.76-.76-3.65-3.66-3-4.72.22-.35,2.73-1.89,3.18-1.87Z"/>
    <path class="cls-1" d="M117.35,40.35c.1-.02.19-.05.29-.01.15.05,1.24,2.44,1.31,2.77.17.86-.4,1.12-1.08,1.49-.85.46-3.54,1.78-4.35,2.01-.25.07-.48.16-.72,0-.46-.33-.1-2.87.28-3.45.23-.34,3.93-2.75,4.27-2.8Z"/>
    <path class="cls-1" d="M105.24,21.62l3.14,3.65c-.42.73-1.96,2.86-2.71,2.9-.45.02-3.72-1.78-3.78-2.07l3.35-4.48Z"/>
    <path class="cls-1" d="M85.47,99.06c1.6-.17,6.31.95,7.25,2.2.38.51-.97,3.45-1.51,3.82-.34.23-.54-.07-.8-.28-.54-.42-4.55-4.37-4.77-4.76-.2-.34-.2-.6-.17-.98Z"/>
    <path class="cls-1" d="M106.2,65.02c.93.28.09,4.11-.13,4.9-.6.33-4.19.44-4.19-.22v-4.5c.23.1.52-.18.62-.18h3.7Z"/>
    <path class="cls-1" d="M92.38,59.93l4.63-1.21c2.14,1.54,2.09,1.8.29,3.4-.4.35-2.99,2.38-3.27,2.38-.24,0-.3-.12-.42-.29-.35-.51-1.52-3.84-1.23-4.28Z"/>
    <path class="cls-1" d="M85.6,35.23c.41-.11,2.76,1.24,2.7,1.82-.02.23-2.18,3.43-2.51,3.86-.2.26-.85,1.17-1.11,1.18-.79-.25-2.13-1.3-2.04-2.2.03-.26,1.86-3.47,2.15-3.86.17-.23.55-.74.8-.8Z"/>
    <path class="cls-1" d="M97.84,71.92l7.47-.54.58.43-.72.83c-1.19.32-5.7,3.05-6.56,2.97-.95-.08-.83-2.99-.78-3.69Z"/>
    <path class="cls-1" d="M84,111.35c-.28.31-1.94,1.84-2.22,1.64-.62-1.87-2.13-4.12-2.58-5.99-.27-1.13,2.21-.63,2.76-.27.25.17,2.54,3.02,2.6,3.23.17.56-.21,1.01-.56,1.4Z"/>
    <path class="cls-1" d="M65.72,4.69c.12-.19,2.81-.04,3.26,0,.36.04,2.01.2,2.03.44-.67,1.14-1.5,2.44-2.46,3.36-.42.4-2.16,1.87-2.66,1.59-.07-.13-.16-.41-.16-.54v-4.85Z"/>
    <path class="cls-1" d="M71.72,98.54c.36-.04.59.3.78.54.49.62,2.58,4.05,2.58,4.66,0,.82-2.28,2.64-2.65,2.38l-.71-3.79v-3.79Z"/>
    <path class="cls-1" d="M70.93,50.79c.7.58,1.67,1.57.89,2.42-.61.66-4.37,2.51-5.05,2.03-1.12-2.76,2.29-3.56,4.16-4.45Z"/>
    <path class="cls-1" d="M109.47,50.03l-4.36,4.56c-.23.06-.53-.05-.71-.2-.3-.26-1.79-2.63-1.56-2.95.13-.14.32-.16.49-.22.82-.31,4.37-1.13,5.29-1.24.31-.04.55.03.85.06Z"/>
    <path class="cls-1" d="M77.71,92.71l-5.99-3.62-.18-.61c.99-.09,3-.81,3.88-.44,1.08.46,2.22,3.51,2.29,4.67Z"/>
  </g>
</svg>